<svg xmlns="http://www.w3.org/2000/svg" viewBox="0 0 800 500"><rect width="800" height="500" fill="#fafafa"/><defs><marker id="arr" markerWidth="10" markerHeight="10" refX="8" refY="5" orient="auto" markerUnits="strokeWidth"><path d="M0,0 L0,10 L8,5 z" fill="#2196F3"/></marker></defs><text x="400" y="35" font-family="system-ui,-apple-system,sans-serif" font-size="18" font-weight="700" text-anchor="middle">JVM 对象创建五步曲</text><ellipse cx="400" cy="75" rx="70" ry="22" fill="#E3F2FD" stroke="#2196F3" stroke-width="2"/><text x="400" y="80" font-family="system-ui,-apple-system,sans-serif" font-size="13" font-weight="700" text-anchor="middle" fill="#2196F3">遇到 new 指令</text><line x1="400" y1="97" x2="400" y2="125" stroke="#2196F3" stroke-width="2" marker-end="url(#arr)"/><polygon points="400,130 480,160 400,190 320,160" fill="#FFF3E0" stroke="#FF9800" stroke-width="2"/><text x="400" y="156" font-family="system-ui,-apple-system,sans-serif" font-size="13" text-anchor="middle" fill="#FF9800">类加载检查</text><text x="400" y="174" font-family="system-ui,-apple-system,sans-serif" font-size="11" text-anchor="middle" fill="#FF9800">是否已加载?</text><line x1="320" y1="160" x2="240" y2="160" stroke="#f44336" stroke-width="2" marker-end="url(#arr)"/><line x1="240" y1="160" x2="180" y2="160" stroke="#f44336" stroke-width="2" marker-end="url(#arr)"/><rect x="40" y="140" width="140" height="40" rx="8" fill="#FFEBEE" stroke="#f44336" stroke-width="2"/><text x="110" y="158" font-family="system-ui,-apple-system,sans-serif" font-size="12" text-anchor="middle" fill="#f44336">触发类加载</text><text x="110" y="172" font-family="system-ui,-apple-system,sans-serif" font-size="12" text-anchor="middle" fill="#f44336">加载/解析/初始化</text><line x1="400" y1="190" x2="400" y2="220" stroke="#2196F3" stroke-width="2" marker-end="url(#arr)"/><rect x="300" y="225" width="200" height="40" rx="8" fill="#E3F2FD" stroke="#2196F3" stroke-width="2"/><text x="400" y="243" font-family="system-ui,-apple-system,sans-serif" font-size="13" text-anchor="middle" fill="#2196F3">分配内存</text><text x="400" y="258" font-family="system-ui,-apple-system,sans-serif" font-size="11" text-anchor="middle" fill="#607D8B">指针碰撞 / 空闲列表</text><line x1="300" y1="245" x2="170" y2="245" stroke="#9C27B0" stroke-width="1.5" stroke-dasharray="4" marker-end="url(#arr)"/><rect x="30" y="220" width="140" height="30" rx="8" fill="#F3E5F5" stroke="#9C27B0" stroke-width="1.5"/><text x="100" y="240" font-family="system-ui,-apple-system,sans-serif" font-size="11" text-anchor="middle" fill="#9C27B0">CAS+失败重试</text><line x1="300" y1="245" x2="170" y2="275" stroke="#9C27B0" stroke-width="1.5" stroke-dasharray="4" marker-end="url(#arr)"/><rect x="30" y="260" width="140" height="30" rx="8" fill="#F3E5F5" stroke="#9C27B0" stroke-width="1.5"/><text x="100" y="280" font-family="system-ui,-apple-system,sans-serif" font-size="11" text-anchor="middle" fill="#9C27B0">TLAB 本地分配</text><line x1="400" y1="265" x2="400" y2="295" stroke="#2196F3" stroke-width="2" marker-end="url(#arr)"/><rect x="300" y="300" width="200" height="30" rx="8" fill="#E3F2FD" stroke="#2196F3" stroke-width="2"/><text x="400" y="320" font-family="system-ui,-apple-system,sans-serif" font-size="13" text-anchor="middle" fill="#2196F3">初始化零值 (除对象头外设为0)</text><line x1="400" y1="330" x2="400" y2="360" stroke="#2196F3" stroke-width="2" marker-end="url(#arr)"/><rect x="300" y="365" width="200" height="30" rx="8" fill="#E3F2FD" stroke="#2196F3" stroke-width="2"/><text x="400" y="385" font-family="system-ui,-apple-system,sans-serif" font-size="13" text-anchor="middle" fill="#2196F3">设置对象头 (类指针/GC年龄等)</text><line x1="400" y1="395" x2="400" y2="422" stroke="#2196F3" stroke-width="2" marker-end="url(#arr)"/><rect x="310" y="425" width="180" height="40" rx="8" fill="#E8F5E9" stroke="#4CAF50" stroke-width="2"/><text x="400" y="443" font-family="system-ui,-apple-system,sans-serif" font-size="13" text-anchor="middle" fill="#4CAF50">执行 init 构造函数</text><text x="400" y="458" font-family="system-ui,-apple-system,sans-serif" font-size="11" text-anchor="middle" fill="#4CAF50">初始化对象字段 -> 成对象</text></svg>
