<?xml version="1.0" encoding="UTF-8"?>
<svg xmlns="http://www.w3.org/2000/svg" viewBox="0 0 800 500" font-family="system-ui, -apple-system, Segoe UI, Roboto, sans-serif">
<defs>
  <marker id="arrow" markerWidth="10" markerHeight="10" refX="9" refY="3" orient="auto" markerUnits="strokeWidth"><path d="M0,0 L0,6 L9,3 z" fill="#37474F"/></marker>
  <marker id="arrowR" markerWidth="10" markerHeight="10" refX="9" refY="3" orient="auto" markerUnits="strokeWidth"><path d="M0,0 L0,6 L9,3 z" fill="#f44336"/></marker>
  <marker id="arrowG" markerWidth="10" markerHeight="10" refX="9" refY="3" orient="auto" markerUnits="strokeWidth"><path d="M0,0 L0,6 L9,3 z" fill="#4CAF50"/></marker>
  <marker id="arrowB" markerWidth="10" markerHeight="10" refX="9" refY="3" orient="auto" markerUnits="strokeWidth"><path d="M0,0 L0,6 L9,3 z" fill="#2196F3"/></marker>
</defs>
<text x="400" y="38" text-anchor="middle" font-size="22" font-weight="700" fill="#1a202c">类加载机制生命周期</text>
<line x1="40" y1="56" x2="760" y2="56" stroke="#607D8B" stroke-width="1" stroke-dasharray="4,3" opacity="0.4"/>
<rect x="40" y="150" width="132" height="200" rx="6" ry="6" fill="#2196F318" stroke="#2196F3" stroke-width="2" opacity="1.0"/><rect x="40" y="150" width="132" height="34" rx="6" ry="6" fill="#2196F3" stroke="#2196F3" stroke-width="1.5" opacity="1.0"/><text x="106.0" y="172" text-anchor="middle" font-size="15" font-weight="700" fill="#FFFFFF">加载</text><text x="106.0" y="205" text-anchor="middle" font-size="11" font-weight="600" fill="#2196F3" font-style="italic">Loading</text><text x="106.0" y="245" text-anchor="middle" font-size="11" font-weight="normal" fill="#37474F">通过类加载器读取字节码</text><text x="106.0" y="267" text-anchor="middle" font-size="11" font-weight="normal" fill="#37474F">生成 Class 对象</text><text x="106.0" y="315" text-anchor="middle" font-size="10" font-weight="normal" fill="#607D8B" font-style="italic">Step 1</text><line x1="172" y1="250.0" x2="184" y2="250.0" stroke="#607D8B" stroke-width="2" marker-end="url(#arrow)"/><rect x="184" y="150" width="132" height="200" rx="6" ry="6" fill="#FF980018" stroke="#FF9800" stroke-width="2" opacity="1.0"/><rect x="184" y="150" width="132" height="34" rx="6" ry="6" fill="#FF9800" stroke="#FF9800" stroke-width="1.5" opacity="1.0"/><text x="250.0" y="172" text-anchor="middle" font-size="15" font-weight="700" fill="#FFFFFF">验证</text><text x="250.0" y="205" text-anchor="middle" font-size="11" font-weight="600" fill="#FF9800" font-style="italic">Verification</text><text x="250.0" y="245" text-anchor="middle" font-size="11" font-weight="normal" fill="#37474F">文件格式/元数据/</text><text x="250.0" y="267" text-anchor="middle" font-size="11" font-weight="normal" fill="#37474F">字节码/符号引用</text><text x="250.0" y="315" text-anchor="middle" font-size="10" font-weight="normal" fill="#607D8B" font-style="italic">Step 2</text><line x1="316" y1="250.0" x2="328" y2="250.0" stroke="#607D8B" stroke-width="2" marker-end="url(#arrow)"/><rect x="328" y="150" width="132" height="200" rx="6" ry="6" fill="#9C27B018" stroke="#9C27B0" stroke-width="2" opacity="1.0"/><rect x="328" y="150" width="132" height="34" rx="6" ry="6" fill="#9C27B0" stroke="#9C27B0" stroke-width="1.5" opacity="1.0"/><text x="394.0" y="172" text-anchor="middle" font-size="15" font-weight="700" fill="#FFFFFF">准备</text><text x="394.0" y="205" text-anchor="middle" font-size="11" font-weight="600" fill="#9C27B0" font-style="italic">Preparation</text><text x="394.0" y="245" text-anchor="middle" font-size="11" font-weight="normal" fill="#37474F">static 变量分配内存</text><text x="394.0" y="267" text-anchor="middle" font-size="11" font-weight="normal" fill="#37474F">设默认零值</text><text x="394.0" y="315" text-anchor="middle" font-size="10" font-weight="normal" fill="#607D8B" font-style="italic">Step 3</text><line x1="460" y1="250.0" x2="472" y2="250.0" stroke="#607D8B" stroke-width="2" marker-end="url(#arrow)"/><rect x="472" y="150" width="132" height="200" rx="6" ry="6" fill="#00968818" stroke="#009688" stroke-width="2" opacity="1.0"/><rect x="472" y="150" width="132" height="34" rx="6" ry="6" fill="#009688" stroke="#009688" stroke-width="1.5" opacity="1.0"/><text x="538.0" y="172" text-anchor="middle" font-size="15" font-weight="700" fill="#FFFFFF">解析</text><text x="538.0" y="205" text-anchor="middle" font-size="11" font-weight="600" fill="#009688" font-style="italic">Resolution</text><text x="538.0" y="245" text-anchor="middle" font-size="11" font-weight="normal" fill="#37474F">常量池符号引用</text><text x="538.0" y="267" text-anchor="middle" font-size="11" font-weight="normal" fill="#37474F">→ 直接引用</text><text x="538.0" y="315" text-anchor="middle" font-size="10" font-weight="normal" fill="#607D8B" font-style="italic">Step 4</text><line x1="604" y1="250.0" x2="616" y2="250.0" stroke="#607D8B" stroke-width="2" marker-end="url(#arrow)"/><rect x="616" y="150" width="132" height="200" rx="6" ry="6" fill="#4CAF5018" stroke="#4CAF50" stroke-width="2" opacity="1.0"/><rect x="616" y="150" width="132" height="34" rx="6" ry="6" fill="#4CAF50" stroke="#4CAF50" stroke-width="1.5" opacity="1.0"/><text x="682.0" y="172" text-anchor="middle" font-size="15" font-weight="700" fill="#FFFFFF">初始化</text><text x="682.0" y="205" text-anchor="middle" font-size="11" font-weight="600" fill="#4CAF50" font-style="italic">Initialization</text><text x="682.0" y="245" text-anchor="middle" font-size="11" font-weight="normal" fill="#37474F">执行 &lt;clinit&gt;</text><text x="682.0" y="267" text-anchor="middle" font-size="11" font-weight="normal" fill="#37474F">static 变量赋值</text><text x="682.0" y="315" text-anchor="middle" font-size="10" font-weight="normal" fill="#607D8B" font-style="italic">Step 5</text><rect x="182" y="130" width="396" height="24" rx="4" ry="4" fill="#F3E5F5" stroke="#9C27B0" stroke-width="1.5" opacity="1.0" stroke-dasharray="5,3"/><text x="380" y="146" text-anchor="middle" font-size="12" font-weight="700" fill="#9C27B0">连接阶段 Linking</text><rect x="40" y="380" width="720" height="50" rx="6" ry="6" fill="#ECEFF1" stroke="#607D8B" stroke-width="1.5" opacity="1.0"/><text x="400" y="400" text-anchor="middle" font-size="13" font-weight="700" fill="#37474F">使用 (Using) 与 卸载 (Unloading) 阶段</text><text x="400" y="420" text-anchor="middle" font-size="12" font-weight="normal" fill="#607D8B" font-style="italic">配合双亲委派模型保证核心类安全与唯一性</text></svg>
