<svg xmlns="http://www.w3.org/2000/svg" viewBox="0 0 800 500" font-family="-apple-system, BlinkMacSystemFont, 'PingFang SC', 'Microsoft YaHei', sans-serif">
<rect width="800" height="500" fill="#FAFBFC"/>
<rect x="0" y="0" width="800" height="64" fill="#2196F3"/>
<rect x="0" y="0" width="8" height="64" fill="#FF9800"/>
<text x="28" y="40" font-size="22" font-weight="700" fill="#FFFFFF" text-rendering="geometricPrecision">【Java 后端架构师】多租户架构与数据隔离策略</text>
<text x="28" y="552" font-size="0"></text>
<text x="28" y="92" font-size="14" fill="#37474F" font-style="italic">核心：多租户隔离有三种物理形态：独立数据库（隔离最强成本最高）、共享数据库独立 Schema（中间态）、共享数据库共享 Sch…</text>
<!-- BODY_TOP=110 -->
<rect x="40" y="114" width="229" height="44" rx="8" fill="#2196F3"/>
<text x="155" y="142" font-size="16" fill="#FFFFFF" text-anchor="middle" font-weight="700">独立数据库
DB-per-Tenant</text>
<rect x="285" y="114" width="229" height="44" rx="8" fill="#FF9800"/>
<text x="400" y="142" font-size="16" fill="#FFFFFF" text-anchor="middle" font-weight="700">独立 Schema
Schema-per-Tenant</text>
<rect x="531" y="114" width="229" height="44" rx="8" fill="#4CAF50"/>
<text x="645" y="142" font-size="16" fill="#FFFFFF" text-anchor="middle" font-weight="700">共享 Schema
Shared-DB + tenant_id</text>
<rect x="40" y="174" width="229" height="60" fill="#FFFFFF" stroke="#E0E0E0" stroke-width="1"/>
<text x="155" y="204" font-size="12" fill="#37474F" text-anchor="middle" dominant-baseline="middle">隔离最强</text>
<rect x="285" y="174" width="229" height="60" fill="#FFFFFF" stroke="#E0E0E0" stroke-width="1"/>
<text x="400" y="204" font-size="12" fill="#37474F" text-anchor="middle" dominant-baseline="middle">中间态</text>
<rect x="531" y="174" width="229" height="60" fill="#FFFFFF" stroke="#E0E0E0" stroke-width="1"/>
<text x="645" y="204" font-size="12" fill="#37474F" text-anchor="middle" dominant-baseline="middle">成本最低</text>
<rect x="40" y="234" width="229" height="60" fill="#F5F5F5" stroke="#E0E0E0" stroke-width="1"/>
<text x="155" y="264" font-size="12" fill="#37474F" text-anchor="middle" dominant-baseline="middle">成本最高</text>
<rect x="285" y="234" width="229" height="60" fill="#F5F5F5" stroke="#E0E0E0" stroke-width="1"/>
<text x="400" y="264" font-size="12" fill="#37474F" text-anchor="middle" dominant-baseline="middle">同 DB 不同 Schema</text>
<rect x="531" y="234" width="229" height="60" fill="#F5F5F5" stroke="#E0E0E0" stroke-width="1"/>
<text x="645" y="264" font-size="12" fill="#37474F" text-anchor="middle" dominant-baseline="middle">WHERE tenant_id=?</text>
<rect x="40" y="294" width="229" height="60" fill="#FFFFFF" stroke="#E0E0E0" stroke-width="1"/>
<text x="155" y="324" font-size="12" fill="#37474F" text-anchor="middle" dominant-baseline="middle">大客户/金融</text>
<rect x="285" y="294" width="229" height="60" fill="#FFFFFF" stroke="#E0E0E0" stroke-width="1"/>
<text x="400" y="324" font-size="12" fill="#37474F" text-anchor="middle" dominant-baseline="middle">中等隔离</text>
<rect x="531" y="294" width="229" height="60" fill="#FFFFFF" stroke="#E0E0E0" stroke-width="1"/>
<text x="645" y="324" font-size="12" fill="#37474F" text-anchor="middle" dominant-baseline="middle">逻辑隔离</text>
<rect x="40" y="354" width="229" height="60" fill="#F5F5F5" stroke="#E0E0E0" stroke-width="1"/>
<text x="155" y="384" font-size="12" fill="#37474F" text-anchor="middle" dominant-baseline="middle">独立 DB 实例</text>
<rect x="285" y="354" width="229" height="60" fill="#F5F5F5" stroke="#E0E0E0" stroke-width="1"/>
<text x="400" y="384" font-size="12" fill="#37474F" text-anchor="middle" dominant-baseline="middle">中等成本</text>
<rect x="531" y="354" width="229" height="60" fill="#F5F5F5" stroke="#E0E0E0" stroke-width="1"/>
<text x="645" y="384" font-size="12" fill="#37474F" text-anchor="middle" dominant-baseline="middle">小客户</text>
<rect x="40" y="414" width="229" height="60" fill="#FFFFFF" stroke="#E0E0E0" stroke-width="1"/>
<text x="155" y="444" font-size="12" fill="#37474F" text-anchor="middle" dominant-baseline="middle">合规友好</text>
<rect x="285" y="414" width="229" height="60" fill="#FFFFFF" stroke="#E0E0E0" stroke-width="1"/>
<text x="400" y="444" font-size="12" fill="#37474F" text-anchor="middle" dominant-baseline="middle">中型客户</text>
<rect x="531" y="414" width="229" height="60" fill="#FFFFFF" stroke="#E0E0E0" stroke-width="1"/>
<text x="645" y="444" font-size="12" fill="#37474F" text-anchor="middle" dominant-baseline="middle">邻居噪音风险</text>
</svg>