<svg xmlns="http://www.w3.org/2000/svg" viewBox="0 0 800 500"><rect width="800" height="500" fill="#fafafa"/><defs><marker id="arr" markerWidth="10" markerHeight="10" refX="8" refY="5" orient="auto"><path d="M0,0 L8,5 L0,10 Z" fill="#607D8B"/></marker></defs><text x="400" y="35" font-family="system-ui,-apple-system,sans-serif" font-size="18" font-weight="700" text-anchor="middle" fill="#333">Future vs CompletableFuture 核心能力对比</text><rect x="40" y="60" width="340" height="390" rx="8" fill="#FFEBEE"/><rect x="420" y="60" width="340" height="390" rx="8" fill="#E3F2FD"/><text x="210" y="85" font-family="system-ui,-apple-system,sans-serif" font-size="14" font-weight="700" text-anchor="middle" fill="#f44336">Future 痛点 (同步阻塞)</text><text x="590" y="85" font-family="system-ui,-apple-system,sans-serif" font-size="14" font-weight="700" text-anchor="middle" fill="#2196F3">CompletableFuture 优势 (异步编排)</text><ellipse cx="210" cy="125" rx="70" ry="20" fill="#ECEFF1" stroke="#607D8B"/><text x="210" y="129" font-family="system-ui,-apple-system,sans-serif" font-size="12" text-anchor="middle" fill="#333">task.submit()</text><line x1="210" y1="145" x2="210" y2="175" stroke="#607D8B" marker-end="url(#arr)"/><rect x="130" y="175" width="160" height="40" rx="8" fill="#ECEFF1" stroke="#607D8B"/><text x="210" y="192" font-family="system-ui,-apple-system,sans-serif" font-size="12" text-anchor="middle" fill="#333">future.get() 阻塞等待</text><text x="210" y="208" font-family="system-ui,-apple-system,sans-serif" font-size="12" text-anchor="middle" fill="#f44336">等待中...</text><line x1="210" y1="215" x2="210" y2="245" stroke="#607D8B" marker-end="url(#arr)"/><rect x="130" y="245" width="160" height="40" rx="8" fill="#ECEFF1" stroke="#607D8B"/><text x="210" y="269" font-family="system-ui,-apple-system,sans-serif" font-size="12" text-anchor="middle" fill="#333">获取执行结果</text><line x1="210" y1="285" x2="210" y2="315" stroke="#607D8B" marker-end="url(#arr)"/><rect x="130" y="315" width="160" height="40" rx="8" fill="#ECEFF1" stroke="#607D8B"/><text x="210" y="339" font-family="system-ui,-apple-system,sans-serif" font-size="12" text-anchor="middle" fill="#333">手动处理结果与异常</text><rect x="60" y="375" width="300" height="50" rx="8" fill="#FFF3E0" stroke="#FF9800"/><text x="210" y="394" font-family="system-ui,-apple-system,sans-serif" font-size="12" text-anchor="middle" fill="#333">致命缺陷：</text><text x="210" y="412" font-family="system-ui,-apple-system,sans-serif" font-size="12" text-anchor="middle" fill="#FF9800">无法链式调用/组合多个任务</text><ellipse cx="590" cy="125" rx="70" ry="20" fill="#E3F2FD" stroke="#2196F3"/><text x="590" y="129" font-family="system-ui,-apple-system,sans-serif" font-size="12" text-anchor="middle" fill="#333">supplyAsync()</text><line x1="590" y1="145" x2="590" y2="175" stroke="#607D8B" marker-end="url(#arr)"/><rect x="510" y="175" width="160" height="40" rx="8" fill="#E3F2FD" stroke="#2196F3"/><text x="590" y="192" font-family="system-ui,-apple-system,sans-serif" font-size="12" text-anchor="middle" fill="#333">thenApply()</text><text x="590" y="208" font-family="system-ui,-apple-system,sans-serif" font-size="12" text-anchor="middle" fill="#2196F3">异步回调转换</text><line x1="590" y1="215" x2="590" y2="245" stroke="#607D8B" marker-end="url(#arr)"/><rect x="510" y="245" width="160" height="40" rx="8" fill="#E3F2FD" stroke="#2196F3"/><text x="590" y="262" font-family="system-ui,-apple-system,sans-serif" font-size="12" text-anchor="middle" fill="#333">thenCombine() / allOf()</text><text x="590" y="278" font-family="system-ui,-apple-system,sans-serif" font-size="12" text-anchor="middle" fill="#2196F3">多任务组合编排</text><line x1="590" y1="285" x2="590" y2="315" stroke="#607D8B" marker-end="url(#arr)"/><rect x="510" y="315" width="160" height="40" rx="8" fill="#E3F2FD" stroke="#2196F3"/><text x="590" y="339" font-family="system-ui,-apple-system,sans-serif" font-size="12" text-anchor="middle" fill="#333">handle() / exceptionally()</text><rect x="440" y="375" width="300" height="50" rx="8" fill="#E8F5E9" stroke="#4CAF50"/><text x="590" y="394" font-family="system-ui,-apple-system,sans-serif" font-size="12" text-anchor="middle" fill="#333">核心优势：</text><text x="590" y="412" font-family="system-ui,-apple-system,sans-serif" font-size="12" text-anchor="middle" fill="#4CAF50">非阻塞流式API / 解决回调地狱</text><rect x="40" y="465" width="60" height="15" rx="4" fill="#f44336"/><text x="110" y="477" font-family="system-ui,-apple-system,sans-serif" font-size="12" text-anchor="start" fill="#333">阻塞/风险</text><rect x="200" y="465" width="60" height="15" rx="4" fill="#4CAF50"/><text x="270" y="477" font-family="system-ui,-apple-system,sans-serif" font-size="12" text-anchor="start" fill="#333">非阻塞/优势</text><rect x="360" y="465" width="60" height="15" rx="4" fill="#2196F3"/><text x="430" y="477" font-family="system-ui,-apple-system,sans-serif" font-size="12" text-anchor="start" fill="#333">流程/主路径</text><rect x="530" y="465" width="60" height="15" rx="4" fill="#FF9800"/><text x="600" y="477" font-family="system-ui,-apple-system,sans-serif" font-size="12" text-anchor="start" fill="#333">注意/要点</text></svg>
