<svg xmlns="http://www.w3.org/2000/svg" viewBox="0 0 800 500" font-family="-apple-system, BlinkMacSystemFont, 'PingFang SC', 'Microsoft YaHei', sans-serif">
<rect width="800" height="500" fill="#FAFBFC"/>
<rect x="0" y="0" width="800" height="64" fill="#2196F3"/>
<rect x="0" y="0" width="8" height="64" fill="#FF9800"/>
<text x="28" y="40" font-size="22" font-weight="700" fill="#FFFFFF" text-rendering="geometricPrecision">【Java 后端架构师】Pod 重启、探针与服务雪崩防控</text>
<text x="28" y="552" font-size="0"></text>
<text x="28" y="92" font-size="14" fill="#37474F" font-style="italic">核心：K8s 三探针（startup/liveness/readiness）+ 重启机制是服务自愈的核心，但配置不当会引发雪崩…</text>
<!-- BODY_TOP=110 -->
<rect x="40" y="114" width="168" height="44" rx="8" fill="#2196F3"/>
<text x="124" y="142" font-size="16" fill="#FFFFFF" text-anchor="middle" font-weight="700">计数器
Counter</text>
<rect x="224" y="114" width="168" height="44" rx="8" fill="#FF9800"/>
<text x="308" y="142" font-size="16" fill="#FFFFFF" text-anchor="middle" font-weight="700">滑动窗口
Sliding Window</text>
<rect x="408" y="114" width="168" height="44" rx="8" fill="#4CAF50"/>
<text x="492" y="142" font-size="16" fill="#FFFFFF" text-anchor="middle" font-weight="700">漏桶
Leaky Bucket</text>
<rect x="592" y="114" width="168" height="44" rx="8" fill="#9C27B0"/>
<text x="676" y="142" font-size="16" fill="#FFFFFF" text-anchor="middle" font-weight="700">令牌桶
Token Bucket</text>
<rect x="40" y="174" width="168" height="75" fill="#FFFFFF" stroke="#E0E0E0" stroke-width="1"/>
<text x="124" y="212" font-size="12" fill="#37474F" text-anchor="middle" dominant-baseline="middle">固定窗口</text>
<rect x="224" y="174" width="168" height="75" fill="#FFFFFF" stroke="#E0E0E0" stroke-width="1"/>
<text x="308" y="212" font-size="12" fill="#37474F" text-anchor="middle" dominant-baseline="middle">细分子窗口</text>
<rect x="408" y="174" width="168" height="75" fill="#FFFFFF" stroke="#E0E0E0" stroke-width="1"/>
<text x="492" y="212" font-size="12" fill="#37474F" text-anchor="middle" dominant-baseline="middle">匀速流出</text>
<rect x="592" y="174" width="168" height="75" fill="#FFFFFF" stroke="#E0E0E0" stroke-width="1"/>
<text x="676" y="212" font-size="12" fill="#37474F" text-anchor="middle" dominant-baseline="middle">匀速发令牌</text>
<rect x="40" y="249" width="168" height="75" fill="#F5F5F5" stroke="#E0E0E0" stroke-width="1"/>
<text x="124" y="286" font-size="12" fill="#37474F" text-anchor="middle" dominant-baseline="middle">简单</text>
<rect x="224" y="249" width="168" height="75" fill="#F5F5F5" stroke="#E0E0E0" stroke-width="1"/>
<text x="308" y="286" font-size="12" fill="#37474F" text-anchor="middle" dominant-baseline="middle">解决临界问题</text>
<rect x="408" y="249" width="168" height="75" fill="#F5F5F5" stroke="#E0E0E0" stroke-width="1"/>
<text x="492" y="286" font-size="12" fill="#37474F" text-anchor="middle" dominant-baseline="middle">恒定速率</text>
<rect x="592" y="249" width="168" height="75" fill="#F5F5F5" stroke="#E0E0E0" stroke-width="1"/>
<text x="676" y="286" font-size="12" fill="#37474F" text-anchor="middle" dominant-baseline="middle">允许突发</text>
<rect x="40" y="324" width="168" height="75" fill="#FFFFFF" stroke="#E0E0E0" stroke-width="1"/>
<text x="124" y="362" font-size="12" fill="#37474F" text-anchor="middle" dominant-baseline="middle">临界点双倍流量</text>
<rect x="224" y="324" width="168" height="75" fill="#FFFFFF" stroke="#E0E0E0" stroke-width="1"/>
<text x="308" y="362" font-size="12" fill="#37474F" text-anchor="middle" dominant-baseline="middle">内存中等</text>
<rect x="408" y="324" width="168" height="75" fill="#FFFFFF" stroke="#E0E0E0" stroke-width="1"/>
<text x="492" y="362" font-size="12" fill="#37474F" text-anchor="middle" dominant-baseline="middle">突发流量堆积</text>
<rect x="592" y="324" width="168" height="75" fill="#FFFFFF" stroke="#E0E0E0" stroke-width="1"/>
<text x="676" y="362" font-size="12" fill="#37474F" text-anchor="middle" dominant-baseline="middle">Guava/Sentinel</text>
<rect x="40" y="399" width="168" height="75" fill="#F5F5F5" stroke="#E0E0E0" stroke-width="1"/>
<text x="124" y="436" font-size="12" fill="#37474F" text-anchor="middle" dominant-baseline="middle">粗糙</text>
<rect x="224" y="399" width="168" height="75" fill="#F5F5F5" stroke="#E0E0E0" stroke-width="1"/>
<text x="308" y="436" font-size="12" fill="#37474F" text-anchor="middle" dominant-baseline="middle">Sentinel 默认</text>
<rect x="408" y="399" width="168" height="75" fill="#F5F5F5" stroke="#E0E0E0" stroke-width="1"/>
<text x="492" y="436" font-size="12" fill="#37474F" text-anchor="middle" dominant-baseline="middle">保护下游</text>
<rect x="592" y="399" width="168" height="75" fill="#F5F5F5" stroke="#E0E0E0" stroke-width="1"/>
<text x="676" y="436" font-size="12" fill="#37474F" text-anchor="middle" dominant-baseline="middle">主流方案</text>
</svg>