<svg xmlns="http://www.w3.org/2000/svg" viewBox="0 0 800 500" font-family="-apple-system, BlinkMacSystemFont, 'PingFang SC', 'Microsoft YaHei', sans-serif">
<rect width="800" height="500" fill="#FAFBFC"/>
<rect x="0" y="0" width="800" height="64" fill="#2196F3"/>
<rect x="0" y="0" width="8" height="64" fill="#FF9800"/>
<text x="28" y="40" font-size="22" font-weight="700" fill="#FFFFFF" text-rendering="geometricPrecision">【Java 后端架构师】大规模定时任务分片与抢占</text>
<text x="28" y="552" font-size="0"></text>
<text x="28" y="92" font-size="14" fill="#37474F" font-style="italic">核心：大规模定时任务的核心是&quot;分片广播 + 抢占锁&quot;。分片广播（XXL-Job ShardingBroadcast）把任务按 …</text>
<!-- BODY_TOP=110 -->
<defs>
<marker id="arrow" viewBox="0 0 10 10" refX="9" refY="5" markerWidth="7" markerHeight="7" orient="auto-start-reverse">
  <path d="M0,0 L10,5 L0,10 z" fill="#455A64"/>
</marker>
<marker id="arrowG" viewBox="0 0 10 10" refX="9" refY="5" markerWidth="7" markerHeight="7" orient="auto-start-reverse">
  <path d="M0,0 L10,5 L0,10 z" fill="#4CAF50"/>
</marker>
</defs>
<rect x="310" y="120" width="180" height="50" rx="8" fill="#4CAF5022" stroke="#4CAF50" stroke-width="2"/>
<text x="400" y="137" font-size="13" fill="#263238" text-anchor="middle" dominant-baseline="middle" font-weight="600">应用层</text>
<text x="400" y="153" font-size="13" fill="#263238" text-anchor="middle" dominant-baseline="middle" font-weight="600">(写/读)</text>
<rect x="310" y="200" width="180" height="50" rx="8" fill="#2196F322" stroke="#2196F3" stroke-width="2"/>
<text x="400" y="203" font-size="12" fill="#263238" text-anchor="middle" dominant-baseline="middle" font-weight="600">分片路由层</text>
<text x="400" y="218" font-size="12" fill="#263238" text-anchor="middle" dominant-baseline="middle" font-weight="600">ShardingSphere</text>
<text x="400" y="232" font-size="12" fill="#263238" text-anchor="middle" dominant-baseline="middle" font-weight="600"> / TDDL / MyCa</text>
<text x="400" y="247" font-size="12" fill="#263238" text-anchor="middle" dominant-baseline="middle" font-weight="600">t</text>
<line x1="400" y1="170" x2="400" y2="200" stroke="#455A64" stroke-width="2" marker-end="url(#arrow)"/>
<rect x="60" y="270" width="680" height="100" rx="8" fill="#FFFFFF" stroke="#FF9800" stroke-width="1.5"/>
<text x="80" y="294" font-size="13" fill="#FF9800" font-weight="700">分片策略</text>
<rect x="80" y="308" width="160" height="50" rx="6" fill="#4CAF5022" stroke="#4CAF50" stroke-width="1.5"/>
<text x="160" y="328" font-size="12" fill="#4CAF50" text-anchor="middle" font-weight="700">Range 范围</text>
<text x="160" y="347" font-size="10" fill="#546E7A" text-anchor="middle">按 ID/时间区间</text>
<rect x="250" y="308" width="160" height="50" rx="6" fill="#2196F322" stroke="#2196F3" stroke-width="1.5"/>
<text x="330" y="328" font-size="12" fill="#2196F3" text-anchor="middle" font-weight="700">Hash 哈希</text>
<text x="330" y="347" font-size="10" fill="#546E7A" text-anchor="middle">hash(id) % N</text>
<rect x="420" y="308" width="160" height="50" rx="6" fill="#9C27B022" stroke="#9C27B0" stroke-width="1.5"/>
<text x="500" y="328" font-size="12" fill="#9C27B0" text-anchor="middle" font-weight="700">一致性哈希</text>
<text x="500" y="347" font-size="10" fill="#546E7A" text-anchor="middle">节点变动平滑</text>
<rect x="590" y="308" width="160" height="50" rx="6" fill="#FF980022" stroke="#FF9800" stroke-width="1.5"/>
<text x="670" y="328" font-size="12" fill="#FF9800" text-anchor="middle" font-weight="700">Tag 路由</text>
<text x="670" y="347" font-size="10" fill="#546E7A" text-anchor="middle">按业务标签</text>
<rect x="60" y="390" width="680" height="170" rx="8" fill="#FFFFFF" stroke="#f44336" stroke-width="1.5"/>
<text x="80" y="414" font-size="13" fill="#f44336" font-weight="700">引入的难题与对策</text>
<circle cx="86" cy="432" r="5" fill="#4CAF50"/>
<text x="100" y="436" font-size="12" fill="#37474F"><tspan fill="#4CAF50" font-weight="700">跨库 Join：</tspan>应用层聚合 / 冗余字段</text>
<circle cx="426" cy="432" r="5" fill="#2196F3"/>
<text x="440" y="436" font-size="12" fill="#37474F"><tspan fill="#2196F3" font-weight="700">分布式事务：</tspan>2PC / TCC / Saga / 本地消息表</text>
<circle cx="86" cy="470" r="5" fill="#FF9800"/>
<text x="100" y="474" font-size="12" fill="#37474F"><tspan fill="#FF9800" font-weight="700">全局唯一 ID：</tspan>Snowflake 雪花算法</text>
<circle cx="426" cy="470" r="5" fill="#9C27B0"/>
<text x="440" y="474" font-size="12" fill="#37474F"><tspan fill="#9C27B0" font-weight="700">分页深翻：</tspan>游标分页 / 二次查询</text>
<circle cx="86" cy="508" r="5" fill="#f44336"/>
<text x="100" y="512" font-size="12" fill="#37474F"><tspan fill="#f44336" font-weight="700">扩容迁移：</tspan>一致性哈希 / 双写灰度</text>
<circle cx="426" cy="508" r="5" fill="#607D8B"/>
<text x="440" y="512" font-size="12" fill="#37474F"><tspan fill="#607D8B" font-weight="700">聚合统计：</tspan>预计算 / T+1 离线</text>
</svg>