<svg xmlns="http://www.w3.org/2000/svg" viewBox="0 0 800 500" font-family="-apple-system, BlinkMacSystemFont, 'PingFang SC', 'Microsoft YaHei', sans-serif">
<rect width="800" height="500" fill="#FAFBFC"/>
<rect x="0" y="0" width="800" height="64" fill="#2196F3"/>
<rect x="0" y="0" width="8" height="64" fill="#FF9800"/>
<text x="28" y="40" font-size="22" font-weight="700" fill="#FFFFFF" text-rendering="geometricPrecision">请设计一个企业级智能客服 Agent 平台的完整架构,支持多租户和水平扩展.</text>
<text x="28" y="552" font-size="0"></text>
<text x="28" y="92" font-size="14" fill="#37474F" font-style="italic">核心：构建支持多企业租户、高并发、智能路由的企业级AI中台。</text>
<!-- BODY_TOP=110 -->
<defs>
<marker id="arrow" viewBox="0 0 10 10" refX="9" refY="5" markerWidth="7" markerHeight="7" orient="auto-start-reverse">
  <path d="M0,0 L10,5 L0,10 z" fill="#455A64"/>
</marker>
<marker id="arrowG" viewBox="0 0 10 10" refX="9" refY="5" markerWidth="7" markerHeight="7" orient="auto-start-reverse">
  <path d="M0,0 L10,5 L0,10 z" fill="#4CAF50"/>
</marker>
</defs>
<rect x="310" y="130" width="180" height="60" rx="8" fill="#2196F3" stroke="#FF9800" stroke-width="2"/>
<text x="400" y="152" font-size="14" fill="#FFFFFF" text-anchor="middle" dominant-baseline="middle" font-weight="600">LLM 大模型</text>
<text x="400" y="168" font-size="14" fill="#FFFFFF" text-anchor="middle" dominant-baseline="middle" font-weight="600">(推理核心)</text>
<rect x="50" y="240" width="180" height="60" rx="8" fill="#4CAF5022" stroke="#4CAF50" stroke-width="2"/>
<text x="140" y="256" font-size="12" fill="#263238" text-anchor="middle" dominant-baseline="middle" font-weight="600">规划 Planning</text>
<text x="140" y="270" font-size="12" fill="#263238" text-anchor="middle" dominant-baseline="middle" font-weight="600">拆解任务 / ReA</text>
<text x="140" y="284" font-size="12" fill="#263238" text-anchor="middle" dominant-baseline="middle" font-weight="600">ct</text>
<line x1="140" y1="240" x2="400" y2="190" stroke="#4CAF50" stroke-width="2" marker-end="url(#arrow)"/>
<rect x="280" y="240" width="180" height="60" rx="8" fill="#FF980022" stroke="#FF9800" stroke-width="2"/>
<text x="370" y="256" font-size="12" fill="#263238" text-anchor="middle" dominant-baseline="middle" font-weight="600">记忆 Memory</text>
<text x="370" y="270" font-size="12" fill="#263238" text-anchor="middle" dominant-baseline="middle" font-weight="600">短期对话 + 长</text>
<text x="370" y="284" font-size="12" fill="#263238" text-anchor="middle" dominant-baseline="middle" font-weight="600">期向量</text>
<line x1="370" y1="240" x2="400" y2="190" stroke="#FF9800" stroke-width="2" marker-end="url(#arrow)"/>
<rect x="510" y="240" width="180" height="60" rx="8" fill="#9C27B022" stroke="#9C27B0" stroke-width="2"/>
<text x="600" y="263" font-size="12" fill="#263238" text-anchor="middle" dominant-baseline="middle" font-weight="600">工具 Tools</text>
<text x="600" y="277" font-size="12" fill="#263238" text-anchor="middle" dominant-baseline="middle" font-weight="600">函数调用 API</text>
<line x1="600" y1="240" x2="400" y2="190" stroke="#9C27B0" stroke-width="2" marker-end="url(#arrow)"/>
<rect x="60" y="340" width="105" height="50" rx="8" fill="#4CAF5022" stroke="#4CAF50" stroke-width="2"/>
<text x="112" y="365" font-size="11" fill="#263238" text-anchor="middle" dominant-baseline="middle" font-weight="600">感知输入</text>
<rect x="175" y="340" width="105" height="50" rx="8" fill="#FF980022" stroke="#FF9800" stroke-width="2"/>
<text x="228" y="365" font-size="11" fill="#263238" text-anchor="middle" dominant-baseline="middle" font-weight="600">意图理解</text>
<line x1="165" y1="365" x2="175" y2="365" stroke="#607D8B" stroke-width="2" marker-end="url(#arrow)"/>
<rect x="290" y="340" width="105" height="50" rx="8" fill="#9C27B022" stroke="#9C27B0" stroke-width="2"/>
<text x="342" y="365" font-size="11" fill="#263238" text-anchor="middle" dominant-baseline="middle" font-weight="600">规划拆解</text>
<line x1="280" y1="365" x2="290" y2="365" stroke="#607D8B" stroke-width="2" marker-end="url(#arrow)"/>
<rect x="405" y="340" width="105" height="50" rx="8" fill="#f4433622" stroke="#f44336" stroke-width="2"/>
<text x="458" y="365" font-size="11" fill="#263238" text-anchor="middle" dominant-baseline="middle" font-weight="600">调用工具</text>
<line x1="395" y1="365" x2="405" y2="365" stroke="#607D8B" stroke-width="2" marker-end="url(#arrow)"/>
<rect x="520" y="340" width="105" height="50" rx="8" fill="#2196F322" stroke="#2196F3" stroke-width="2"/>
<text x="572" y="365" font-size="11" fill="#263238" text-anchor="middle" dominant-baseline="middle" font-weight="600">观察反馈</text>
<line x1="510" y1="365" x2="520" y2="365" stroke="#607D8B" stroke-width="2" marker-end="url(#arrow)"/>
<rect x="635" y="340" width="105" height="50" rx="8" fill="#607D8B22" stroke="#607D8B" stroke-width="2"/>
<text x="688" y="365" font-size="11" fill="#263238" text-anchor="middle" dominant-baseline="middle" font-weight="600">生成响应</text>
<line x1="625" y1="365" x2="635" y2="365" stroke="#607D8B" stroke-width="2" marker-end="url(#arrow)"/>
<rect x="60" y="420" width="680" height="120" rx="8" fill="#FFFFFF" stroke="#607D8B" stroke-width="1.5"/>
<text x="80" y="444" font-size="13" fill="#607D8B" font-weight="700">关键架构模式</text>
<rect x="80" y="460" width="160" height="60" rx="6" fill="#4CAF5022" stroke="#4CAF50" stroke-width="1.5"/>
<text x="160" y="485" font-size="13" fill="#4CAF50" text-anchor="middle" font-weight="700">ReAct</text>
<text x="160" y="505" font-size="11" fill="#546E7A" text-anchor="middle">思考-行动循环</text>
<rect x="250" y="460" width="160" height="60" rx="6" fill="#2196F322" stroke="#2196F3" stroke-width="1.5"/>
<text x="330" y="485" font-size="13" fill="#2196F3" text-anchor="middle" font-weight="700">Plan-Execute</text>
<text x="330" y="505" font-size="11" fill="#546E7A" text-anchor="middle">先规划后执行</text>
<rect x="420" y="460" width="160" height="60" rx="6" fill="#FF980022" stroke="#FF9800" stroke-width="1.5"/>
<text x="500" y="485" font-size="13" fill="#FF9800" text-anchor="middle" font-weight="700">Multi-Agent</text>
<text x="500" y="505" font-size="11" fill="#546E7A" text-anchor="middle">协作分工</text>
<rect x="590" y="460" width="160" height="60" rx="6" fill="#9C27B022" stroke="#9C27B0" stroke-width="1.5"/>
<text x="670" y="485" font-size="13" fill="#9C27B0" text-anchor="middle" font-weight="700">Reflection</text>
<text x="670" y="505" font-size="11" fill="#546E7A" text-anchor="middle">自我反思修正</text>
</svg>