<svg xmlns="http://www.w3.org/2000/svg" viewBox="0 0 800 500" font-family="-apple-system, BlinkMacSystemFont, 'PingFang SC', 'Microsoft YaHei', sans-serif">
<rect width="800" height="500" fill="#FAFBFC"/>
<rect x="0" y="0" width="800" height="64" fill="#2196F3"/>
<rect x="0" y="0" width="8" height="64" fill="#FF9800"/>
<text x="28" y="40" font-size="22" font-weight="700" fill="#FFFFFF" text-rendering="geometricPrecision">MD5哈希算法的原理和安全性问题是什么？</text>
<text x="28" y="552" font-size="0"></text>
<text x="28" y="92" font-size="14" fill="#37474F" font-style="italic">核心：将任意数据映射为固定位数指纹的单向散列算法。</text>
<!-- BODY_TOP=110 -->
<defs>
<marker id="arrow" viewBox="0 0 10 10" refX="9" refY="5" markerWidth="7" markerHeight="7" orient="auto-start-reverse">
  <path d="M0,0 L10,5 L0,10 z" fill="#455A64"/>
</marker>
<marker id="arrowG" viewBox="0 0 10 10" refX="9" refY="5" markerWidth="7" markerHeight="7" orient="auto-start-reverse">
  <path d="M0,0 L10,5 L0,10 z" fill="#4CAF50"/>
</marker>
</defs>
<rect x="240" y="116" width="320" height="56" rx="8" fill="#FFFFFF" stroke="#2196F3" stroke-width="2"/>
<text x="400" y="135" font-size="15" fill="#263238" text-anchor="middle" dominant-baseline="middle" font-weight="600">输出固定128位，不可</text>
<text x="400" y="153" font-size="15" fill="#263238" text-anchor="middle" dominant-baseline="middle" font-weight="600">逆</text>
<rect x="240" y="208" width="320" height="56" rx="8" fill="#FFFFFF" stroke="#4CAF50" stroke-width="2"/>
<text x="400" y="227" font-size="15" fill="#263238" text-anchor="middle" dominant-baseline="middle" font-weight="600">雪崩效应，输入微变输</text>
<text x="400" y="245" font-size="15" fill="#263238" text-anchor="middle" dominant-baseline="middle" font-weight="600">出剧变</text>
<rect x="240" y="300" width="320" height="56" rx="8" fill="#FFFFFF" stroke="#FF9800" stroke-width="2"/>
<text x="400" y="319" font-size="15" fill="#263238" text-anchor="middle" dominant-baseline="middle" font-weight="600">存在碰撞漏洞，不适合</text>
<text x="400" y="337" font-size="15" fill="#263238" text-anchor="middle" dominant-baseline="middle" font-weight="600">高安全场景</text>
<rect x="240" y="392" width="320" height="56" rx="8" fill="#FFFFFF" stroke="#9C27B0" stroke-width="2"/>
<text x="400" y="411" font-size="15" fill="#263238" text-anchor="middle" dominant-baseline="middle" font-weight="600">常用于文件校验而非加</text>
<text x="400" y="429" font-size="15" fill="#263238" text-anchor="middle" dominant-baseline="middle" font-weight="600">密</text>
<line x1="400" y1="172" x2="400" y2="208" stroke="#455A64" stroke-width="2" marker-end="url(#arrow)"/>
<line x1="400" y1="264" x2="400" y2="300" stroke="#455A64" stroke-width="2" marker-end="url(#arrow)"/>
<line x1="400" y1="356" x2="400" y2="392" stroke="#455A64" stroke-width="2" marker-end="url(#arrow)"/>
</svg>