<?xml version="1.0" encoding="UTF-8"?>
<svg xmlns="http://www.w3.org/2000/svg" viewBox="0 0 800 500" font-family="system-ui, -apple-system, Segoe UI, Roboto, sans-serif">
<defs>
  <marker id="arrow" markerWidth="10" markerHeight="10" refX="9" refY="3" orient="auto" markerUnits="strokeWidth"><path d="M0,0 L0,6 L9,3 z" fill="#37474F"/></marker>
  <marker id="arrowR" markerWidth="10" markerHeight="10" refX="9" refY="3" orient="auto" markerUnits="strokeWidth"><path d="M0,0 L0,6 L9,3 z" fill="#f44336"/></marker>
  <marker id="arrowG" markerWidth="10" markerHeight="10" refX="9" refY="3" orient="auto" markerUnits="strokeWidth"><path d="M0,0 L0,6 L9,3 z" fill="#4CAF50"/></marker>
  <marker id="arrowB" markerWidth="10" markerHeight="10" refX="9" refY="3" orient="auto" markerUnits="strokeWidth"><path d="M0,0 L0,6 L9,3 z" fill="#2196F3"/></marker>
</defs>
<text x="400" y="38" text-anchor="middle" font-size="22" font-weight="700" fill="#1a202c">分代收集 VS 分区收集</text>
<line x1="40" y1="56" x2="760" y2="56" stroke="#607D8B" stroke-width="1" stroke-dasharray="4,3" opacity="0.4"/>
<rect x="40" y="100" width="350" height="350" rx="6" ry="6" fill="#E8F5E9" stroke="#4CAF50" stroke-width="2" opacity="1.0"/><rect x="40" y="100" width="350" height="36" rx="6" ry="6" fill="#4CAF50" stroke="#4CAF50" stroke-width="1.5" opacity="1.0"/><text x="215" y="124" text-anchor="middle" font-size="14" font-weight="700" fill="#FFFFFF">分代收集 (Generational)</text><text x="60" y="165" text-anchor="start" font-size="12" font-weight="700" fill="#1B5E20">维度：对象生命周期 (时间)</text><rect x="60" y="185" width="310" height="70" rx="6" ry="6" fill="#C8E6C9" stroke="#4CAF50" stroke-width="1.5" opacity="1.0"/><text x="215" y="205" text-anchor="middle" font-size="12" font-weight="700" fill="#1B5E20">新生代 (Eden + S0 + S1)</text><text x="215" y="225" text-anchor="middle" font-size="11" font-weight="normal" fill="#388E3C" font-style="italic">复制算法 / Minor GC</text><text x="215" y="245" text-anchor="middle" font-size="11" font-weight="normal" fill="#1B5E20">短命对象</text><rect x="60" y="270" width="310" height="70" rx="6" ry="6" fill="#FFCDD2" stroke="#f44336" stroke-width="1.5" opacity="1.0"/><text x="215" y="290" text-anchor="middle" font-size="12" font-weight="700" fill="#B71C1C">老年代 (Old)</text><text x="215" y="310" text-anchor="middle" font-size="11" font-weight="normal" fill="#D84315" font-style="italic">标记-整理 / Major GC</text><text x="215" y="330" text-anchor="middle" font-size="11" font-weight="normal" fill="#B71C1C">长寿对象</text><text x="60" y="365" text-anchor="start" font-size="11" font-weight="600" fill="#9C27B0">代表：CMS / Parallel Old</text><text x="60" y="390" text-anchor="start" font-size="11" font-weight="normal" fill="#607D8B" font-style="italic">特点：堆物理分两块</text><text x="60" y="415" text-anchor="start" font-size="11" font-weight="normal" fill="#607D8B" font-style="italic">      回收粒度=整个代</text><text x="60" y="440" text-anchor="start" font-size="11" font-weight="600" fill="#f44336">      停顿时间不可控</text><rect x="410" y="100" width="350" height="350" rx="6" ry="6" fill="#FFF3E0" stroke="#FF9800" stroke-width="2" opacity="1.0"/><rect x="410" y="100" width="350" height="36" rx="6" ry="6" fill="#FF9800" stroke="#FF9800" stroke-width="1.5" opacity="1.0"/><text x="585" y="124" text-anchor="middle" font-size="14" font-weight="700" fill="#FFFFFF">分区收集 (Regional)</text><text x="430" y="165" text-anchor="start" font-size="12" font-weight="700" fill="#E65100">维度：堆空间 (物理)</text><rect x="440" y="190" width="47" height="37" rx="6" ry="6" fill="#C8E6C9" stroke="#4CAF50" stroke-width="1" opacity="1.0"/><text x="463.5" y="212.5" text-anchor="middle" font-size="10" font-weight="700" fill="#37474F">E</text><rect x="490" y="190" width="47" height="37" rx="6" ry="6" fill="#C8E6C9" stroke="#4CAF50" stroke-width="1" opacity="1.0"/><text x="513.5" y="212.5" text-anchor="middle" font-size="10" font-weight="700" fill="#37474F">E</text><rect x="540" y="190" width="47" height="37" rx="6" ry="6" fill="#FFCDD2" stroke="#f44336" stroke-width="1" opacity="1.0"/><text x="563.5" y="212.5" text-anchor="middle" font-size="10" font-weight="700" fill="#37474F">O</text><rect x="590" y="190" width="47" height="37" rx="6" ry="6" fill="#DCEDC8" stroke="#4CAF50" stroke-width="1" opacity="1.0"/><text x="613.5" y="212.5" text-anchor="middle" font-size="10" font-weight="700" fill="#37474F">S</text><rect x="640" y="190" width="47" height="37" rx="6" ry="6" fill="#FFCDD2" stroke="#f44336" stroke-width="1" opacity="1.0"/><text x="663.5" y="212.5" text-anchor="middle" font-size="10" font-weight="700" fill="#37474F">O</text><rect x="440" y="230" width="47" height="37" rx="6" ry="6" fill="#C8E6C9" stroke="#4CAF50" stroke-width="1" opacity="1.0"/><text x="463.5" y="252.5" text-anchor="middle" font-size="10" font-weight="700" fill="#37474F">E</text><rect x="490" y="230" width="47" height="37" rx="6" ry="6" fill="#FFCDD2" stroke="#f44336" stroke-width="1" opacity="1.0"/><text x="513.5" y="252.5" text-anchor="middle" font-size="10" font-weight="700" fill="#37474F">O</text><rect x="540" y="230" width="47" height="37" rx="6" ry="6" fill="#FFCDD2" stroke="#f44336" stroke-width="1" opacity="1.0"/><text x="563.5" y="252.5" text-anchor="middle" font-size="10" font-weight="700" fill="#37474F">O</text><rect x="590" y="230" width="47" height="37" rx="6" ry="6" fill="#FFE0B2" stroke="#FF9800" stroke-width="1" opacity="1.0"/><text x="613.5" y="252.5" text-anchor="middle" font-size="10" font-weight="700" fill="#37474F">H</text><rect x="640" y="230" width="47" height="37" rx="6" ry="6" fill="#C8E6C9" stroke="#4CAF50" stroke-width="1" opacity="1.0"/><text x="663.5" y="252.5" text-anchor="middle" font-size="10" font-weight="700" fill="#37474F">E</text><rect x="440" y="270" width="47" height="37" rx="6" ry="6" fill="#FFCDD2" stroke="#f44336" stroke-width="1" opacity="1.0"/><text x="463.5" y="292.5" text-anchor="middle" font-size="10" font-weight="700" fill="#37474F">O</text><rect x="490" y="270" width="47" height="37" rx="6" ry="6" fill="#C8E6C9" stroke="#4CAF50" stroke-width="1" opacity="1.0"/><text x="513.5" y="292.5" text-anchor="middle" font-size="10" font-weight="700" fill="#37474F">E</text><rect x="540" y="270" width="47" height="37" rx="6" ry="6" fill="#DCEDC8" stroke="#4CAF50" stroke-width="1" opacity="1.0"/><text x="563.5" y="292.5" text-anchor="middle" font-size="10" font-weight="700" fill="#37474F">S</text><rect x="590" y="270" width="47" height="37" rx="6" ry="6" fill="#FFCDD2" stroke="#f44336" stroke-width="1" opacity="1.0"/><text x="613.5" y="292.5" text-anchor="middle" font-size="10" font-weight="700" fill="#37474F">O</text><rect x="640" y="270" width="47" height="37" rx="6" ry="6" fill="#C8E6C9" stroke="#4CAF50" stroke-width="1" opacity="1.0"/><text x="663.5" y="292.5" text-anchor="middle" font-size="10" font-weight="700" fill="#37474F">E</text><rect x="440" y="310" width="47" height="37" rx="6" ry="6" fill="#FFE0B2" stroke="#FF9800" stroke-width="1" opacity="1.0"/><text x="463.5" y="332.5" text-anchor="middle" font-size="10" font-weight="700" fill="#37474F">H</text><rect x="490" y="310" width="47" height="37" rx="6" ry="6" fill="#FFCDD2" stroke="#f44336" stroke-width="1" opacity="1.0"/><text x="513.5" y="332.5" text-anchor="middle" font-size="10" font-weight="700" fill="#37474F">O</text><rect x="540" y="310" width="47" height="37" rx="6" ry="6" fill="#C8E6C9" stroke="#4CAF50" stroke-width="1" opacity="1.0"/><text x="563.5" y="332.5" text-anchor="middle" font-size="10" font-weight="700" fill="#37474F">E</text><rect x="590" y="310" width="47" height="37" rx="6" ry="6" fill="#FFCDD2" stroke="#f44336" stroke-width="1" opacity="1.0"/><text x="613.5" y="332.5" text-anchor="middle" font-size="10" font-weight="700" fill="#37474F">O</text><rect x="640" y="310" width="47" height="37" rx="6" ry="6" fill="#ECEFF1" stroke="#607D8B" stroke-width="1" opacity="1.0"/><text x="663.5" y="332.5" text-anchor="middle" font-size="10" font-weight="700" fill="#37474F">U</text><text x="585" y="380" text-anchor="middle" font-size="11" font-weight="normal" fill="#BF360C" font-style="italic">堆切分为等大 Region</text><text x="585" y="400" text-anchor="middle" font-size="11" font-weight="700" fill="#E65100">每个 Region 角色可动态切换</text><text x="585" y="425" text-anchor="middle" font-size="11" font-weight="600" fill="#9C27B0">代表：G1 / ZGC / Shenandoah</text><text x="585" y="450" text-anchor="middle" font-size="11" font-weight="700" fill="#1B5E20">特点：可预测停顿时间</text></svg>
