<svg xmlns="http://www.w3.org/2000/svg" viewBox="0 0 800 500" font-family="-apple-system, BlinkMacSystemFont, 'PingFang SC', 'Microsoft YaHei', sans-serif">
<rect width="800" height="500" fill="#FAFBFC"/>
<rect x="0" y="0" width="800" height="64" fill="#2196F3"/>
<rect x="0" y="0" width="8" height="64" fill="#FF9800"/>
<text x="28" y="40" font-size="22" font-weight="700" fill="#FFFFFF" text-rendering="geometricPrecision">限流从单机到分布式如何演进</text>
<!-- BODY_TOP=86 -->
<rect x="40" y="90" width="168" height="44" rx="8" fill="#2196F3"/>
<text x="124" y="118" font-size="16" fill="#FFFFFF" text-anchor="middle" font-weight="700">计数器
Counter</text>
<rect x="224" y="90" width="168" height="44" rx="8" fill="#FF9800"/>
<text x="308" y="118" font-size="16" fill="#FFFFFF" text-anchor="middle" font-weight="700">滑动窗口
Sliding Window</text>
<rect x="408" y="90" width="168" height="44" rx="8" fill="#4CAF50"/>
<text x="492" y="118" font-size="16" fill="#FFFFFF" text-anchor="middle" font-weight="700">漏桶
Leaky Bucket</text>
<rect x="592" y="90" width="168" height="44" rx="8" fill="#9C27B0"/>
<text x="676" y="118" font-size="16" fill="#FFFFFF" text-anchor="middle" font-weight="700">令牌桶
Token Bucket</text>
<rect x="40" y="150" width="168" height="75" fill="#FFFFFF" stroke="#E0E0E0" stroke-width="1"/>
<text x="124" y="188" font-size="12" fill="#37474F" text-anchor="middle" dominant-baseline="middle">固定窗口</text>
<rect x="224" y="150" width="168" height="75" fill="#FFFFFF" stroke="#E0E0E0" stroke-width="1"/>
<text x="308" y="188" font-size="12" fill="#37474F" text-anchor="middle" dominant-baseline="middle">细分子窗口</text>
<rect x="408" y="150" width="168" height="75" fill="#FFFFFF" stroke="#E0E0E0" stroke-width="1"/>
<text x="492" y="188" font-size="12" fill="#37474F" text-anchor="middle" dominant-baseline="middle">匀速流出</text>
<rect x="592" y="150" width="168" height="75" fill="#FFFFFF" stroke="#E0E0E0" stroke-width="1"/>
<text x="676" y="188" font-size="12" fill="#37474F" text-anchor="middle" dominant-baseline="middle">匀速发令牌</text>
<rect x="40" y="225" width="168" height="75" fill="#F5F5F5" stroke="#E0E0E0" stroke-width="1"/>
<text x="124" y="262" font-size="12" fill="#37474F" text-anchor="middle" dominant-baseline="middle">简单</text>
<rect x="224" y="225" width="168" height="75" fill="#F5F5F5" stroke="#E0E0E0" stroke-width="1"/>
<text x="308" y="262" font-size="12" fill="#37474F" text-anchor="middle" dominant-baseline="middle">解决临界问题</text>
<rect x="408" y="225" width="168" height="75" fill="#F5F5F5" stroke="#E0E0E0" stroke-width="1"/>
<text x="492" y="262" font-size="12" fill="#37474F" text-anchor="middle" dominant-baseline="middle">恒定速率</text>
<rect x="592" y="225" width="168" height="75" fill="#F5F5F5" stroke="#E0E0E0" stroke-width="1"/>
<text x="676" y="262" font-size="12" fill="#37474F" text-anchor="middle" dominant-baseline="middle">允许突发</text>
<rect x="40" y="300" width="168" height="75" fill="#FFFFFF" stroke="#E0E0E0" stroke-width="1"/>
<text x="124" y="338" font-size="12" fill="#37474F" text-anchor="middle" dominant-baseline="middle">临界点双倍流量</text>
<rect x="224" y="300" width="168" height="75" fill="#FFFFFF" stroke="#E0E0E0" stroke-width="1"/>
<text x="308" y="338" font-size="12" fill="#37474F" text-anchor="middle" dominant-baseline="middle">内存中等</text>
<rect x="408" y="300" width="168" height="75" fill="#FFFFFF" stroke="#E0E0E0" stroke-width="1"/>
<text x="492" y="338" font-size="12" fill="#37474F" text-anchor="middle" dominant-baseline="middle">突发流量堆积</text>
<rect x="592" y="300" width="168" height="75" fill="#FFFFFF" stroke="#E0E0E0" stroke-width="1"/>
<text x="676" y="338" font-size="12" fill="#37474F" text-anchor="middle" dominant-baseline="middle">Guava/Sentinel</text>
<rect x="40" y="375" width="168" height="75" fill="#F5F5F5" stroke="#E0E0E0" stroke-width="1"/>
<text x="124" y="412" font-size="12" fill="#37474F" text-anchor="middle" dominant-baseline="middle">粗糙</text>
<rect x="224" y="375" width="168" height="75" fill="#F5F5F5" stroke="#E0E0E0" stroke-width="1"/>
<text x="308" y="412" font-size="12" fill="#37474F" text-anchor="middle" dominant-baseline="middle">Sentinel 默认</text>
<rect x="408" y="375" width="168" height="75" fill="#F5F5F5" stroke="#E0E0E0" stroke-width="1"/>
<text x="492" y="412" font-size="12" fill="#37474F" text-anchor="middle" dominant-baseline="middle">保护下游</text>
<rect x="592" y="375" width="168" height="75" fill="#F5F5F5" stroke="#E0E0E0" stroke-width="1"/>
<text x="676" y="412" font-size="12" fill="#37474F" text-anchor="middle" dominant-baseline="middle">主流方案</text>
</svg>