<svg xmlns="http://www.w3.org/2000/svg" viewBox="0 0 800 500"><rect width="800" height="500" fill="#fafafa"/><defs><marker id="arr" markerWidth="10" markerHeight="10" refX="9" refY="5" orient="auto" markerUnits="strokeWidth"><path d="M0,0 L0,10 L9,5 z" fill="#607D8B"/></marker></defs><text x="400" y="35" font-family="system-ui,-apple-system,sans-serif" font-size="18" font-weight="700" fill="#333" text-anchor="middle">序列化框架对比与性能演进架构图</text><ellipse cx="120" cy="100" rx="50" ry="25" fill="#E3F2FD" stroke="#2196F3" stroke-width="1.5"/><text x="120" y="105" font-family="system-ui,-apple-system,sans-serif" font-size="12" fill="#333" text-anchor="middle">原始对象树</text><text x="120" y="165" font-family="system-ui,-apple-system,sans-serif" font-size="12" font-weight="700" fill="#9C27B0" text-anchor="middle">序列化方案选型对照</text><rect x="30" y="180" width="180" height="270" rx="8" fill="#FFEBEE" stroke="#f44336" stroke-width="1.5"/><text x="120" y="205" font-family="system-ui,-apple-system,sans-serif" font-size="13" font-weight="700" fill="#333" text-anchor="middle">Java原生 / JSON</text><rect x="50" y="220" width="140" height="25" rx="4" fill="#fff" stroke="#f44336" stroke-width="1"/><text x="120" y="237" font-family="system-ui,-apple-system,sans-serif" font-size="11" fill="#333" text-anchor="middle">文本格式/全类名</text><rect x="50" y="255" width="140" height="25" rx="4" fill="#fff" stroke="#f44336" stroke-width="1"/><text x="120" y="272" font-family="system-ui,-apple-system,sans-serif" font-size="11" fill="#333" text-anchor="middle">体积大，冗余字段名</text><rect x="50" y="290" width="140" height="25" rx="4" fill="#fff" stroke="#f44336" stroke-width="1"/><text x="120" y="307" font-family="system-ui,-apple-system,sans-serif" font-size="11" fill="#333" text-anchor="middle">解析慢(正则匹配)</text><rect x="50" y="325" width="140" height="25" rx="4" fill="#fff" stroke="#f44336" stroke-width="1"/><text x="120" y="342" font-family="system-ui,-apple-system,sans-serif" font-size="11" fill="#333" text-anchor="middle">安全风险(反序列化)</text><rect x="50" y="395" width="140" height="30" rx="4" fill="#f44336" stroke="#f44336" stroke-width="1"/><text x="120" y="414" font-family="system-ui,-apple-system,sans-serif" font-size="11" font-weight="700" fill="#fff" text-anchor="middle">性能瓶颈：高带宽</text><rect x="310" y="180" width="180" height="270" rx="8" fill="#E8F5E9" stroke="#4CAF50" stroke-width="1.5"/><text x="400" y="205" font-family="system-ui,-apple-system,sans-serif" font-size="13" font-weight="700" fill="#333" text-anchor="middle">Protobuf / Thrift</text><rect x="330" y="220" width="140" height="25" rx="4" fill="#fff" stroke="#4CAF50" stroke-width="1"/><text x="400" y="237" font-family="system-ui,-apple-system,sans-serif" font-size="11" fill="#333" text-anchor="middle">IDL Schema预生成</text><rect x="330" y="255" width="140" height="25" rx="4" fill="#fff" stroke="#4CAF50" stroke-width="1"/><text x="400" y="272" font-family="system-ui,-apple-system,sans-serif" font-size="11" fill="#333" text-anchor="middle">T-L-V结构存储</text><rect x="330" y="290" width="140" height="25" rx="4" fill="#fff" stroke="#4CAF50" stroke-width="1"/><text x="400" y="307" font-family="system-ui,-apple-system,sans-serif" font-size="11" fill="#333" text-anchor="middle">Tag匹配，跨语言强</text><rect x="330" y="325" width="140" height="25" rx="4" fill="#FFF3E0" stroke="#FF9800" stroke-width="1"/><text x="400" y="342" font-family="system-ui,-apple-system,sans-serif" font-size="11" fill="#333" text-anchor="middle">支持向前/向后兼容</text><rect x="330" y="395" width="140" height="30" rx="4" fill="#4CAF50" stroke="#4CAF50" stroke-width="1"/><text x="400" y="414" font-family="system-ui,-apple-system,sans-serif" font-size="11" font-weight="700" fill="#fff" text-anchor="middle">优势：极快且极小</text><rect x="590" y="180" width="180" height="270" rx="8" fill="#E3F2FD" stroke="#2196F3" stroke-width="1.5"/><text x="680" y="205" font-family="system-ui,-apple-system,sans-serif" font-size="13" font-weight="700" fill="#333" text-anchor="middle">Kryo (Java生态)</text><rect x="610" y="220" width="140" height="25" rx="4" fill="#fff" stroke="#2196F3" stroke-width="1"/><text x="680" y="237" font-family="system-ui,-apple-system,sans-serif" font-size="11" fill="#333" text-anchor="middle">基于反射/字节码</text><rect x="610" y="255" width="140" height="25" rx="4" fill="#fff" stroke="#2196F3" stroke-width="1"/><text x="680" y="272" font-family="system-ui,-apple-system,sans-serif" font-size="11" fill="#333" text-anchor="middle">变长整型压缩优化</text><rect x="610" y="290" width="140" height="25" rx="4" fill="#fff" stroke="#2196F3" stroke-width="1"/><text x="680" y="307" font-family="system-ui,-apple-system,sans-serif" font-size="11" fill="#333" text-anchor="middle">需注册Class提升速</text><rect x="610" y="325" width="140" height="25" rx="4" fill="#FFEBEE" stroke="#f44336" stroke-width="1"/><text x="680" y="342" font-family="system-ui,-apple-system,sans-serif" font-size="11" fill="#333" text-anchor="middle">非线程安全(需Pool)</text><rect x="610" y="395" width="140" height="30" rx="4" fill="#2196F3" stroke="#2196F3" stroke-width="1"/><text x="680" y="414" font-family="system-ui,-apple-system,sans-serif" font-size="11" font-weight="700" fill="#fff" text-anchor="middle">场景：Spark内部缓存</text><polygon points="120,130 120,150 140,155 140,135" fill="#fff" stroke="#607D8B" stroke-width="1.5"/><polygon points="120,130 120,150 100,155 100,135" fill="#9C27B0" stroke="#9C27B0" stroke-width="1.5"/><path d="M 140 140 C 200 140, 200 250, 310 260" stroke="#4CAF50" stroke-width="2.5" fill="none" marker-end="url(#arr)"/><path d="M 140 140 C 250 140, 250 220, 590 210" stroke="#2196F3" stroke-width="2.5" fill="none" marker-end="url(#arr)"/><path d="M 120 125 C 120 90, 120 80, 120 100" stroke="#f44336" stroke-width="1" fill="none" stroke-dasharray="4,4"/></svg>
