<svg xmlns="http://www.w3.org/2000/svg" viewBox="0 0 800 500" font-family="-apple-system, BlinkMacSystemFont, 'PingFang SC', 'Microsoft YaHei', sans-serif">
<rect width="800" height="500" fill="#FAFBFC"/>
<rect x="0" y="0" width="800" height="64" fill="#2196F3"/>
<rect x="0" y="0" width="8" height="64" fill="#FF9800"/>
<text x="28" y="40" font-size="22" font-weight="700" fill="#FFFFFF" text-rendering="geometricPrecision">降级预案如何从静态开关演进到策略平台</text>
<!-- BODY_TOP=86 -->
<defs>
<marker id="arrow" viewBox="0 0 10 10" refX="9" refY="5" markerWidth="7" markerHeight="7" orient="auto-start-reverse">
  <path d="M0,0 L10,5 L0,10 z" fill="#455A64"/>
</marker>
<marker id="arrowG" viewBox="0 0 10 10" refX="9" refY="5" markerWidth="7" markerHeight="7" orient="auto-start-reverse">
  <path d="M0,0 L10,5 L0,10 z" fill="#4CAF50"/>
</marker>
</defs>
<rect x="100" y="106" width="160" height="80" rx="10" fill="#4CAF5022" stroke="#4CAF50" stroke-width="2"/>
<text x="180" y="134" font-size="14" fill="#4CAF50" text-anchor="middle" font-weight="700">CLOSED
关闭</text>
<text x="180" y="162" font-size="11" fill="#546E7A" text-anchor="middle">正常放行</text>
<rect x="350" y="106" width="160" height="80" rx="10" fill="#f4433622" stroke="#f44336" stroke-width="2"/>
<text x="430" y="134" font-size="14" fill="#f44336" text-anchor="middle" font-weight="700">OPEN
打开</text>
<text x="430" y="162" font-size="11" fill="#546E7A" text-anchor="middle">熔断拒绝
快速失败</text>
<rect x="600" y="106" width="160" height="80" rx="10" fill="#FF980022" stroke="#FF9800" stroke-width="2"/>
<text x="680" y="134" font-size="14" fill="#FF9800" text-anchor="middle" font-weight="700">HALF_OPEN
半开</text>
<text x="680" y="162" font-size="11" fill="#546E7A" text-anchor="middle">探测恢复</text>
<line x1="260" y1="146" x2="350" y2="146" stroke="#f44336" stroke-width="2" marker-end="url(#arrow)"/>
<text x="305" y="140" font-size="11" fill="#f44336" text-anchor="middle" font-weight="600">失败率&gt;阈值</text>
<line x1="510" y1="146" x2="600" y2="146" stroke="#FF9800" stroke-width="2" marker-end="url(#arrow)"/>
<text x="555" y="140" font-size="11" fill="#FF9800" text-anchor="middle" font-weight="600">超时时间到</text>
<line x1="600" y1="186" x2="180" y2="186" stroke="#4CAF50" stroke-width="2" marker-end="url(#arrow)"/>
<text x="390" y="180" font-size="11" fill="#4CAF50" text-anchor="middle" font-weight="600">探测成功</text>
<rect x="60" y="216" width="680" height="120" rx="8" fill="#FFFFFF" stroke="#9C27B0" stroke-width="1.5"/>
<text x="80" y="240" font-size="13" fill="#9C27B0" font-weight="700">核心策略</text>
<circle cx="86" cy="262" r="5" fill="#4CAF50"/>
<text x="100" y="266" font-size="11" fill="#37474F"><tspan fill="#4CAF50" font-weight="700">慢调用比例</tspan> RT 阈值+比例触发</text>
<circle cx="256" cy="262" r="5" fill="#2196F3"/>
<text x="270" y="266" font-size="11" fill="#37474F"><tspan fill="#2196F3" font-weight="700">异常比例</tspan> 异常率 &gt; 50%</text>
<circle cx="426" cy="262" r="5" fill="#FF9800"/>
<text x="440" y="266" font-size="11" fill="#37474F"><tspan fill="#FF9800" font-weight="700">异常数</tspan> 异常次数阈值</text>
<circle cx="596" cy="262" r="5" fill="#9C27B0"/>
<text x="610" y="266" font-size="11" fill="#37474F"><tspan fill="#9C27B0" font-weight="700">恢复时间</tspan> 默认 10s</text>
<circle cx="86" cy="294" r="5" fill="#f44336"/>
<text x="100" y="298" font-size="11" fill="#37474F"><tspan fill="#f44336" font-weight="700">Hystrix</tspan> 老牌熔断器</text>
<circle cx="256" cy="294" r="5" fill="#607D8B"/>
<text x="270" y="298" font-size="11" fill="#37474F"><tspan fill="#607D8B" font-weight="700">Sentinel</tspan> 阿里主流</text>
<circle cx="426" cy="294" r="5" fill="#4CAF50"/>
<text x="440" y="298" font-size="11" fill="#37474F"><tspan fill="#4CAF50" font-weight="700">Resilience4j</tspan> 函数式</text>
<circle cx="596" cy="294" r="5" fill="#2196F3"/>
<text x="610" y="298" font-size="11" fill="#37474F"><tspan fill="#2196F3" font-weight="700">降级</tspan> 兜底返回</text>
<text x="400" y="366" font-size="13" fill="#2196F3" text-anchor="middle" font-weight="700">熔断保护下游  ·  限流保护自身  ·  降级保用户体验</text>
</svg>