<svg xmlns="http://www.w3.org/2000/svg" viewBox="0 0 800 500" style="font-family:system-ui,-apple-system,'PingFang SC','Microsoft YaHei',sans-serif;">
  <defs>
    <marker id="arr" markerWidth="10" markerHeight="8" refX="9" refY="4" orient="auto"><path d="M0,0 L10,4 L0,8 Z" fill="#666"/></marker>
    <marker id="arrB" markerWidth="10" markerHeight="8" refX="9" refY="4" orient="auto"><path d="M0,0 L10,4 L0,8 Z" fill="#2196F3"/></marker>
  </defs>
  <rect width="800" height="500" rx="12" fill="#fafafa" stroke="#e0e0e0"/>
  <text x="400" y="34" text-anchor="middle" font-size="18" font-weight="700" fill="#263238">你怎么看桌面 AI 产品前端未来一年的主战场？</text>
  <text x="400" y="55" text-anchor="middle" font-size="12" fill="#78909C">主战场：Agent任务编排(从单轮到多步)、产物质量护栏(编辑-确认-发布)、本地AI能力集成(端侧推理)、跨设备协作。</text>

  <rect x="40" y="95" width="720" height="70" rx="8" fill="#E3F2FD" stroke="#2196F3" stroke-width="1.5"/>
  <circle cx="68" cy="130.0" r="16" fill="#2196F3"/>
  <text x="68" y="135.0" text-anchor="middle" font-size="13" font-weight="700" fill="#fff">1</text>
  <text x="100" y="134.0" font-size="12" fill="#37474F">Agent任务编排(多步/多Agent/断点续传)</text>
  <rect x="40" y="173" width="720" height="70" rx="8" fill="#E8F5E9" stroke="#4CAF50" stroke-width="1.5"/>
  <circle cx="68" cy="208.0" r="16" fill="#4CAF50"/>
  <text x="68" y="213.0" text-anchor="middle" font-size="13" font-weight="700" fill="#fff">2</text>
  <text x="100" y="212.0" font-size="12" fill="#37474F">产物质量护栏(Diff/确认/回滚)</text>
  <rect x="40" y="251" width="720" height="70" rx="8" fill="#FFF3E0" stroke="#FF9800" stroke-width="1.5"/>
  <circle cx="68" cy="286.0" r="16" fill="#FF9800"/>
  <text x="68" y="291.0" text-anchor="middle" font-size="13" font-weight="700" fill="#fff">3</text>
  <text x="100" y="290.0" font-size="12" fill="#37474F">本地AI集成(端侧推理/离线能力)</text>
  <rect x="40" y="329" width="720" height="70" rx="8" fill="#F3E5F5" stroke="#9C27B0" stroke-width="1.5"/>
  <circle cx="68" cy="364.0" r="16" fill="#9C27B0"/>
  <text x="68" y="369.0" text-anchor="middle" font-size="13" font-weight="700" fill="#fff">4</text>
  <text x="100" y="368.0" font-size="12" fill="#37474F">跨设备/跨平台协作</text>
  <text x="40" y="465" font-size="11.5" font-weight="700" fill="#37474F">本质：Agent任务编排(多步/多Agent/断点续传)</text>
  <text x="40" y="482" font-size="11" font-weight="600" fill="#455A64">图例：</text>
  <rect x="80" y="470" width="14" height="14" rx="3" fill="#2196F3"/>
  <text x="100" y="482" font-size="11" fill="#37474F">要点1</text>
  <rect x="143" y="470" width="14" height="14" rx="3" fill="#4CAF50"/>
  <text x="163" y="482" font-size="11" fill="#37474F">要点2</text>
  <rect x="206" y="470" width="14" height="14" rx="3" fill="#FF9800"/>
  <text x="226" y="482" font-size="11" fill="#37474F">要点3</text>
  <rect x="269" y="470" width="14" height="14" rx="3" fill="#9C27B0"/>
  <text x="289" y="482" font-size="11" fill="#37474F">要点4</text>
</svg>