<svg xmlns="http://www.w3.org/2000/svg" viewBox="0 0 800 500"><rect width="800" height="500" fill="#fafafa"/><defs><marker id="arr" markerWidth="10" markerHeight="10" refX="8" refY="5" orient="auto" markerUnits="strokeWidth"><path d="M0,0 L0,10 L8,5 z" fill="#607D8B"/></marker></defs><text x="400" y="35" font-family="system-ui,-apple-system,sans-serif" font-size="18" font-weight="700" text-anchor="middle" fill="#333">死锁的四大条件与应对策略</text><rect x="40" y="65" width="180" height="400" rx="10" fill="#FFEBEE" stroke="#f44336" stroke-width="2" stroke-dasharray="4 2"/><text x="130" y="90" font-family="system-ui,-apple-system,sans-serif" font-size="14" font-weight="700" text-anchor="middle" fill="#f44336">死锁四大必要条件</text><rect x="60" y="110" width="140" height="60" rx="8" fill="#fff" stroke="#f44336" stroke-width="1.5"/><text x="130" y="135" font-family="system-ui,-apple-system,sans-serif" font-size="13" font-weight="600" text-anchor="middle" fill="#f44336">互斥条件</text><text x="130" y="155" font-family="system-ui,-apple-system,sans-serif" font-size="11" text-anchor="middle" fill="#666">资源被独占</text><rect x="60" y="190" width="140" height="60" rx="8" fill="#fff" stroke="#f44336" stroke-width="1.5"/><text x="130" y="215" font-family="system-ui,-apple-system,sans-serif" font-size="13" font-weight="600" text-anchor="middle" fill="#f44336">请求与保持</text><text x="130" y="235" font-family="system-ui,-apple-system,sans-serif" font-size="11" text-anchor="middle" fill="#666">不放已有资源</text><rect x="60" y="270" width="140" height="60" rx="8" fill="#fff" stroke="#f44336" stroke-width="1.5"/><text x="130" y="295" font-family="system-ui,-apple-system,sans-serif" font-size="13" font-weight="600" text-anchor="middle" fill="#f44336">不可剥夺</text><text x="130" y="315" font-family="system-ui,-apple-system,sans-serif" font-size="11" text-anchor="middle" fill="#666">只能主动释放</text><rect x="60" y="350" width="140" height="60" rx="8" fill="#fff" stroke="#f44336" stroke-width="1.5"/><text x="130" y="375" font-family="system-ui,-apple-system,sans-serif" font-size="13" font-weight="600" text-anchor="middle" fill="#f44336">环路等待</text><text x="130" y="395" font-family="system-ui,-apple-system,sans-serif" font-size="11" text-anchor="middle" fill="#666">形成死循环链</text><rect x="250" y="65" width="180" height="400" rx="10" fill="#E3F2FD" stroke="#2196F3" stroke-width="2" stroke-dasharray="4 2"/><text x="340" y="90" font-family="system-ui,-apple-system,sans-serif" font-size="14" font-weight="700" text-anchor="middle" fill="#2196F3">预防策略 (破坏条件)</text><rect x="270" y="110" width="140" height="60" rx="8" fill="#fff" stroke="#2196F3" stroke-width="1.5"/><text x="340" y="135" font-family="system-ui,-apple-system,sans-serif" font-size="13" font-weight="600" text-anchor="middle" fill="#2196F3">一次性申请</text><text x="340" y="155" font-family="system-ui,-apple-system,sans-serif" font-size="11" text-anchor="middle" fill="#666">破坏请求保持</text><rect x="270" y="190" width="140" height="60" rx="8" fill="#fff" stroke="#2196F3" stroke-width="1.5"/><text x="340" y="215" font-family="system-ui,-apple-system,sans-serif" font-size="13" font-weight="600" text-anchor="middle" fill="#2196F3">主动释放资源</text><text x="340" y="235" font-family="system-ui,-apple-system,sans-serif" font-size="11" text-anchor="middle" fill="#666">破坏不可剥夺</text><rect x="270" y="270" width="140" height="60" rx="8" fill="#fff" stroke="#2196F3" stroke-width="1.5"/><text x="340" y="295" font-family="system-ui,-apple-system,sans-serif" font-size="13" font-weight="600" text-anchor="middle" fill="#2196F3">资源有序分配</text><text x="340" y="315" font-family="system-ui,-apple-system,sans-serif" font-size="11" text-anchor="middle" fill="#666">破坏环路等待</text><polygon points="340,380 410,415 340,450 270,415" fill="#F3E5F5" stroke="#9C27B0" stroke-width="1.5"/><text x="340" y="410" font-family="system-ui,-apple-system,sans-serif" font-size="11" text-anchor="middle" fill="#9C27B0">银行家算法</text><text x="340" y="425" font-family="system-ui,-apple-system,sans-serif" font-size="11" text-anchor="middle" fill="#9C27B0">寻找安全序列</text><rect x="460" y="65" width="160" height="400" rx="10" fill="#FFF3E0" stroke="#FF9800" stroke-width="2" stroke-dasharray="4 2"/><text x="540" y="90" font-family="system-ui,-apple-system,sans-serif" font-size="14" font-weight="700" text-anchor="middle" fill="#FF9800">检测与恢复</text><rect x="480" y="110" width="120" height="60" rx="8" fill="#fff" stroke="#FF9800" stroke-width="1.5"/><text x="540" y="135" font-family="system-ui,-apple-system,sans-serif" font-size="13" font-weight="600" text-anchor="middle" fill="#FF9800">允许发生</text><text x="540" y="155" font-family="system-ui,-apple-system,sans-serif" font-size="11" text-anchor="middle" fill="#666">不预先限制</text><polygon points="540,200 600,235 540,270 480,235" fill="#FFF3E0" stroke="#FF9800" stroke-width="1.5"/><text x="540" y="230" font-family="system-ui,-apple-system,sans-serif" font-size="12" text-anchor="middle" fill="#FF9800">资源分配图</text><text x="540" y="245" font-family="system-ui,-apple-system,sans-serif" font-size="12" text-anchor="middle" fill="#FF9800">周期检测</text><rect x="480" y="290" width="120" height="60" rx="8" fill="#fff" stroke="#FF9800" stroke-width="1.5"/><text x="540" y="315" font-family="system-ui,-apple-system,sans-serif" font-size="13" font-weight="600" text-anchor="middle" fill="#FF9800">撤销进程</text><text x="540" y="335" font-family="system-ui,-apple-system,sans-serif" font-size="11" text-anchor="middle" fill="#666">强制剥夺</text><rect x="480" y="370" width="120" height="60" rx="8" fill="#fff" stroke="#FF9800" stroke-width="1.5"/><text x="540" y="395" font-family="system-ui,-apple-system,sans-serif" font-size="13" font-weight="600" text-anchor="middle" fill="#FF9800">回滚操作</text><text x="540" y="415" font-family="system-ui,-apple-system,sans-serif" font-size="11" text-anchor="middle" fill="#666">恢复现场</text><path d="M 220 140 Q 245 140 265 140" fill="none" stroke="#607D8B" stroke-width="1.5" marker-end="url(#arr)"/><path d="M 220 220 Q 245 220 265 220" fill="none" stroke="#607D8B" stroke-width="1.5" marker-end="url(#arr)"/><path d="M 220 300 Q 245 300 265 300" fill="none" stroke="#607D8B" stroke-width="1.5" marker-end="url(#arr)"/><text x="242" y="135" font-family="system-ui,-apple-system,sans-serif" font-size="10" fill="#607D8B">破</text><text x="242" y="215" font-family="system-ui,-apple-system,sans-serif" font-size="10" fill="#607D8B">破</text><text x="242" y="295" font-family="system-ui,-apple-system,sans-serif" font-size="10" fill="#607D8B">破</text><rect x="660" y="180" width="120" height="120" rx="8" fill="#ECEFF1" stroke="#607D8B" stroke-width="2"/><text x="720" y="205" font-family="system-ui,-apple-system,sans-serif" font-size="12" font-weight="700" text-anchor="middle" fill="#607D8B">实战风险</text><text x="720" y="230" font-family="system-ui,-apple-system,sans-serif" font-size="11" text-anchor="middle" fill="#666">微服务嵌套</text><text x="720" y="245" font-family="system-ui,-apple-system,sans-serif" font-size="11" text-anchor="middle" fill="#666">回调死循环</text><text x="720" y="270" font-family="system-ui,-apple-system,sans-serif" font-size="11" font-weight="700" text-anchor="middle" fill="#f44336">防：加超时</text><text x="720" y="285" font-family="system-ui,-apple-system,sans-serif" font-size="11" font-weight="700" text-anchor="middle" fill="#f44336">统一调用方向</text><line x1="540" y1="235" x2="660" y2="240" stroke="#607D8B" stroke-dasharray="4 4" marker-end="url(#arr)"/></svg>
