<svg xmlns="http://www.w3.org/2000/svg" viewBox="0 0 800 500" font-family="-apple-system, BlinkMacSystemFont, 'PingFang SC', 'Microsoft YaHei', sans-serif">
<rect width="800" height="500" fill="#FAFBFC"/>
<rect x="0" y="0" width="800" height="64" fill="#2196F3"/>
<rect x="0" y="0" width="8" height="64" fill="#FF9800"/>
<text x="28" y="40" font-size="22" font-weight="700" fill="#FFFFFF" text-rendering="geometricPrecision">【Java 后端架构师】RocketMQ 事务消息与延迟消息设计</text>
<text x="28" y="552" font-size="0"></text>
<text x="28" y="92" font-size="14" fill="#37474F" font-style="italic">核心：RocketMQ 事务消息用&quot;半消息（half message）+ 本地事务回查&quot;解决&quot;本地数据库提交与消息发送&quot;的原子…</text>
<!-- BODY_TOP=110 -->
<rect x="40" y="114" width="168" height="44" rx="8" fill="#2196F3"/>
<text x="124" y="142" font-size="16" fill="#FFFFFF" text-anchor="middle" font-weight="700">2PC
两阶段提交</text>
<rect x="224" y="114" width="168" height="44" rx="8" fill="#FF9800"/>
<text x="308" y="142" font-size="16" fill="#FFFFFF" text-anchor="middle" font-weight="700">TCC
Try-Confirm-Cancel</text>
<rect x="408" y="114" width="168" height="44" rx="8" fill="#4CAF50"/>
<text x="492" y="142" font-size="16" fill="#FFFFFF" text-anchor="middle" font-weight="700">本地消息表</text>
<rect x="592" y="114" width="168" height="44" rx="8" fill="#9C27B0"/>
<text x="676" y="142" font-size="16" fill="#FFFFFF" text-anchor="middle" font-weight="700">Saga</text>
<rect x="40" y="174" width="168" height="60" fill="#FFFFFF" stroke="#E0E0E0" stroke-width="1"/>
<text x="124" y="204" font-size="12" fill="#37474F" text-anchor="middle" dominant-baseline="middle">协调者+参与者</text>
<rect x="224" y="174" width="168" height="60" fill="#FFFFFF" stroke="#E0E0E0" stroke-width="1"/>
<text x="308" y="204" font-size="12" fill="#37474F" text-anchor="middle" dominant-baseline="middle">业务侵入</text>
<rect x="408" y="174" width="168" height="60" fill="#FFFFFF" stroke="#E0E0E0" stroke-width="1"/>
<text x="492" y="204" font-size="12" fill="#37474F" text-anchor="middle" dominant-baseline="middle">异步确保</text>
<rect x="592" y="174" width="168" height="60" fill="#FFFFFF" stroke="#E0E0E0" stroke-width="1"/>
<text x="676" y="204" font-size="12" fill="#37474F" text-anchor="middle" dominant-baseline="middle">长事务拆分</text>
<rect x="40" y="234" width="168" height="60" fill="#F5F5F5" stroke="#E0E0E0" stroke-width="1"/>
<text x="124" y="264" font-size="12" fill="#37474F" text-anchor="middle" dominant-baseline="middle">强一致</text>
<rect x="224" y="234" width="168" height="60" fill="#F5F5F5" stroke="#E0E0E0" stroke-width="1"/>
<text x="308" y="264" font-size="12" fill="#37474F" text-anchor="middle" dominant-baseline="middle">最终一致</text>
<rect x="408" y="234" width="168" height="60" fill="#F5F5F5" stroke="#E0E0E0" stroke-width="1"/>
<text x="492" y="264" font-size="12" fill="#37474F" text-anchor="middle" dominant-baseline="middle">业务表+消息表</text>
<rect x="592" y="234" width="168" height="60" fill="#F5F5F5" stroke="#E0E0E0" stroke-width="1"/>
<text x="676" y="264" font-size="12" fill="#37474F" text-anchor="middle" dominant-baseline="middle">正反向补偿</text>
<rect x="40" y="294" width="168" height="60" fill="#FFFFFF" stroke="#E0E0E0" stroke-width="1"/>
<text x="124" y="324" font-size="12" fill="#37474F" text-anchor="middle" dominant-baseline="middle">阻塞/性能差</text>
<rect x="224" y="294" width="168" height="60" fill="#FFFFFF" stroke="#E0E0E0" stroke-width="1"/>
<text x="308" y="324" font-size="12" fill="#37474F" text-anchor="middle" dominant-baseline="middle">性能好</text>
<rect x="408" y="294" width="168" height="60" fill="#FFFFFF" stroke="#E0E0E0" stroke-width="1"/>
<text x="492" y="324" font-size="12" fill="#37474F" text-anchor="middle" dominant-baseline="middle">最终一致</text>
<rect x="592" y="294" width="168" height="60" fill="#FFFFFF" stroke="#E0E0E0" stroke-width="1"/>
<text x="676" y="324" font-size="12" fill="#37474F" text-anchor="middle" dominant-baseline="middle">最终一致</text>
<rect x="40" y="354" width="168" height="60" fill="#F5F5F5" stroke="#E0E0E0" stroke-width="1"/>
<text x="124" y="384" font-size="12" fill="#37474F" text-anchor="middle" dominant-baseline="middle">单点故障</text>
<rect x="224" y="354" width="168" height="60" fill="#F5F5F5" stroke="#E0E0E0" stroke-width="1"/>
<text x="308" y="384" font-size="12" fill="#37474F" text-anchor="middle" dominant-baseline="middle">需幂等</text>
<rect x="408" y="354" width="168" height="60" fill="#F5F5F5" stroke="#E0E0E0" stroke-width="1"/>
<text x="492" y="384" font-size="12" fill="#37474F" text-anchor="middle" dominant-baseline="middle">可靠</text>
<rect x="592" y="354" width="168" height="60" fill="#F5F5F5" stroke="#E0E0E0" stroke-width="1"/>
<text x="676" y="384" font-size="12" fill="#37474F" text-anchor="middle" dominant-baseline="middle">适合长流程</text>
<rect x="40" y="414" width="168" height="60" fill="#FFFFFF" stroke="#E0E0E0" stroke-width="1"/>
<text x="124" y="444" font-size="12" fill="#37474F" text-anchor="middle" dominant-baseline="middle">XA 协议</text>
<rect x="224" y="414" width="168" height="60" fill="#FFFFFF" stroke="#E0E0E0" stroke-width="1"/>
<text x="308" y="444" font-size="12" fill="#37474F" text-anchor="middle" dominant-baseline="middle">Saga 替代</text>
<rect x="408" y="414" width="168" height="60" fill="#FFFFFF" stroke="#E0E0E0" stroke-width="1"/>
<text x="492" y="444" font-size="12" fill="#37474F" text-anchor="middle" dominant-baseline="middle">主流方案</text>
<rect x="592" y="414" width="168" height="60" fill="#FFFFFF" stroke="#E0E0E0" stroke-width="1"/>
<text x="676" y="444" font-size="12" fill="#37474F" text-anchor="middle" dominant-baseline="middle">状态机驱动</text>
</svg>