<?xml version="1.0" encoding="UTF-8"?>
<svg xmlns="http://www.w3.org/2000/svg" viewBox="0 0 800 600" font-family="system-ui, -apple-system, Segoe UI, Roboto, sans-serif">
<defs>
  <marker id="arrow" markerWidth="10" markerHeight="10" refX="9" refY="3" orient="auto" markerUnits="strokeWidth"><path d="M0,0 L0,6 L9,3 z" fill="#37474F"/></marker>
  <marker id="arrowR" markerWidth="10" markerHeight="10" refX="9" refY="3" orient="auto" markerUnits="strokeWidth"><path d="M0,0 L0,6 L9,3 z" fill="#f44336"/></marker>
  <marker id="arrowG" markerWidth="10" markerHeight="10" refX="9" refY="3" orient="auto" markerUnits="strokeWidth"><path d="M0,0 L0,6 L9,3 z" fill="#4CAF50"/></marker>
  <marker id="arrowB" markerWidth="10" markerHeight="10" refX="9" refY="3" orient="auto" markerUnits="strokeWidth"><path d="M0,0 L0,6 L9,3 z" fill="#2196F3"/></marker>
</defs>
<text x="400" y="38" text-anchor="middle" font-size="22" font-weight="700" fill="#1a202c">G1 收集器 Region 化堆布局</text>
<line x1="40" y1="56" x2="760" y2="56" stroke="#607D8B" stroke-width="1" stroke-dasharray="4,3" opacity="0.4"/>
<rect x="40" y="90" width="720" height="280" rx="8" ry="8" fill="#FFFDE7" stroke="#607D8B" stroke-width="2" opacity="1.0"/><text x="400" y="115" text-anchor="middle" font-size="14" font-weight="700" fill="#5D4037">Java Heap (划分为多个等大 Region, 1~32MB)</text><rect x="60" y="140" width="68" height="46" rx="6" ry="6" fill="#C8E6C9" stroke="#4CAF50" stroke-width="1" opacity="1.0"/><text x="94.0" y="167.0" text-anchor="middle" font-size="12" font-weight="700" fill="#37474F">E</text><rect x="132" y="140" width="68" height="46" rx="6" ry="6" fill="#C8E6C9" stroke="#4CAF50" stroke-width="1" opacity="1.0"/><text x="166.0" y="167.0" text-anchor="middle" font-size="12" font-weight="700" fill="#37474F">E</text><rect x="204" y="140" width="68" height="46" rx="6" ry="6" fill="#DCEDC8" stroke="#4CAF50" stroke-width="1" opacity="1.0"/><text x="238.0" y="167.0" text-anchor="middle" font-size="12" font-weight="700" fill="#37474F">S</text><rect x="276" y="140" width="68" height="46" rx="6" ry="6" fill="#FFCDD2" stroke="#f44336" stroke-width="1" opacity="1.0"/><text x="310.0" y="167.0" text-anchor="middle" font-size="12" font-weight="700" fill="#37474F">O</text><rect x="348" y="140" width="68" height="46" rx="6" ry="6" fill="#FFCDD2" stroke="#f44336" stroke-width="1" opacity="1.0"/><text x="382.0" y="167.0" text-anchor="middle" font-size="12" font-weight="700" fill="#37474F">O</text><rect x="420" y="140" width="68" height="46" rx="6" ry="6" fill="#FFE0B2" stroke="#FF9800" stroke-width="1" opacity="1.0"/><text x="454.0" y="167.0" text-anchor="middle" font-size="12" font-weight="700" fill="#37474F">H</text><rect x="492" y="140" width="68" height="46" rx="6" ry="6" fill="#FFE0B2" stroke="#FF9800" stroke-width="1" opacity="1.0"/><text x="526.0" y="167.0" text-anchor="middle" font-size="12" font-weight="700" fill="#37474F">H</text><rect x="564" y="140" width="68" height="46" rx="6" ry="6" fill="#ECEFF1" stroke="#607D8B" stroke-width="1" opacity="1.0"/><text x="598.0" y="167.0" text-anchor="middle" font-size="12" font-weight="700" fill="#37474F">U</text><rect x="60" y="190" width="68" height="46" rx="6" ry="6" fill="#C8E6C9" stroke="#4CAF50" stroke-width="1" opacity="1.0"/><text x="94.0" y="217.0" text-anchor="middle" font-size="12" font-weight="700" fill="#37474F">E</text><rect x="132" y="190" width="68" height="46" rx="6" ry="6" fill="#C8E6C9" stroke="#4CAF50" stroke-width="1" opacity="1.0"/><text x="166.0" y="217.0" text-anchor="middle" font-size="12" font-weight="700" fill="#37474F">E</text><rect x="204" y="190" width="68" height="46" rx="6" ry="6" fill="#C8E6C9" stroke="#4CAF50" stroke-width="1" opacity="1.0"/><text x="238.0" y="217.0" text-anchor="middle" font-size="12" font-weight="700" fill="#37474F">E</text><rect x="276" y="190" width="68" height="46" rx="6" ry="6" fill="#FFCDD2" stroke="#f44336" stroke-width="1" opacity="1.0"/><text x="310.0" y="217.0" text-anchor="middle" font-size="12" font-weight="700" fill="#37474F">O</text><rect x="348" y="190" width="68" height="46" rx="6" ry="6" fill="#FFCDD2" stroke="#f44336" stroke-width="1" opacity="1.0"/><text x="382.0" y="217.0" text-anchor="middle" font-size="12" font-weight="700" fill="#37474F">O</text><rect x="420" y="190" width="68" height="46" rx="6" ry="6" fill="#FFCDD2" stroke="#f44336" stroke-width="1" opacity="1.0"/><text x="454.0" y="217.0" text-anchor="middle" font-size="12" font-weight="700" fill="#37474F">O</text><rect x="492" y="190" width="68" height="46" rx="6" ry="6" fill="#ECEFF1" stroke="#607D8B" stroke-width="1" opacity="1.0"/><text x="526.0" y="217.0" text-anchor="middle" font-size="12" font-weight="700" fill="#37474F">U</text><rect x="564" y="190" width="68" height="46" rx="6" ry="6" fill="#ECEFF1" stroke="#607D8B" stroke-width="1" opacity="1.0"/><text x="598.0" y="217.0" text-anchor="middle" font-size="12" font-weight="700" fill="#37474F">U</text><rect x="60" y="240" width="68" height="46" rx="6" ry="6" fill="#DCEDC8" stroke="#4CAF50" stroke-width="1" opacity="1.0"/><text x="94.0" y="267.0" text-anchor="middle" font-size="12" font-weight="700" fill="#37474F">S</text><rect x="132" y="240" width="68" height="46" rx="6" ry="6" fill="#C8E6C9" stroke="#4CAF50" stroke-width="1" opacity="1.0"/><text x="166.0" y="267.0" text-anchor="middle" font-size="12" font-weight="700" fill="#37474F">E</text><rect x="204" y="240" width="68" height="46" rx="6" ry="6" fill="#C8E6C9" stroke="#4CAF50" stroke-width="1" opacity="1.0"/><text x="238.0" y="267.0" text-anchor="middle" font-size="12" font-weight="700" fill="#37474F">E</text><rect x="276" y="240" width="68" height="46" rx="6" ry="6" fill="#FFCDD2" stroke="#f44336" stroke-width="1" opacity="1.0"/><text x="310.0" y="267.0" text-anchor="middle" font-size="12" font-weight="700" fill="#37474F">O</text><rect x="348" y="240" width="68" height="46" rx="6" ry="6" fill="#FFCDD2" stroke="#f44336" stroke-width="1" opacity="1.0"/><text x="382.0" y="267.0" text-anchor="middle" font-size="12" font-weight="700" fill="#37474F">O</text><rect x="420" y="240" width="68" height="46" rx="6" ry="6" fill="#FFE0B2" stroke="#FF9800" stroke-width="1" opacity="1.0"/><text x="454.0" y="267.0" text-anchor="middle" font-size="12" font-weight="700" fill="#37474F">H</text><rect x="492" y="240" width="68" height="46" rx="6" ry="6" fill="#FFE0B2" stroke="#FF9800" stroke-width="1" opacity="1.0"/><text x="526.0" y="267.0" text-anchor="middle" font-size="12" font-weight="700" fill="#37474F">H</text><rect x="564" y="240" width="68" height="46" rx="6" ry="6" fill="#ECEFF1" stroke="#607D8B" stroke-width="1" opacity="1.0"/><text x="598.0" y="267.0" text-anchor="middle" font-size="12" font-weight="700" fill="#37474F">U</text><rect x="60" y="290" width="68" height="46" rx="6" ry="6" fill="#ECEFF1" stroke="#607D8B" stroke-width="1" opacity="1.0"/><text x="94.0" y="317.0" text-anchor="middle" font-size="12" font-weight="700" fill="#37474F">U</text><rect x="132" y="290" width="68" height="46" rx="6" ry="6" fill="#C8E6C9" stroke="#4CAF50" stroke-width="1" opacity="1.0"/><text x="166.0" y="317.0" text-anchor="middle" font-size="12" font-weight="700" fill="#37474F">E</text><rect x="204" y="290" width="68" height="46" rx="6" ry="6" fill="#C8E6C9" stroke="#4CAF50" stroke-width="1" opacity="1.0"/><text x="238.0" y="317.0" text-anchor="middle" font-size="12" font-weight="700" fill="#37474F">E</text><rect x="276" y="290" width="68" height="46" rx="6" ry="6" fill="#DCEDC8" stroke="#4CAF50" stroke-width="1" opacity="1.0"/><text x="310.0" y="317.0" text-anchor="middle" font-size="12" font-weight="700" fill="#37474F">S</text><rect x="348" y="290" width="68" height="46" rx="6" ry="6" fill="#FFCDD2" stroke="#f44336" stroke-width="1" opacity="1.0"/><text x="382.0" y="317.0" text-anchor="middle" font-size="12" font-weight="700" fill="#37474F">O</text><rect x="420" y="290" width="68" height="46" rx="6" ry="6" fill="#FFCDD2" stroke="#f44336" stroke-width="1" opacity="1.0"/><text x="454.0" y="317.0" text-anchor="middle" font-size="12" font-weight="700" fill="#37474F">O</text><rect x="492" y="290" width="68" height="46" rx="6" ry="6" fill="#ECEFF1" stroke="#607D8B" stroke-width="1" opacity="1.0"/><text x="526.0" y="317.0" text-anchor="middle" font-size="12" font-weight="700" fill="#37474F">U</text><rect x="564" y="290" width="68" height="46" rx="6" ry="6" fill="#ECEFF1" stroke="#607D8B" stroke-width="1" opacity="1.0"/><text x="598.0" y="317.0" text-anchor="middle" font-size="12" font-weight="700" fill="#37474F">U</text><text x="60" y="395" text-anchor="start" font-size="12" font-weight="700" fill="#37474F">图例：</text><rect x="110" y="385" width="18" height="18" rx="6" ry="6" fill="#C8E6C9" stroke="#4CAF50" stroke-width="1.5" opacity="1.0"/><text x="132" y="397" text-anchor="start" font-size="10" font-weight="normal" fill="#37474F">E=Eden</text><rect x="240" y="385" width="18" height="18" rx="6" ry="6" fill="#DCEDC8" stroke="#4CAF50" stroke-width="1.5" opacity="1.0"/><text x="262" y="397" text-anchor="start" font-size="10" font-weight="normal" fill="#37474F">S=Survivor</text><rect x="370" y="385" width="18" height="18" rx="6" ry="6" fill="#FFCDD2" stroke="#f44336" stroke-width="1.5" opacity="1.0"/><text x="392" y="397" text-anchor="start" font-size="10" font-weight="normal" fill="#37474F">O=Old</text><rect x="500" y="385" width="18" height="18" rx="6" ry="6" fill="#FFE0B2" stroke="#FF9800" stroke-width="1.5" opacity="1.0"/><text x="522" y="397" text-anchor="start" font-size="10" font-weight="normal" fill="#37474F">H=Humongous</text><rect x="630" y="385" width="18" height="18" rx="6" ry="6" fill="#ECEFF1" stroke="#607D8B" stroke-width="1.5" opacity="1.0"/><text x="652" y="397" text-anchor="start" font-size="10" font-weight="normal" fill="#37474F">U=Unused</text><rect x="40" y="425" width="720" height="150" rx="6" ry="6" fill="#ECEFF1" stroke="#607D8B" stroke-width="1.5" opacity="1.0"/><text x="400" y="445" text-anchor="middle" font-size="13" font-weight="700" fill="#37474F">G1 工作流程</text><rect x="80" y="470" width="200" height="50" rx="6" ry="6" fill="#4CAF5022" stroke="#4CAF50" stroke-width="2" opacity="1.0"/><text x="180" y="492" text-anchor="middle" font-size="13" font-weight="700" fill="#4CAF50">年轻代 GC</text><text x="180" y="510" text-anchor="middle" font-size="10" font-weight="normal" fill="#37474F" font-style="italic">Evacuation</text><line x1="280" y1="495" x2="310" y2="495" stroke="#607D8B" stroke-width="2" marker-end="url(#arrow)"/><rect x="310" y="470" width="200" height="50" rx="6" ry="6" fill="#FF980022" stroke="#FF9800" stroke-width="2" opacity="1.0"/><text x="410" y="492" text-anchor="middle" font-size="13" font-weight="700" fill="#FF9800">混合 GC</text><text x="410" y="510" text-anchor="middle" font-size="10" font-weight="normal" fill="#37474F" font-style="italic">Mixed (含 Old Region)</text><line x1="510" y1="495" x2="540" y2="495" stroke="#607D8B" stroke-width="2" marker-end="url(#arrow)"/><rect x="540" y="470" width="200" height="50" rx="6" ry="6" fill="#f4433622" stroke="#f44336" stroke-width="2" opacity="1.0"/><text x="640" y="492" text-anchor="middle" font-size="13" font-weight="700" fill="#f44336">Full GC</text><text x="640" y="510" text-anchor="middle" font-size="10" font-weight="normal" fill="#37474F" font-style="italic">Fallback (单线程 Serial)</text><text x="400" y="555" text-anchor="middle" font-size="11" font-weight="600" fill="#9C27B0" font-style="italic">可预测停顿模型：-XX:MaxGCPauseMillis 指定目标停顿时间</text></svg>
