<svg xmlns="http://www.w3.org/2000/svg" viewBox="0 0 800 500"><defs><marker id="arr" markerWidth="10" markerHeight="10" refX="9" refY="5" orient="auto" markerUnits="strokeWidth"><path d="M0,0 L0,10 L9,5 z" fill="#607D8B"/></marker></defs><rect width="800" height="500" fill="#fafafa"/><text x="400" y="35" font-family="system-ui,-apple-system,sans-serif" font-size="18" font-weight="700" text-anchor="middle">CAS 的 ABA 问题演进与解决</text><rect x="40" y="70" width="340" height="160" rx="8" fill="#FFEBEE" stroke="#f44336" stroke-width="2"/><text x="210" y="95" font-family="system-ui,-apple-system,sans-serif" font-size="14" font-weight="700" text-anchor="middle" fill="#f44336">ABA 问题：盲目对比值</text><rect x="60" y="115" width="100" height="35" rx="8" fill="#FFF3E0" stroke="#FF9800" stroke-width="1"/><text x="110" y="137" font-family="system-ui,-apple-system,sans-serif" font-size="13" text-anchor="middle" fill="#FF9800">状态 A (初始)</text><rect x="170" y="115" width="100" height="35" rx="8" fill="#ECEFF1" stroke="#607D8B" stroke-width="1"/><text x="220" y="137" font-family="system-ui,-apple-system,sans-serif" font-size="13" text-anchor="middle" fill="#607D8B">状态 B (被改)</text><rect x="280" y="115" width="80" height="35" rx="8" fill="#FFF3E0" stroke="#FF9800" stroke-width="1"/><text x="320" y="137" font-family="system-ui,-apple-system,sans-serif" font-size="13" text-anchor="middle" fill="#FF9800">状态 A (复原)</text><line x1="160" y1="132" x2="165" y2="132" stroke="#607D8B" stroke-width="1.5" marker-end="url(#arr)"/><line x1="270" y1="132" x2="275" y2="132" stroke="#607D8B" stroke-width="1.5" marker-end="url(#arr)"/><rect x="60" y="170" width="300" height="40" rx="8" fill="#E3F2FD" stroke="#2196F3" stroke-width="1.5"/><text x="210" y="194" font-family="system-ui,-apple-system,sans-serif" font-size="12" text-anchor="middle" fill="#2196F3">线程执行 CAS(A, C)，比对值为 A，修改成功！</text><rect x="420" y="70" width="340" height="160" rx="8" fill="#E8F5E9" stroke="#4CAF50" stroke-width="2"/><text x="590" y="95" font-family="system-ui,-apple-system,sans-serif" font-size="14" font-weight="700" text-anchor="middle" fill="#4CAF50">解决方案：附加版本戳</text><rect x="440" y="115" width="100" height="35" rx="8" fill="#FFF3E0" stroke="#FF9800" stroke-width="1"/><text x="490" y="137" font-family="system-ui,-apple-system,sans-serif" font-size="13" text-anchor="middle" fill="#FF9800">值A, 版本1</text><rect x="550" y="115" width="100" height="35" rx="8" fill="#ECEFF1" stroke="#607D8B" stroke-width="1"/><text x="600" y="137" font-family="system-ui,-apple-system,sans-serif" font-size="13" text-anchor="middle" fill="#607D8B">值B, 版本2</text><rect x="660" y="115" width="80" height="35" rx="8" fill="#FFF3E0" stroke="#FF9800" stroke-width="1"/><text x="700" y="137" font-family="system-ui,-apple-system,sans-serif" font-size="13" text-anchor="middle" fill="#FF9800">值A, 版本3</text><line x1="540" y1="132" x2="545" y2="132" stroke="#607D8B" stroke-width="1.5" marker-end="url(#arr)"/><line x1="650" y1="132" x2="655" y2="132" stroke="#607D8B" stroke-width="1.5" marker-end="url(#arr)"/><rect x="440" y="170" width="300" height="40" rx="8" fill="#E3F2FD" stroke="#2196F3" stroke-width="1.5"/><text x="590" y="194" font-family="system-ui,-apple-system,sans-serif" font-size="12" text-anchor="middle" fill="#2196F3">执行 CAS(期望A/版本1)，版本不符，修改失败！</text><line x1="210" y1="210" x2="210" y2="260" stroke="#f44336" stroke-width="2" marker-end="url(#arr)"/><line x1="590" y1="210" x2="590" y2="260" stroke="#4CAF50" stroke-width="2" marker-end="url(#arr)"/><rect x="60" y="260" width="300" height="60" rx="8" fill="#FFEBEE" stroke="#f44336" stroke-width="1" stroke-dasharray="4"/><text x="210" y="285" font-family="system-ui,-apple-system,sans-serif" font-size="13" font-weight="700" text-anchor="middle" fill="#f44336">潜在隐患掩盖</text><text x="210" y="305" font-family="system-ui,-apple-system,sans-serif" font-size="12" text-anchor="middle" fill="#607D8B">中间状态变化被忽略，可能引发结构破坏</text><rect x="440" y="260" width="300" height="60" rx="8" fill="#E8F5E9" stroke="#4CAF50" stroke-width="1" stroke-dasharray="4"/><text x="590" y="285" font-family="system-ui,-apple-system,sans-serif" font-size="13" font-weight="700" text-anchor="middle" fill="#4CAF50">状态变更追溯</text><text x="590" y="305" font-family="system-ui,-apple-system,sans-serif" font-size="12" text-anchor="middle" fill="#607D8B">精确感知被修改过，保障业务操作严密性</text><rect x="120" y="360" width="260" height="100" rx="8" fill="#F3E5F5" stroke="#9C27B0" stroke-width="2"/><text x="250" y="385" font-family="system-ui,-apple-system,sans-serif" font-size="14" font-weight="700" text-anchor="middle" fill="#9C27B0">AtomicStampedReference</text><text x="250" y="410" font-family="system-ui,-apple-system,sans-serif" font-size="12" text-anchor="middle" fill="#607D8B">核心机制：附加整型版本号 stamp</text><text x="250" y="430" font-family="system-ui,-apple-system,sans-serif" font-size="12" text-anchor="middle" fill="#607D8B">每次修改不仅比对引用，还要比对版本</text><text x="250" y="448" font-family="system-ui,-apple-system,sans-serif" font-size="12" text-anchor="middle" fill="#2196F3">适用：需要精确记录修改次数（如流水分）</text><rect x="420" y="360" width="260" height="100" rx="8" fill="#F3E5F5" stroke="#9C27B0" stroke-width="2"/><text x="550" y="385" font-family="system-ui,-apple-system,sans-serif" font-size="14" font-weight="700" text-anchor="middle" fill="#9C27B0">AtomicMarkableReference</text><text x="550" y="410" font-family="system-ui,-apple-system,sans-serif" font-size="12" text-anchor="middle" fill="#607D8B">核心机制：附加布尔标记位 mark</text><text x="550" y="430" font-family="system-ui,-apple-system,sans-serif" font-size="12" text-anchor="middle" fill="#607D8B">不关心改了几次，只关心“是否被动过”</text><text x="550" y="448" font-family="system-ui,-apple-system,sans-serif" font-size="12" text-anchor="middle" fill="#2196F3">适用：仅需知道状态是否被修改（如删除标记）</text></svg>
