<?xml version="1.0" encoding="UTF-8"?>
<svg xmlns="http://www.w3.org/2000/svg" viewBox="0 0 800 500" font-family="system-ui, -apple-system, Segoe UI, Roboto, sans-serif">
<defs>
  <marker id="arrow" markerWidth="10" markerHeight="10" refX="9" refY="3" orient="auto" markerUnits="strokeWidth"><path d="M0,0 L0,6 L9,3 z" fill="#37474F"/></marker>
  <marker id="arrowR" markerWidth="10" markerHeight="10" refX="9" refY="3" orient="auto" markerUnits="strokeWidth"><path d="M0,0 L0,6 L9,3 z" fill="#f44336"/></marker>
  <marker id="arrowG" markerWidth="10" markerHeight="10" refX="9" refY="3" orient="auto" markerUnits="strokeWidth"><path d="M0,0 L0,6 L9,3 z" fill="#4CAF50"/></marker>
  <marker id="arrowB" markerWidth="10" markerHeight="10" refX="9" refY="3" orient="auto" markerUnits="strokeWidth"><path d="M0,0 L0,6 L9,3 z" fill="#2196F3"/></marker>
</defs>
<text x="400" y="38" text-anchor="middle" font-size="22" font-weight="700" fill="#1a202c">Java 内存模型 (JMM)</text>
<line x1="40" y1="56" x2="760" y2="56" stroke="#607D8B" stroke-width="1" stroke-dasharray="4,3" opacity="0.4"/>
<rect x="40" y="110" width="220" height="340" rx="8" ry="8" fill="#E3F2FD" stroke="#2196F3" stroke-width="2" opacity="1.0"/><text x="150" y="135" text-anchor="middle" font-size="15" font-weight="700" fill="#2196F3">主内存 (Main Memory)</text><rect x="60" y="160" width="180" height="50" rx="6" ry="6" fill="#BBDEFB" stroke="#2196F3" stroke-width="1.5" opacity="1.0"/><text x="150" y="180" text-anchor="middle" font-size="12" font-weight="700" fill="#0D47A1">共享变量</text><text x="150" y="198" text-anchor="middle" font-size="10" font-weight="normal" fill="#1565C0" font-style="italic">static field / heap</text><rect x="60" y="230" width="180" height="50" rx="6" ry="6" fill="#BBDEFB" stroke="#2196F3" stroke-width="1.5" opacity="1.0"/><text x="150" y="250" text-anchor="middle" font-size="12" font-weight="700" fill="#0D47A1">实例字段</text><text x="150" y="268" text-anchor="middle" font-size="10" font-weight="normal" fill="#1565C0" font-style="italic">instance fields</text><rect x="60" y="300" width="180" height="50" rx="6" ry="6" fill="#BBDEFB" stroke="#2196F3" stroke-width="1.5" opacity="1.0"/><text x="150" y="320" text-anchor="middle" font-size="12" font-weight="700" fill="#0D47A1">数组元素</text><text x="150" y="338" text-anchor="middle" font-size="10" font-weight="normal" fill="#1565C0" font-style="italic">array elements</text><text x="150" y="400" text-anchor="middle" font-size="11" font-weight="normal" fill="#607D8B" font-style="italic">所有线程共享</text><rect x="420" y="110" width="320" height="150" rx="8" ry="8" fill="#4CAF5018" stroke="#4CAF50" stroke-width="2" opacity="1.0"/><text x="580" y="135" text-anchor="middle" font-size="14" font-weight="700" fill="#4CAF50">线程 1</text><rect x="440" y="155" width="130" height="40" rx="6" ry="6" fill="#FAFAFA" stroke="#4CAF50" stroke-width="1.5" opacity="1.0"/><text x="505" y="170" text-anchor="middle" font-size="11" font-weight="700" fill="#4CAF50">工作内存</text><text x="505" y="188" text-anchor="middle" font-size="9" font-weight="normal" fill="#607D8B" font-style="italic">Working Memory</text><rect x="580" y="155" width="140" height="40" rx="6" ry="6" fill="#FAFAFA" stroke="#4CAF50" stroke-width="1.5" opacity="1.0"/><text x="650" y="170" text-anchor="middle" font-size="11" font-weight="700" fill="#4CAF50">执行引擎</text><text x="650" y="188" text-anchor="middle" font-size="9" font-weight="normal" fill="#607D8B" font-style="italic">CPU Registers</text><text x="580" y="220" text-anchor="middle" font-size="10" font-weight="normal" fill="#37474F" font-style="italic">变量副本 + 操作缓冲</text><rect x="420" y="280" width="320" height="150" rx="8" ry="8" fill="#FF980018" stroke="#FF9800" stroke-width="2" opacity="1.0"/><text x="580" y="305" text-anchor="middle" font-size="14" font-weight="700" fill="#FF9800">线程 2</text><rect x="440" y="325" width="130" height="40" rx="6" ry="6" fill="#FAFAFA" stroke="#FF9800" stroke-width="1.5" opacity="1.0"/><text x="505" y="340" text-anchor="middle" font-size="11" font-weight="700" fill="#FF9800">工作内存</text><text x="505" y="358" text-anchor="middle" font-size="9" font-weight="normal" fill="#607D8B" font-style="italic">Working Memory</text><rect x="580" y="325" width="140" height="40" rx="6" ry="6" fill="#FAFAFA" stroke="#FF9800" stroke-width="1.5" opacity="1.0"/><text x="650" y="340" text-anchor="middle" font-size="11" font-weight="700" fill="#FF9800">执行引擎</text><text x="650" y="358" text-anchor="middle" font-size="9" font-weight="normal" fill="#607D8B" font-style="italic">CPU Registers</text><text x="580" y="390" text-anchor="middle" font-size="10" font-weight="normal" fill="#37474F" font-style="italic">变量副本 + 操作缓冲</text><line x1="260" y1="180" x2="420" y2="175" stroke="#4CAF50" stroke-width="2" marker-end="url(#arrow)"/><text x="340" y="168" text-anchor="middle" font-size="10" font-weight="600" fill="#4CAF50">read/load</text><line x1="420" y1="195" x2="260" y2="215" stroke="#4CAF50" stroke-width="2" marker-end="url(#arrowG)"/><text x="340" y="235" text-anchor="middle" font-size="10" font-weight="600" fill="#4CAF50">store/write</text><line x1="260" y1="340" x2="420" y2="340" stroke="#FF9800" stroke-width="2" marker-end="url(#arrow)"/><text x="340" y="332" text-anchor="middle" font-size="10" font-weight="600" fill="#FF9800">read/load</text><line x1="420" y1="360" x2="260" y2="380" stroke="#FF9800" stroke-width="2" marker-end="url(#arrow)"/><text x="340" y="395" text-anchor="middle" font-size="10" font-weight="600" fill="#FF9800">store/write</text><text x="400" y="470" text-anchor="middle" font-size="12" font-weight="600" fill="#9C27B0" font-style="italic">8 大原子操作 + happens-before 保证可见性与有序性</text></svg>
