<svg xmlns="http://www.w3.org/2000/svg" viewBox="0 0 800 500"><defs><marker id="arr" markerWidth="10" markerHeight="10" refX="8" refY="5" orient="auto" markerUnits="strokeWidth"><path d="M0,0 L0,10 L9,5 z" fill="#607D8B"/></marker></defs><rect width="800" height="500" fill="#fafafa"/><text x="400" y="35" font-family="system-ui,-apple-system,sans-serif" font-size="18" font-weight="700" text-anchor="middle" fill="#333">Java线程池工作流程 (execute)</text><ellipse cx="400" cy="75" rx="50" ry="20" fill="#E3F2FD" stroke="#2196F3" stroke-width="2"/><text x="400" y="80" font-family="system-ui,sans-serif" font-size="13" font-weight="600" text-anchor="middle" fill="#2196F3">提交任务</text><path d="M 400 95 L 400 130" stroke="#607D8B" stroke-width="2" fill="none" marker-end="url(#arr)"/><polygon points="400,130 470,165 400,200 330,165" fill="#FFF3E0" stroke="#FF9800" stroke-width="2"/><text x="400" y="160" font-family="system-ui,sans-serif" font-size="13" text-anchor="middle" fill="#FF9800">当前线程数 &lt;</text><text x="400" y="178" font-family="system-ui,sans-serif" font-size="13" text-anchor="middle" fill="#FF9800">corePoolSize?</text><path d="M 330 165 L 210 165 L 210 240" stroke="#607D8B" stroke-width="2" fill="none" marker-end="url(#arr)"/><text x="250" y="155" font-family="system-ui,sans-serif" font-size="12" font-weight="600" text-anchor="middle" fill="#4CAF50">是</text><rect x="100" y="240" width="220" height="60" rx="8" fill="#E8F5E9" stroke="#4CAF50" stroke-width="2"/><text x="210" y="265" font-family="system-ui,sans-serif" font-size="13" font-weight="600" text-anchor="middle" fill="#4CAF50">创建核心线程执行任务</text><text x="210" y="285" font-family="system-ui,sans-serif" font-size="12" text-anchor="middle" fill="#607D8B">(正式员工)</text><path d="M 470 165 L 590 165 L 590 240" stroke="#607D8B" stroke-width="2" fill="none" marker-end="url(#arr)"/><text x="540" y="155" font-family="system-ui,sans-serif" font-size="12" font-weight="600" text-anchor="middle" fill="#FF9800">否</text><polygon points="590,240 660,275 590,310 520,275" fill="#FFF3E0" stroke="#FF9800" stroke-width="2"/><text x="590" y="270" font-family="system-ui,sans-serif" font-size="13" text-anchor="middle" fill="#FF9800">阻塞队列</text><text x="590" y="288" font-family="system-ui,sans-serif" font-size="13" text-anchor="middle" fill="#FF9800">已满?</text><path d="M 520 275 L 400 275 L 400 340" stroke="#607D8B" stroke-width="2" fill="none" marker-end="url(#arr)"/><text x="460" y="265" font-family="system-ui,sans-serif" font-size="12" text-anchor="middle" fill="#9C27B0">否(排队)</text><rect x="320" y="340" width="160" height="50" rx="8" fill="#F3E5F5" stroke="#9C27B0" stroke-width="2"/><text x="400" y="370" font-family="system-ui,sans-serif" font-size="13" font-weight="600" text-anchor="middle" fill="#9C27B0">加入工作队列</text><path d="M 660 275 L 710 275 L 710 340" stroke="#607D8B" stroke-width="2" fill="none" marker-end="url(#arr)"/><text x="695" y="265" font-family="system-ui,sans-serif" font-size="12" font-weight="600" text-anchor="middle" fill="#FF9800">是</text><polygon points="710,340 770,375 710,410 650,375" fill="#FFF3E0" stroke="#FF9800" stroke-width="2"/><text x="710" y="370" font-family="system-ui,sans-serif" font-size="13" text-anchor="middle" fill="#FF9800">达最大</text><text x="710" y="388" font-family="system-ui,sans-serif" font-size="13" text-anchor="middle" fill="#FF9800">线程数?</text><path d="M 710 410 L 710 445 L 540 445" stroke="#607D8B" stroke-width="2" fill="none" marker-end="url(#arr)"/><text x="745" y="435" font-family="system-ui,sans-serif" font-size="12" font-weight="600" text-anchor="middle" fill="#f44336">是</text><rect x="340" y="420" width="200" height="50" rx="8" fill="#FFEBEE" stroke="#f44336" stroke-width="2"/><text x="440" y="445" font-family="system-ui,sans-serif" font-size="13" font-weight="600" text-anchor="middle" fill="#f44336">触发拒绝策略</text><text x="440" y="463" font-family="system-ui,sans-serif" font-size="12" text-anchor="middle" fill="#f44336">(系统保护机制)</text><path d="M 650 375 L 430 375 L 430 340" stroke="#607D8B" stroke-width="2" fill="none" marker-end="url(#arr)"/><text x="540" y="365" font-family="system-ui,sans-serif" font-size="12" font-weight="600" text-anchor="middle" fill="#4CAF50">否(扩容)</text><rect x="510" y="280" width="120" height="60" rx="8" fill="#E8F5E9" stroke="#4CAF50" stroke-width="2"/><text x="570" y="305" font-family="system-ui,sans-serif" font-size="13" font-weight="600" text-anchor="middle" fill="#4CAF50">创建非核心线程</text><text x="570" y="325" font-family="system-ui,sans-serif" font-size="12" text-anchor="middle" fill="#607D8B">(临时工)</text><rect x="10" y="410" width="160" height="80" rx="4" fill="#FFEBEE" stroke="#f44336" stroke-width="1" stroke-dasharray="4"/><text x="90" y="430" font-family="system-ui,sans-serif" font-size="13" font-weight="700" text-anchor="middle" fill="#f44336">实战风险提示</text><text x="90" y="450" font-family="system-ui,sans-serif" font-size="12" text-anchor="middle" fill="#333">无界队列永不满</text><text x="90" y="468" font-family="system-ui,sans-serif" font-size="12" text-anchor="middle" fill="#333">导致OOM/拒绝失效</text></svg>
