<svg xmlns="http://www.w3.org/2000/svg" viewBox="0 0 800 500" font-family="-apple-system, BlinkMacSystemFont, 'PingFang SC', 'Microsoft YaHei', sans-serif">
<rect width="800" height="500" fill="#FAFBFC"/>
<rect x="0" y="0" width="800" height="64" fill="#2196F3"/>
<rect x="0" y="0" width="8" height="64" fill="#FF9800"/>
<text x="28" y="40" font-size="22" font-weight="700" fill="#FFFFFF" text-rendering="geometricPrecision">Object类的常见方法有哪些是什么？</text>
<text x="28" y="552" font-size="0"></text>
<text x="28" y="92" font-size="14" fill="#37474F" font-style="italic">核心：Java所有类的根类，定义了对象的基础行为和通用方法。</text>
<!-- BODY_TOP=110 -->
<defs>
<marker id="arrow" viewBox="0 0 10 10" refX="9" refY="5" markerWidth="7" markerHeight="7" orient="auto-start-reverse">
  <path d="M0,0 L10,5 L0,10 z" fill="#455A64"/>
</marker>
<marker id="arrowG" viewBox="0 0 10 10" refX="9" refY="5" markerWidth="7" markerHeight="7" orient="auto-start-reverse">
  <path d="M0,0 L10,5 L0,10 z" fill="#4CAF50"/>
</marker>
</defs>
<rect x="240" y="116" width="320" height="48" rx="8" fill="#FFFFFF" stroke="#2196F3" stroke-width="2"/>
<text x="400" y="131" font-size="15" fill="#263238" text-anchor="middle" dominant-baseline="middle" font-weight="600">equals和hashCode需同</text>
<text x="400" y="149" font-size="15" fill="#263238" text-anchor="middle" dominant-baseline="middle" font-weight="600">时重写</text>
<rect x="240" y="194" width="320" height="48" rx="8" fill="#FFFFFF" stroke="#4CAF50" stroke-width="2"/>
<text x="400" y="209" font-size="15" fill="#263238" text-anchor="middle" dominant-baseline="middle" font-weight="600">clone用于对象拷贝（</text>
<text x="400" y="227" font-size="15" fill="#263238" text-anchor="middle" dominant-baseline="middle" font-weight="600">需实现Cloneable）</text>
<rect x="240" y="272" width="320" height="48" rx="8" fill="#FFFFFF" stroke="#FF9800" stroke-width="2"/>
<text x="400" y="287" font-size="15" fill="#263238" text-anchor="middle" dominant-baseline="middle" font-weight="600">wait/notify/notifyAl</text>
<text x="400" y="305" font-size="15" fill="#263238" text-anchor="middle" dominant-baseline="middle" font-weight="600">l用于线程同步</text>
<rect x="240" y="350" width="320" height="48" rx="8" fill="#FFFFFF" stroke="#9C27B0" stroke-width="2"/>
<text x="400" y="365" font-size="15" fill="#263238" text-anchor="middle" dominant-baseline="middle" font-weight="600">toString默认返回类名</text>
<text x="400" y="383" font-size="15" fill="#263238" text-anchor="middle" dominant-baseline="middle" font-weight="600">+哈希码</text>
<rect x="240" y="428" width="320" height="48" rx="8" fill="#FFFFFF" stroke="#f44336" stroke-width="2"/>
<text x="400" y="443" font-size="15" fill="#263238" text-anchor="middle" dominant-baseline="middle" font-weight="600">getClass返回运行时Cl</text>
<text x="400" y="461" font-size="15" fill="#263238" text-anchor="middle" dominant-baseline="middle" font-weight="600">ass对象</text>
<line x1="400" y1="164" x2="400" y2="194" stroke="#455A64" stroke-width="2" marker-end="url(#arrow)"/>
<line x1="400" y1="242" x2="400" y2="272" stroke="#455A64" stroke-width="2" marker-end="url(#arrow)"/>
<line x1="400" y1="320" x2="400" y2="350" stroke="#455A64" stroke-width="2" marker-end="url(#arrow)"/>
<line x1="400" y1="398" x2="400" y2="428" stroke="#455A64" stroke-width="2" marker-end="url(#arrow)"/>
</svg>