<svg xmlns="http://www.w3.org/2000/svg" viewBox="0 0 800 500" font-family="-apple-system, BlinkMacSystemFont, 'PingFang SC', 'Microsoft YaHei', sans-serif">
<rect width="800" height="500" fill="#FAFBFC"/>
<rect x="0" y="0" width="800" height="64" fill="#2196F3"/>
<rect x="0" y="0" width="8" height="64" fill="#FF9800"/>
<text x="28" y="40" font-size="22" font-weight="700" fill="#FFFFFF" text-rendering="geometricPrecision">【Java 后端架构师】Kafka 分区、副本与消费语义</text>
<text x="28" y="552" font-size="0"></text>
<text x="28" y="92" font-size="14" fill="#37474F" font-style="italic">核心：Kafka 把一个 Topic 切成多个 Partition 分布在不同 Broker 上做并行，每个 Partitio…</text>
<!-- BODY_TOP=110 -->
<defs>
<marker id="arrow" viewBox="0 0 10 10" refX="9" refY="5" markerWidth="7" markerHeight="7" orient="auto-start-reverse">
  <path d="M0,0 L10,5 L0,10 z" fill="#455A64"/>
</marker>
<marker id="arrowG" viewBox="0 0 10 10" refX="9" refY="5" markerWidth="7" markerHeight="7" orient="auto-start-reverse">
  <path d="M0,0 L10,5 L0,10 z" fill="#4CAF50"/>
</marker>
</defs>
<rect x="40" y="190" width="100" height="60" rx="8" fill="#4CAF5022" stroke="#4CAF50" stroke-width="2"/>
<text x="90" y="213" font-size="12" fill="#263238" text-anchor="middle" dominant-baseline="middle" font-weight="600">Producer</text>
<text x="90" y="227" font-size="12" fill="#263238" text-anchor="middle" dominant-baseline="middle" font-weight="600">生产者</text>
<rect x="160" y="120" width="480" height="180" rx="10" fill="#2196F311" stroke="#2196F3" stroke-width="2"/>
<text x="400" y="144" font-size="14" fill="#2196F3" text-anchor="middle" font-weight="700">Kafka Cluster</text>
<text x="180" y="170" font-size="11" fill="#9C27B0" font-weight="700">Topic: order-events  ·  Partition=3  ·  Replication=2</text>
<rect x="180" y="186" width="140" height="100" rx="8" fill="#FFFFFF" stroke="#2196F3" stroke-width="2"/>
<text x="250" y="224" font-size="10" fill="#263238" text-anchor="middle" dominant-baseline="middle" font-weight="600">Broker 1</text>
<text x="250" y="236" font-size="10" fill="#263238" text-anchor="middle" dominant-baseline="middle" font-weight="600">Leader: P0</text>
<text x="250" y="248" font-size="10" fill="#263238" text-anchor="middle" dominant-baseline="middle" font-weight="600">Follower: P1</text>
<rect x="330" y="186" width="140" height="100" rx="8" fill="#FFFFFF" stroke="#2196F3" stroke-width="2"/>
<text x="400" y="224" font-size="10" fill="#263238" text-anchor="middle" dominant-baseline="middle" font-weight="600">Broker 2</text>
<text x="400" y="236" font-size="10" fill="#263238" text-anchor="middle" dominant-baseline="middle" font-weight="600">Leader: P1</text>
<text x="400" y="248" font-size="10" fill="#263238" text-anchor="middle" dominant-baseline="middle" font-weight="600">Follower: P2</text>
<rect x="480" y="186" width="140" height="100" rx="8" fill="#FFFFFF" stroke="#2196F3" stroke-width="2"/>
<text x="550" y="224" font-size="10" fill="#263238" text-anchor="middle" dominant-baseline="middle" font-weight="600">Broker 3</text>
<text x="550" y="236" font-size="10" fill="#263238" text-anchor="middle" dominant-baseline="middle" font-weight="600">Leader: P2</text>
<text x="550" y="248" font-size="10" fill="#263238" text-anchor="middle" dominant-baseline="middle" font-weight="600">Follower: P0</text>
<line x1="140" y1="220" x2="180" y2="220" stroke="#455A64" stroke-width="2" marker-end="url(#arrow)"/>
<text x="160" y="214" font-size="11" fill="#455A64" text-anchor="middle" font-weight="600">send</text>
<rect x="160" y="320" width="480" height="70" rx="8" fill="#FF980011" stroke="#FF9800" stroke-width="2"/>
<text x="180" y="342" font-size="12" fill="#FF9800" font-weight="700">Consumer Group: 各消费者各自消费不同分区</text>
<rect x="200" y="350" width="120" height="30" rx="8" fill="#FFFFFF" stroke="#FF9800" stroke-width="2"/>
<text x="260" y="359" font-size="10" fill="#263238" text-anchor="middle" dominant-baseline="middle" font-weight="600">Consumer 1</text>
<text x="260" y="371" font-size="10" fill="#263238" text-anchor="middle" dominant-baseline="middle" font-weight="600">← P0</text>
<rect x="340" y="350" width="120" height="30" rx="8" fill="#FFFFFF" stroke="#FF9800" stroke-width="2"/>
<text x="400" y="359" font-size="10" fill="#263238" text-anchor="middle" dominant-baseline="middle" font-weight="600">Consumer 2</text>
<text x="400" y="371" font-size="10" fill="#263238" text-anchor="middle" dominant-baseline="middle" font-weight="600">← P1</text>
<rect x="480" y="350" width="120" height="30" rx="8" fill="#FFFFFF" stroke="#FF9800" stroke-width="2"/>
<text x="540" y="359" font-size="10" fill="#263238" text-anchor="middle" dominant-baseline="middle" font-weight="600">Consumer 3</text>
<text x="540" y="371" font-size="10" fill="#263238" text-anchor="middle" dominant-baseline="middle" font-weight="600">← P2</text>
<line x1="400" y1="300" x2="400" y2="320" stroke="#FF9800" stroke-width="2" marker-end="url(#arrow)"/>
<text x="400" y="304" font-size="11" fill="#FF9800" text-anchor="middle" font-weight="600">consume</text>
<rect x="60" y="410" width="680" height="150" rx="8" fill="#FFFFFF" stroke="#607D8B" stroke-width="1.5"/>
<text x="80" y="434" font-size="13" fill="#607D8B" font-weight="700">核心机制</text>
<circle cx="86" cy="456" r="5" fill="#4CAF50"/>
<text x="100" y="460" font-size="12" fill="#37474F"><tspan fill="#4CAF50" font-weight="700">高吞吐：</tspan>顺序写盘 + 零拷贝(sendfile)</text>
<circle cx="426" cy="456" r="5" fill="#2196F3"/>
<text x="440" y="460" font-size="12" fill="#37474F"><tspan fill="#2196F3" font-weight="700">高可用：</tspan>副本机制 + ISR + Leader 选举</text>
<circle cx="86" cy="492" r="5" fill="#FF9800"/>
<text x="100" y="496" font-size="12" fill="#37474F"><tspan fill="#FF9800" font-weight="700">顺序保证：</tspan>单分区内有序，跨分区无序</text>
<circle cx="426" cy="492" r="5" fill="#9C27B0"/>
<text x="440" y="496" font-size="12" fill="#37474F"><tspan fill="#9C27B0" font-weight="700">Exactly-Once：</tspan>幂等+事务</text>
<circle cx="86" cy="528" r="5" fill="#f44336"/>
<text x="100" y="532" font-size="12" fill="#37474F"><tspan fill="#f44336" font-weight="700">Offset 管理：</tspan>__consumer_offsets</text>
<circle cx="426" cy="528" r="5" fill="#607D8B"/>
<text x="440" y="532" font-size="12" fill="#37474F"><tspan fill="#607D8B" font-weight="700">ZK/KRaft：</tspan>Kafka 3.x 去 ZK</text>
</svg>