<?xml version="1.0" encoding="UTF-8"?>
<svg xmlns="http://www.w3.org/2000/svg" viewBox="0 0 800 600" font-family="system-ui, -apple-system, Segoe UI, Roboto, sans-serif">
<defs>
  <marker id="arrow" markerWidth="10" markerHeight="10" refX="9" refY="3" orient="auto" markerUnits="strokeWidth"><path d="M0,0 L0,6 L9,3 z" fill="#37474F"/></marker>
  <marker id="arrowR" markerWidth="10" markerHeight="10" refX="9" refY="3" orient="auto" markerUnits="strokeWidth"><path d="M0,0 L0,6 L9,3 z" fill="#f44336"/></marker>
  <marker id="arrowG" markerWidth="10" markerHeight="10" refX="9" refY="3" orient="auto" markerUnits="strokeWidth"><path d="M0,0 L0,6 L9,3 z" fill="#4CAF50"/></marker>
  <marker id="arrowB" markerWidth="10" markerHeight="10" refX="9" refY="3" orient="auto" markerUnits="strokeWidth"><path d="M0,0 L0,6 L9,3 z" fill="#2196F3"/></marker>
</defs>
<text x="400" y="38" text-anchor="middle" font-size="22" font-weight="700" fill="#1a202c">HotSpot 垃圾收集器谱系</text>
<line x1="40" y1="56" x2="760" y2="56" stroke="#607D8B" stroke-width="1" stroke-dasharray="4,3" opacity="0.4"/>
<text x="200" y="100" text-anchor="middle" font-size="15" font-weight="700" fill="#4CAF50">新生代 (Young)</text><text x="600" y="100" text-anchor="middle" font-size="15" font-weight="700" fill="#f44336">老年代 (Old)</text><rect x="60" y="130" width="240" height="56" rx="6" ry="6" fill="#81C784" stroke="#4CAF50" stroke-width="1.5" opacity="1.0"/><text x="180" y="155" text-anchor="middle" font-size="14" font-weight="700" fill="#1B5E20">Serial</text><rect x="440" y="130" width="240" height="56" rx="6" ry="6" fill="#E57373" stroke="#f44336" stroke-width="1.5" opacity="1.0"/><text x="560" y="155" text-anchor="middle" font-size="14" font-weight="700" fill="#B71C1C">Serial Old</text><line x1="300" y1="158" x2="440" y2="158" stroke="#607D8B" stroke-width="1.5" marker-end="url(#arrow)"/><text x="370" y="152" text-anchor="middle" font-size="11" font-weight="normal" fill="#607D8B">搭配</text><text x="700" y="155" text-anchor="start" font-size="10" font-weight="normal" fill="#607D8B">单线程，Client 默认</text><rect x="60" y="200" width="240" height="56" rx="6" ry="6" fill="#A5D6A7" stroke="#4CAF50" stroke-width="1.5" opacity="1.0"/><text x="180" y="225" text-anchor="middle" font-size="14" font-weight="700" fill="#1B5E20">ParNew</text><rect x="440" y="200" width="240" height="56" rx="6" ry="6" fill="#FF8A65" stroke="#f44336" stroke-width="1.5" opacity="1.0"/><text x="560" y="225" text-anchor="middle" font-size="14" font-weight="700" fill="#B71C1C">CMS</text><line x1="300" y1="228" x2="440" y2="228" stroke="#607D8B" stroke-width="1.5" marker-end="url(#arrow)"/><text x="370" y="222" text-anchor="middle" font-size="11" font-weight="normal" fill="#607D8B">搭配</text><text x="700" y="225" text-anchor="start" font-size="10" font-weight="normal" fill="#607D8B">CMS 配套，低停顿</text><rect x="60" y="270" width="240" height="56" rx="6" ry="6" fill="#66BB6A" stroke="#4CAF50" stroke-width="1.5" opacity="1.0"/><text x="180" y="295" text-anchor="middle" font-size="14" font-weight="700" fill="#1B5E20">Parallel Scavenge</text><rect x="440" y="270" width="240" height="56" rx="6" ry="6" fill="#EF5350" stroke="#f44336" stroke-width="1.5" opacity="1.0"/><text x="560" y="295" text-anchor="middle" font-size="14" font-weight="700" fill="#B71C1C">Parallel Old</text><line x1="300" y1="298" x2="440" y2="298" stroke="#607D8B" stroke-width="1.5" marker-end="url(#arrow)"/><text x="370" y="292" text-anchor="middle" font-size="11" font-weight="normal" fill="#607D8B">搭配</text><text x="700" y="295" text-anchor="start" font-size="10" font-weight="normal" fill="#607D8B">高吞吐量</text><rect x="60" y="340" width="240" height="56" rx="6" ry="6" fill="#43A047" stroke="#4CAF50" stroke-width="1.5" opacity="1.0"/><text x="180" y="365" text-anchor="middle" font-size="14" font-weight="700" fill="#1B5E20">G1</text><rect x="440" y="340" width="240" height="56" rx="6" ry="6" fill="#E53935" stroke="#f44336" stroke-width="1.5" opacity="1.0"/><text x="560" y="365" text-anchor="middle" font-size="14" font-weight="700" fill="#B71C1C">G1</text><line x1="300" y1="368" x2="440" y2="368" stroke="#607D8B" stroke-width="1.5" marker-end="url(#arrow)"/><text x="370" y="362" text-anchor="middle" font-size="11" font-weight="normal" fill="#607D8B">搭配</text><text x="700" y="365" text-anchor="start" font-size="10" font-weight="normal" fill="#607D8B">Region 化，可预测停顿</text><rect x="60" y="410" width="240" height="56" rx="6" ry="6" fill="#00897B" stroke="#4CAF50" stroke-width="1.5" opacity="1.0"/><text x="180" y="435" text-anchor="middle" font-size="14" font-weight="700" fill="#1B5E20">ZGC / Shenandoah</text><rect x="440" y="410" width="240" height="56" rx="6" ry="6" fill="#C62828" stroke="#f44336" stroke-width="1.5" opacity="1.0"/><text x="560" y="435" text-anchor="middle" font-size="14" font-weight="700" fill="#B71C1C">ZGC / Shenandoah</text><line x1="300" y1="438" x2="440" y2="438" stroke="#607D8B" stroke-width="1.5" marker-end="url(#arrow)"/><text x="370" y="432" text-anchor="middle" font-size="11" font-weight="normal" fill="#607D8B">搭配</text><text x="700" y="435" text-anchor="start" font-size="10" font-weight="normal" fill="#607D8B">亚毫秒级停顿</text></svg>
