<svg xmlns="http://www.w3.org/2000/svg" viewBox="0 0 800 500" style="max-width:100%;height:auto;font-family:system-ui,-apple-system,'PingFang SC',sans-serif;">

  <defs>
    <marker id="arr" markerWidth="10" markerHeight="8" refX="9" refY="4" orient="auto">
      <path d="M0,0 L10,4 L0,8 Z" fill="#666"/>
    </marker>
    <marker id="arrg" markerWidth="10" markerHeight="8" refX="9" refY="4" orient="auto">
      <path d="M0,0 L10,4 L0,8 Z" fill="#4CAF50"/>
    </marker>
    <marker id="arro" markerWidth="10" markerHeight="8" refX="9" refY="4" orient="auto">
      <path d="M0,0 L10,4 L0,8 Z" fill="#FF9800"/>
    </marker>
    <marker id="arrr" markerWidth="10" markerHeight="8" refX="9" refY="4" orient="auto">
      <path d="M0,0 L10,4 L0,8 Z" fill="#f44336"/>
    </marker>
  </defs>

  <rect width="800" height="500" rx="12" fill="#fafafa" stroke="#e0e0e0"/>
  <text x="400" y="36" text-anchor="middle" font-size="18" font-weight="700" fill="#263238">LVS NAT模式的工作原理是什么？</text>
  <line x1="60" y1="52" x2="740" y2="52" stroke="#e0e0e0" stroke-width="1"/>
  <text x="400" y="82" text-anchor="middle" font-size="13" fill="#607D8B">通过修改IP地址实现转发，所有流量都经过负载均衡器。</text>
  <rect x="25" y="210" width="110" height="60" rx="10" fill="#ECEFF1" stroke="#607D8B" stroke-width="2"/>
  <text x="80" y="235" text-anchor="middle" font-size="13" font-weight="700" fill="#37474F">客户端</text>
  <text x="80" y="254" text-anchor="middle" font-size="11" fill="#37474F">Web/App</text>
  <rect x="280" y="120" width="240" height="290" rx="10" fill="#FFF8E1" stroke="#FF9800" stroke-width="2"/>
  <text x="400" y="148" text-anchor="middle" font-size="14" font-weight="700" fill="#E65100">API Gateway</text>
  <line x1="300" y1="160" x2="500" y2="160" stroke="#FF9800" stroke-width="1"/>
  <rect x="300" y="173" width="200" height="28" rx="4" fill="#E3F2FD" stroke="#2196F3" stroke-width="1.5"/>
  <text x="400" y="190" text-anchor="middle" font-size="11" font-weight="700" fill="#1565C0">路由转发 · Route</text>
  <rect x="300" y="213" width="200" height="28" rx="4" fill="#F3E5F5" stroke="#9C27B0" stroke-width="1.5"/>
  <text x="400" y="230" text-anchor="middle" font-size="11" font-weight="700" fill="#6A1B9A">鉴权认证 · Auth</text>
  <rect x="300" y="253" width="200" height="28" rx="4" fill="#FFEBEE" stroke="#f44336" stroke-width="1.5"/>
  <text x="400" y="270" text-anchor="middle" font-size="11" font-weight="700" fill="#C62828">限流熔断 · RateLimit</text>
  <rect x="300" y="293" width="200" height="28" rx="4" fill="#FFF3E0" stroke="#FF9800" stroke-width="1.5"/>
  <text x="400" y="310" text-anchor="middle" font-size="11" font-weight="700" fill="#E65100">日志监控 · Log</text>
  <rect x="300" y="333" width="200" height="28" rx="4" fill="#E8F5E9" stroke="#4CAF50" stroke-width="1.5"/>
  <text x="400" y="350" text-anchor="middle" font-size="11" font-weight="700" fill="#2E7D32">协议转换 · HTTP→RPC</text>
  <rect x="300" y="373" width="200" height="28" rx="4" fill="#ECEFF1" stroke="#607D8B" stroke-width="1.5"/>
  <text x="400" y="390" text-anchor="middle" font-size="11" font-weight="700" fill="#37474F">灰度发布 · Canary</text>
  <rect x="630" y="135" width="100" height="50" rx="10" fill="#E3F2FD" stroke="#2196F3" stroke-width="2"/>
  <text x="680" y="155" text-anchor="middle" font-size="13" font-weight="700" fill="#1565C0">服务-1</text>
  <text x="680" y="174" text-anchor="middle" font-size="11" fill="#1565C0">Service</text>
  <rect x="630" y="265" width="100" height="50" rx="10" fill="#E3F2FD" stroke="#2196F3" stroke-width="2"/>
  <text x="680" y="285" text-anchor="middle" font-size="13" font-weight="700" fill="#1565C0">服务-2</text>
  <text x="680" y="304" text-anchor="middle" font-size="11" fill="#1565C0">Service</text>
  <rect x="630" y="395" width="100" height="50" rx="10" fill="#E3F2FD" stroke="#2196F3" stroke-width="2"/>
  <text x="680" y="415" text-anchor="middle" font-size="13" font-weight="700" fill="#1565C0">服务-3</text>
  <text x="680" y="434" text-anchor="middle" font-size="11" fill="#1565C0">Service</text>
  <line x1="190" y1="240" x2="280" y2="240" stroke="#666" stroke-width="2" marker-end="url(#arr)"/>
  <line x1="520" y1="180" x2="630" y2="160" stroke="#666" stroke-width="2" marker-end="url(#arr)"/>
  <line x1="520" y1="265" x2="630" y2="290" stroke="#666" stroke-width="2" marker-end="url(#arr)"/>
  <line x1="520" y1="350" x2="630" y2="420" stroke="#666" stroke-width="2" marker-end="url(#arr)"/>
  <text x="220" y="230" font-size="10" font-weight="600" fill="#607D8B">请求</text>
  <text x="550" y="170" font-size="10" font-weight="600" fill="#FF9800">分发</text>
  <text x="400" y="486" text-anchor="middle" font-size="10" fill="#999" font-style="italic">Spring Cloud Gateway / Kong / APISIX：统一流量入口 + 横切关注点</text>
</svg>
