<svg xmlns="http://www.w3.org/2000/svg" viewBox="0 0 800 500" style="max-width:100%;height:auto;font-family:'PingFang SC','Microsoft YaHei',system-ui,sans-serif;background:#fafafa;">
<defs><marker id="arr" markerWidth="10" markerHeight="8" refX="9" refY="4" orient="auto"><path d="M0,0 L10,4 L0,8 Z" fill="#90A4AE"/></marker><filter id="shadow" x="-20%" y="-20%" width="140%" height="140%"><feDropShadow dx="0" dy="2" stdDeviation="2" flood-opacity="0.12"/></filter></defs>
<rect width="800" height="500" fill="#fafafa" rx="8"/>
<rect x="0" y="0" width="800" height="6" fill="#2196F3" rx="3"/>
<text x="400.0" y="48" text-anchor="middle" font-size="22" font-weight="700" fill="#263238">高可用——预案、回滚、应急响应怎么做？</text>
<line x1="80" y1="68" x2="720" y2="68" stroke="#E0E0E0" stroke-width="1"/>
<text x="400.0" y="92" text-anchor="middle" font-size="13" fill="#546E7A" font-style="italic">预案是故障前的&quot;剧本&quot;（提前规划如何应对）、回滚是故障时的&quot;逃生通道&quot;（快速恢复）、应急响应是故障时的&quot;指挥系统&quot;（高效决策）。</text>
<line x1="385.0" y1="250.0" x2="411.0" y2="250.0" stroke="#90A4AE" stroke-width="2" marker-end="url(#arr)"/>
<line x1="385.0" y1="390.0" x2="411.0" y2="390.0" stroke="#90A4AE" stroke-width="2" marker-end="url(#arr)"/>
<path d="M 505.0 290 L 505.0 320.0 L 295.0 320.0 L 295.0 346" fill="none" stroke="#90A4AE" stroke-width="2" stroke-dasharray="5,3" marker-end="url(#arr)"/>
<rect x="205.0" y="210" width="180" height="80" rx="10" fill="#E4F2FD" stroke="#2196F3" stroke-width="2" filter="url(#shadow)"/>
<rect x="205.0" y="210" width="6" height="80" rx="3" fill="#2196F3"/>
<circle cx="367.0" cy="228" r="11" fill="#2196F3"/>
<text x="367.0" y="232" text-anchor="middle" font-size="12" font-weight="700" fill="#fff">1</text>
<text x="298.0" y="234.0" text-anchor="middle" font-size="13" font-weight="600" fill="#263238">预案分级：</text>
<text x="298.0" y="252.0" text-anchor="middle" font-size="13" font-weight="600" fill="#263238">P0/P1/P2/</text>
<text x="298.0" y="270.0" text-anchor="middle" font-size="13" font-weight="600" fill="#263238">P3</text>
<rect x="415.0" y="210" width="180" height="80" rx="10" fill="#F3E5F5" stroke="#9C27B0" stroke-width="2" filter="url(#shadow)"/>
<rect x="415.0" y="210" width="6" height="80" rx="3" fill="#9C27B0"/>
<circle cx="577.0" cy="228" r="11" fill="#9C27B0"/>
<text x="577.0" y="232" text-anchor="middle" font-size="12" font-weight="700" fill="#fff">2</text>
<text x="508.0" y="252.0" text-anchor="middle" font-size="13" font-weight="600" fill="#263238">回滚类型：代码回滚</text>
<rect x="205.0" y="350" width="180" height="80" rx="10" fill="#E9F5EA" stroke="#4CAF50" stroke-width="2" filter="url(#shadow)"/>
<rect x="205.0" y="350" width="6" height="80" rx="3" fill="#4CAF50"/>
<circle cx="367.0" cy="368" r="11" fill="#4CAF50"/>
<text x="367.0" y="372" text-anchor="middle" font-size="12" font-weight="700" fill="#fff">3</text>
<text x="298.0" y="374.0" text-anchor="middle" font-size="13" font-weight="600" fill="#263238">应急响应：发现→通</text>
<text x="298.0" y="392.0" text-anchor="middle" font-size="13" font-weight="600" fill="#263238">知→定位→止损→恢</text>
<text x="298.0" y="410.0" text-anchor="middle" font-size="13" font-weight="600" fill="#263238">复→复盘</text>
<rect x="415.0" y="350" width="180" height="80" rx="10" fill="#FFF2E0" stroke="#FF9800" stroke-width="2" filter="url(#shadow)"/>
<rect x="415.0" y="350" width="6" height="80" rx="3" fill="#FF9800"/>
<circle cx="577.0" cy="368" r="11" fill="#FF9800"/>
<text x="577.0" y="372" text-anchor="middle" font-size="12" font-weight="700" fill="#fff">4</text>
<text x="508.0" y="374.0" text-anchor="middle" font-size="13" font-weight="600" fill="#263238">SRE 黄金指标：</text>
<text x="508.0" y="392.0" text-anchor="middle" font-size="13" font-weight="600" fill="#263238">MTTD/MTTI</text>
<text x="508.0" y="410.0" text-anchor="middle" font-size="13" font-weight="600" fill="#263238">/MTT…</text>
<text x="40" y="464" font-size="12" fill="#78909C" font-weight="600">核心知识点流程图</text>
<rect x="220" y="452" width="14" height="14" rx="3" fill="#2196F3"/>
<text x="240" y="463" font-size="11" fill="#546E7A">蓝</text>
<rect x="290" y="452" width="14" height="14" rx="3" fill="#9C27B0"/>
<text x="310" y="463" font-size="11" fill="#546E7A">紫</text>
<rect x="360" y="452" width="14" height="14" rx="3" fill="#4CAF50"/>
<text x="380" y="463" font-size="11" fill="#546E7A">绿</text>
<rect x="430" y="452" width="14" height="14" rx="3" fill="#FF9800"/>
<text x="450" y="463" font-size="11" fill="#546E7A">橙</text>
<rect x="500" y="452" width="14" height="14" rx="3" fill="#f44336"/>
<text x="520" y="463" font-size="11" fill="#546E7A">红</text>
<rect x="570" y="452" width="14" height="14" rx="3" fill="#607D8B"/>
<text x="590" y="463" font-size="11" fill="#546E7A">灰</text>
<text x="760" y="464" text-anchor="end" font-size="11" fill="#90A4AE" font-style="italic">interview-2026</text>
</svg>