<?xml version="1.0" encoding="UTF-8"?>
<svg xmlns="http://www.w3.org/2000/svg" viewBox="0 0 800 500" font-family="system-ui, -apple-system, Segoe UI, Roboto, sans-serif">
<defs>
  <marker id="arrow" markerWidth="10" markerHeight="10" refX="9" refY="3" orient="auto" markerUnits="strokeWidth"><path d="M0,0 L0,6 L9,3 z" fill="#37474F"/></marker>
  <marker id="arrowR" markerWidth="10" markerHeight="10" refX="9" refY="3" orient="auto" markerUnits="strokeWidth"><path d="M0,0 L0,6 L9,3 z" fill="#f44336"/></marker>
  <marker id="arrowG" markerWidth="10" markerHeight="10" refX="9" refY="3" orient="auto" markerUnits="strokeWidth"><path d="M0,0 L0,6 L9,3 z" fill="#4CAF50"/></marker>
  <marker id="arrowB" markerWidth="10" markerHeight="10" refX="9" refY="3" orient="auto" markerUnits="strokeWidth"><path d="M0,0 L0,6 L9,3 z" fill="#2196F3"/></marker>
</defs>
<text x="400" y="38" text-anchor="middle" font-size="22" font-weight="700" fill="#1a202c">GraalVM Native Image 反射方案</text>
<line x1="40" y1="56" x2="760" y2="56" stroke="#607D8B" stroke-width="1" stroke-dasharray="4,3" opacity="0.4"/>
<rect x="40" y="100" width="720" height="60" rx="6" ry="6" fill="#E3F2FD" stroke="#2196F3" stroke-width="1.5" opacity="1.0"/><text x="400" y="125" text-anchor="middle" font-size="13" font-weight="700" fill="#2196F3">Native Image 构建时封闭世界分析 (Closed World)</text><text x="400" y="148" text-anchor="middle" font-size="11" font-weight="normal" fill="#1565C0" font-style="italic">反射类需提前告知，传统方案：手动 reflect-config.json</text><rect x="40" y="200" width="340" height="220" rx="6" ry="6" fill="#FFEBEE" stroke="#f44336" stroke-width="1.5" opacity="1.0"/><rect x="40" y="200" width="340" height="32" rx="6" ry="6" fill="#f44336" stroke="#f44336" stroke-width="1.5" opacity="1.0"/><text x="210" y="222" text-anchor="middle" font-size="12" font-weight="700" fill="#FFFFFF">传统方案: 手动配置</text><text x="60" y="260" text-anchor="start" font-size="11" font-weight="700" fill="#f44336">reflect-config.json</text><text x="80" y="282" text-anchor="start" font-size="11" font-weight="700" fill="#B71C1C">痛点:</text><text x="100" y="302" text-anchor="start" font-size="10" font-weight="normal" fill="#B71C1C">• 类名/方法易遗漏</text><text x="100" y="322" text-anchor="start" font-size="10" font-weight="normal" fill="#B71C1C">• 字段需逐个声明</text><text x="100" y="342" text-anchor="start" font-size="10" font-weight="normal" fill="#B71C1C">• 调试成本高</text><text x="100" y="362" text-anchor="start" font-size="10" font-weight="normal" fill="#B71C1C">• 框架集成复杂</text><text x="100" y="382" text-anchor="start" font-size="10" font-weight="normal" fill="#B71C1C">• 升级易踩坑</text><text x="100" y="405" text-anchor="start" font-size="11" font-weight="700" fill="#f44336">维护噩梦</text><rect x="420" y="200" width="340" height="220" rx="6" ry="6" fill="#E8F5E9" stroke="#4CAF50" stroke-width="1.5" opacity="1.0"/><rect x="420" y="200" width="340" height="32" rx="6" ry="6" fill="#4CAF50" stroke="#4CAF50" stroke-width="1.5" opacity="1.0"/><text x="590" y="222" text-anchor="middle" font-size="12" font-weight="700" fill="#FFFFFF">现代方案: 4 种替代</text><rect x="440" y="250" width="300" height="36" rx="6" ry="6" fill="#2196F318" stroke="#2196F3" stroke-width="1.5" opacity="1.0"/><text x="455" y="265" text-anchor="start" font-size="11" font-weight="700" fill="#2196F3">Tracing Agent</text><text x="455" y="280" text-anchor="start" font-size="9" font-weight="normal" fill="#37474F">运行时记录反射 → 自动生成配置</text><rect x="440" y="292" width="300" height="36" rx="6" ry="6" fill="#4CAF5018" stroke="#4CAF50" stroke-width="1.5" opacity="1.0"/><text x="455" y="307" text-anchor="start" font-size="11" font-weight="700" fill="#4CAF50">Runtime Hints API</text><text x="455" y="322" text-anchor="start" font-size="9" font-weight="normal" fill="#37474F">Spring 6+ 编程式声明 ReflectionHints</text><rect x="440" y="334" width="300" height="36" rx="6" ry="6" fill="#9C27B018" stroke="#9C27B0" stroke-width="1.5" opacity="1.0"/><text x="455" y="349" text-anchor="start" font-size="11" font-weight="700" fill="#9C27B0">公共元数据库</text><text x="455" y="364" text-anchor="start" font-size="9" font-weight="normal" fill="#37474F">Reachability Metadata Hub 共享配置</text><rect x="440" y="376" width="300" height="36" rx="6" ry="6" fill="#FF980018" stroke="#FF9800" stroke-width="1.5" opacity="1.0"/><text x="455" y="391" text-anchor="start" font-size="11" font-weight="700" fill="#FF9800">AOT 友好 API</text><text x="455" y="406" text-anchor="start" font-size="9" font-weight="normal" fill="#37474F">MethodHandle/VarHandle 替代反射</text></svg>
