<svg xmlns="http://www.w3.org/2000/svg" viewBox="0 0 800 500" style="max-width:100%;height:auto;font-family:system-ui,-apple-system,'PingFang SC',sans-serif;">

  <defs>
    <marker id="arr" markerWidth="10" markerHeight="8" refX="9" refY="4" orient="auto">
      <path d="M0,0 L10,4 L0,8 Z" fill="#666"/>
    </marker>
    <marker id="arrg" markerWidth="10" markerHeight="8" refX="9" refY="4" orient="auto">
      <path d="M0,0 L10,4 L0,8 Z" fill="#4CAF50"/>
    </marker>
    <marker id="arro" markerWidth="10" markerHeight="8" refX="9" refY="4" orient="auto">
      <path d="M0,0 L10,4 L0,8 Z" fill="#FF9800"/>
    </marker>
    <marker id="arrr" markerWidth="10" markerHeight="8" refX="9" refY="4" orient="auto">
      <path d="M0,0 L10,4 L0,8 Z" fill="#f44336"/>
    </marker>
  </defs>

  <rect width="800" height="500" rx="12" fill="#fafafa" stroke="#e0e0e0"/>
  <text x="400" y="36" text-anchor="middle" font-size="18" font-weight="700" fill="#263238">Java应用在容器中常见的OOM和性能问题有哪些？如何排查？</text>
  <line x1="60" y1="52" x2="740" y2="52" stroke="#e0e0e0" stroke-width="1"/>
  <text x="400" y="82" text-anchor="middle" font-size="13" fill="#607D8B">区分容器OOM（系统杀进程）和JVM OOM（内存不足），针对性排查。</text>
  <text x="200" y="125" text-anchor="middle" font-size="12" fill="#1565C0" font-weight="700">虚拟机（VM）</text>
  <text x="600" y="125" text-anchor="middle" font-size="12" fill="#2E7D32" font-weight="700">容器（Container）</text>
  <rect x="80" y="140" width="240" height="28" rx="3" fill="#E3F2FD" stroke="#2196F3" stroke-width="1.5"/>
  <text x="200" y="158" text-anchor="middle" font-size="11" font-weight="700" fill="#1565C0">App A</text>
  <rect x="80" y="172" width="240" height="28" rx="3" fill="#E3F2FD" stroke="#2196F3" stroke-width="1.5"/>
  <text x="200" y="190" text-anchor="middle" font-size="11" font-weight="700" fill="#1565C0">Bins/Libs</text>
  <rect x="80" y="204" width="240" height="28" rx="3" fill="#E3F2FD" stroke="#2196F3" stroke-width="1.5"/>
  <text x="200" y="222" text-anchor="middle" font-size="11" font-weight="700" fill="#1565C0">Guest OS</text>
  <rect x="80" y="236" width="240" height="28" rx="3" fill="#FFF3E0" stroke="#FF9800" stroke-width="1.5"/>
  <text x="200" y="254" text-anchor="middle" font-size="11" font-weight="700" fill="#E65100">Hypervisor</text>
  <rect x="80" y="268" width="240" height="28" rx="3" fill="#ECEFF1" stroke="#607D8B" stroke-width="1.5"/>
  <text x="200" y="286" text-anchor="middle" font-size="11" font-weight="700" fill="#37474F">Host OS</text>
  <rect x="80" y="300" width="240" height="28" rx="3" fill="#ECEFF1" stroke="#607D8B" stroke-width="1.5"/>
  <text x="200" y="318" text-anchor="middle" font-size="11" font-weight="700" fill="#37474F">Infra</text>
  <rect x="480" y="140" width="240" height="28" rx="3" fill="#E8F5E9" stroke="#4CAF50" stroke-width="1.5"/>
  <text x="600" y="158" text-anchor="middle" font-size="11" font-weight="700" fill="#2E7D32">App A</text>
  <rect x="480" y="172" width="240" height="28" rx="3" fill="#E8F5E9" stroke="#4CAF50" stroke-width="1.5"/>
  <text x="600" y="190" text-anchor="middle" font-size="11" font-weight="700" fill="#2E7D32">App B</text>
  <rect x="480" y="204" width="240" height="28" rx="3" fill="#E8F5E9" stroke="#4CAF50" stroke-width="1.5"/>
  <text x="600" y="222" text-anchor="middle" font-size="11" font-weight="700" fill="#2E7D32">Bins/Libs</text>
  <rect x="480" y="236" width="240" height="28" rx="3" fill="#FFF3E0" stroke="#FF9800" stroke-width="1.5"/>
  <text x="600" y="254" text-anchor="middle" font-size="11" font-weight="700" fill="#E65100">Docker Engine</text>
  <rect x="480" y="268" width="240" height="28" rx="3" fill="#ECEFF1" stroke="#607D8B" stroke-width="1.5"/>
  <text x="600" y="286" text-anchor="middle" font-size="11" font-weight="700" fill="#37474F">Host OS</text>
  <rect x="480" y="300" width="240" height="28" rx="3" fill="#ECEFF1" stroke="#607D8B" stroke-width="1.5"/>
  <text x="600" y="318" text-anchor="middle" font-size="11" font-weight="700" fill="#37474F">Infra</text>
  <text x="400" y="375" text-anchor="middle" font-size="12" fill="#666" font-weight="700">核心差异</text>
  <text x="200" y="400" text-anchor="middle" font-size="11" fill="#1565C0">VM：硬件级虚拟化 · 重 · 隔离强</text>
  <text x="600" y="400" text-anchor="middle" font-size="11" fill="#2E7D32">容器：OS 级虚拟化 · 轻 · 共享内核</text>
  <text x="400" y="435" text-anchor="middle" font-size="11" fill="#666" font-weight="600">Kubernetes = 容器编排：Pod/Service/Deployment/Ingress</text>
  <text x="400" y="486" text-anchor="middle" font-size="10" fill="#999" font-style="italic">Namespace + Cgroups 实现隔离与资源限制；镜像分层复用</text>
</svg>
