<svg xmlns="http://www.w3.org/2000/svg" viewBox="0 0 800 500" font-family="-apple-system, BlinkMacSystemFont, 'PingFang SC', 'Microsoft YaHei', sans-serif">
<rect width="800" height="500" fill="#FAFBFC"/>
<rect x="0" y="0" width="800" height="64" fill="#2196F3"/>
<rect x="0" y="0" width="8" height="64" fill="#FF9800"/>
<text x="28" y="40" font-size="22" font-weight="700" fill="#FFFFFF" text-rendering="geometricPrecision">项目中遇到的最大挑战是什么?怎么解决的</text>
<text x="28" y="552" font-size="0"></text>
<text x="28" y="92" font-size="14" fill="#37474F" font-style="italic">核心：通过数据化拆解与针对性修复解决复杂系统问题。</text>
<!-- BODY_TOP=110 -->
<defs>
<marker id="arrow" viewBox="0 0 10 10" refX="9" refY="5" markerWidth="7" markerHeight="7" orient="auto-start-reverse">
  <path d="M0,0 L10,5 L0,10 z" fill="#455A64"/>
</marker>
<marker id="arrowG" viewBox="0 0 10 10" refX="9" refY="5" markerWidth="7" markerHeight="7" orient="auto-start-reverse">
  <path d="M0,0 L10,5 L0,10 z" fill="#4CAF50"/>
</marker>
</defs>
<rect x="240" y="116" width="320" height="56" rx="8" fill="#FFFFFF" stroke="#2196F3" stroke-width="2"/>
<text x="400" y="135" font-size="15" fill="#263238" text-anchor="middle" dominant-baseline="middle" font-weight="600">数据驱动分析问题根因</text>
<text x="400" y="153" font-size="15" fill="#263238" text-anchor="middle" dominant-baseline="middle" font-weight="600">，不凭直觉</text>
<rect x="240" y="208" width="320" height="56" rx="8" fill="#FFFFFF" stroke="#4CAF50" stroke-width="2"/>
<text x="400" y="227" font-size="15" fill="#263238" text-anchor="middle" dominant-baseline="middle" font-weight="600">针对检索、幻觉、理解</text>
<text x="400" y="245" font-size="15" fill="#263238" text-anchor="middle" dominant-baseline="middle" font-weight="600">等不同病灶分类治疗</text>
<rect x="240" y="300" width="320" height="56" rx="8" fill="#FFFFFF" stroke="#FF9800" stroke-width="2"/>
<text x="400" y="319" font-size="15" fill="#263238" text-anchor="middle" dominant-baseline="middle" font-weight="600">建立可复用的优化方法</text>
<text x="400" y="337" font-size="15" fill="#263238" text-anchor="middle" dominant-baseline="middle" font-weight="600">论与闭环习惯</text>
<line x1="400" y1="172" x2="400" y2="208" stroke="#455A64" stroke-width="2" marker-end="url(#arrow)"/>
<line x1="400" y1="264" x2="400" y2="300" stroke="#455A64" stroke-width="2" marker-end="url(#arrow)"/>
</svg>