<svg xmlns="http://www.w3.org/2000/svg" viewBox="0 0 800 500" font-family="-apple-system, BlinkMacSystemFont, 'PingFang SC', 'Microsoft YaHei', sans-serif">
<rect width="800" height="500" fill="#FAFBFC"/>
<rect x="0" y="0" width="800" height="64" fill="#2196F3"/>
<rect x="0" y="0" width="8" height="64" fill="#FF9800"/>
<text x="28" y="40" font-size="22" font-weight="700" fill="#FFFFFF" text-rendering="geometricPrecision">【Java 后端架构师】JIT、逃逸分析与性能优化边界</text>
<text x="28" y="552" font-size="0"></text>
<text x="28" y="92" font-size="14" fill="#37474F" font-style="italic">核心：JIT 的本质是&quot;用运行时数据指导优化&quot;——只有热点代码才值得编译，只有没逃逸的对象才能在栈上分配。JVM 用 Prof…</text>
<!-- BODY_TOP=110 -->
<rect x="40" y="114" width="720" height="50" rx="8" fill="#2196F322" stroke="#2196F3" stroke-width="2"/>
<text x="56" y="139" font-size="15" fill="#2196F3" font-weight="700" dominant-baseline="middle">前端层</text>
<text x="170" y="139" font-size="13" fill="#263238" dominant="middle">CDN 加速 / 懒加载 / 资源压缩 / HTTP/2 多路复用</text>
<rect x="40" y="180" width="720" height="50" rx="8" fill="#4CAF5022" stroke="#4CAF50" stroke-width="2"/>
<text x="56" y="205" font-size="15" fill="#4CAF50" font-weight="700" dominant-baseline="middle">网关层</text>
<text x="170" y="205" font-size="13" fill="#263238" dominant="middle">限流 / 熔断 / 静态化 / Gzip / 连接池</text>
<rect x="40" y="246" width="720" height="50" rx="8" fill="#FF980022" stroke="#FF9800" stroke-width="2"/>
<text x="56" y="271" font-size="15" fill="#FF9800" font-weight="700" dominant-baseline="middle">应用层</text>
<text x="170" y="271" font-size="13" fill="#263238" dominant="middle">异步化 / 多级缓存 / 批量 / 池化 / 算法优化</text>
<rect x="40" y="312" width="720" height="50" rx="8" fill="#9C27B022" stroke="#9C27B0" stroke-width="2"/>
<text x="56" y="337" font-size="15" fill="#9C27B0" font-weight="700" dominant-baseline="middle">存储层</text>
<text x="170" y="337" font-size="13" fill="#263238" dominant="middle">读写分离 / 分库分表 / 索引优化 / 连接池</text>
<rect x="40" y="378" width="720" height="50" rx="8" fill="#f4433622" stroke="#f44336" stroke-width="2"/>
<text x="56" y="403" font-size="15" fill="#f44336" font-weight="700" dominant-baseline="middle">JVM 层</text>
<text x="170" y="403" font-size="13" fill="#263238" dominant="middle">GC 调优 / 堆设置 / JIT / 线程池调优</text>
<rect x="40" y="444" width="720" height="50" rx="8" fill="#607D8B22" stroke="#607D8B" stroke-width="2"/>
<text x="56" y="469" font-size="15" fill="#607D8B" font-weight="700" dominant-baseline="middle">OS/硬件</text>
<text x="170" y="469" font-size="13" fill="#263238" dominant="middle">CPU 亲和 / 网卡 / SSD / 内核参数 (tcp_tw_reuse)</text>
</svg>