<?xml version="1.0" encoding="UTF-8"?>
<svg xmlns="http://www.w3.org/2000/svg" viewBox="0 0 800 600" font-family="system-ui, -apple-system, Segoe UI, Roboto, sans-serif">
<defs>
  <marker id="arrow" markerWidth="10" markerHeight="10" refX="9" refY="3" orient="auto" markerUnits="strokeWidth"><path d="M0,0 L0,6 L9,3 z" fill="#37474F"/></marker>
  <marker id="arrowR" markerWidth="10" markerHeight="10" refX="9" refY="3" orient="auto" markerUnits="strokeWidth"><path d="M0,0 L0,6 L9,3 z" fill="#f44336"/></marker>
  <marker id="arrowG" markerWidth="10" markerHeight="10" refX="9" refY="3" orient="auto" markerUnits="strokeWidth"><path d="M0,0 L0,6 L9,3 z" fill="#4CAF50"/></marker>
  <marker id="arrowB" markerWidth="10" markerHeight="10" refX="9" refY="3" orient="auto" markerUnits="strokeWidth"><path d="M0,0 L0,6 L9,3 z" fill="#2196F3"/></marker>
</defs>
<text x="400" y="38" text-anchor="middle" font-size="22" font-weight="700" fill="#1a202c">频繁 Full GC 排查思路</text>
<line x1="40" y1="56" x2="760" y2="56" stroke="#607D8B" stroke-width="1" stroke-dasharray="4,3" opacity="0.4"/>
<rect x="40" y="90" width="720" height="50" rx="6" ry="6" fill="#FFEBEE" stroke="#f44336" stroke-width="1.5" opacity="1.0"/><text x="400" y="115" text-anchor="middle" font-size="13" font-weight="700" fill="#f44336">目标：找到 Full GC 触发条件 → 定位根因</text><text x="400" y="132" text-anchor="middle" font-size="11" font-weight="normal" fill="#B71C1C" font-style="italic">工具: jstat -gc / jmap / GC 日志 / Arthas</text><rect x="40" y="170" width="720" height="220" rx="6" ry="6" fill="#ECEFF1" stroke="#607D8B" stroke-width="1.5" opacity="1.0"/><text x="400" y="195" text-anchor="middle" font-size="13" font-weight="700" fill="#37474F">排查步骤</text><rect x="60" y="215" width="130" height="150" rx="6" ry="6" fill="#2196F318" stroke="#2196F3" stroke-width="2" opacity="1.0"/><rect x="60" y="215" width="30" height="30" rx="6" ry="6" fill="#2196F3" stroke="#2196F3" stroke-width="1.5" opacity="1.0"/><text x="75" y="234" text-anchor="middle" font-size="13" font-weight="700" fill="#FFFFFF">1</text><text x="140" y="240" text-anchor="middle" font-size="10" font-weight="700" fill="#2196F3">jstat</text><text x="125" y="270" text-anchor="middle" font-size="10" font-weight="normal" fill="#37474F">观察 GC 频率/各代增长</text><line x1="190" y1="290" x2="210" y2="290" stroke="#607D8B" stroke-width="2" marker-end="url(#arrow)"/><rect x="240" y="215" width="130" height="150" rx="6" ry="6" fill="#FF980018" stroke="#FF9800" stroke-width="2" opacity="1.0"/><rect x="240" y="215" width="30" height="30" rx="6" ry="6" fill="#FF9800" stroke="#FF9800" stroke-width="1.5" opacity="1.0"/><text x="255" y="234" text-anchor="middle" font-size="13" font-weight="700" fill="#FFFFFF">2</text><text x="320" y="240" text-anchor="middle" font-size="10" font-weight="700" fill="#FF9800">查看</text><text x="305" y="270" text-anchor="middle" font-size="10" font-weight="normal" fill="#37474F">频繁 → 内存配置/泄漏</text><line x1="370" y1="290" x2="390" y2="290" stroke="#607D8B" stroke-width="2" marker-end="url(#arrow)"/><rect x="420" y="215" width="130" height="150" rx="6" ry="6" fill="#9C27B018" stroke="#9C27B0" stroke-width="2" opacity="1.0"/><rect x="420" y="215" width="30" height="30" rx="6" ry="6" fill="#9C27B0" stroke="#9C27B0" stroke-width="1.5" opacity="1.0"/><text x="435" y="234" text-anchor="middle" font-size="13" font-weight="700" fill="#FFFFFF">3</text><text x="500" y="240" text-anchor="middle" font-size="10" font-weight="700" fill="#9C27B0">jmap</text><text x="485" y="270" text-anchor="middle" font-size="10" font-weight="normal" fill="#37474F">Top N 对象类型</text><line x1="550" y1="290" x2="570" y2="290" stroke="#607D8B" stroke-width="2" marker-end="url(#arrow)"/><rect x="600" y="215" width="130" height="150" rx="6" ry="6" fill="#f4433618" stroke="#f44336" stroke-width="2" opacity="1.0"/><rect x="600" y="215" width="30" height="30" rx="6" ry="6" fill="#f44336" stroke="#f44336" stroke-width="1.5" opacity="1.0"/><text x="615" y="234" text-anchor="middle" font-size="13" font-weight="700" fill="#FFFFFF">4</text><text x="680" y="240" text-anchor="middle" font-size="10" font-weight="700" fill="#f44336">jmap</text><text x="665" y="270" text-anchor="middle" font-size="10" font-weight="normal" fill="#37474F">Heap dump → MAT 分析</text><rect x="40" y="410" width="720" height="160" rx="6" ry="6" fill="#FFF3E0" stroke="#FF9800" stroke-width="1.5" opacity="1.0"/><text x="400" y="435" text-anchor="middle" font-size="13" font-weight="700" fill="#FF9800">常见 Full GC 根因</text><rect x="60" y="450" width="130" height="110" rx="6" ry="6" fill="#f4433622" stroke="#f44336" stroke-width="1.5" opacity="1.0"/><text x="125" y="475" text-anchor="middle" font-size="11" font-weight="700" fill="#f44336">内存泄漏</text><text x="125" y="500" text-anchor="middle" font-size="9" font-weight="normal" fill="#37474F">static 集合</text><text x="125" y="516" text-anchor="middle" font-size="9" font-weight="normal" fill="#37474F">未清理</text><rect x="200" y="450" width="130" height="110" rx="6" ry="6" fill="#FF980022" stroke="#FF9800" stroke-width="1.5" opacity="1.0"/><text x="265" y="475" text-anchor="middle" font-size="11" font-weight="700" fill="#FF9800">大对象</text><text x="265" y="500" text-anchor="middle" font-size="9" font-weight="normal" fill="#37474F">直接进老年代</text><text x="265" y="516" text-anchor="middle" font-size="9" font-weight="normal" fill="#37474F">频繁分配</text><rect x="340" y="450" width="130" height="110" rx="6" ry="6" fill="#9C27B022" stroke="#9C27B0" stroke-width="1.5" opacity="1.0"/><text x="405" y="475" text-anchor="middle" font-size="11" font-weight="700" fill="#9C27B0">Metaspace 满</text><text x="405" y="500" text-anchor="middle" font-size="9" font-weight="normal" fill="#37474F">动态生成类</text><text x="405" y="516" text-anchor="middle" font-size="9" font-weight="normal" fill="#37474F">CGLIB/反射</text><rect x="480" y="450" width="130" height="110" rx="6" ry="6" fill="#2196F322" stroke="#2196F3" stroke-width="1.5" opacity="1.0"/><text x="545" y="475" text-anchor="middle" font-size="11" font-weight="700" fill="#2196F3">System.gc</text><text x="545" y="500" text-anchor="middle" font-size="9" font-weight="normal" fill="#37474F">代码显式调用</text><text x="545" y="516" text-anchor="middle" font-size="9" font-weight="normal" fill="#37474F">应禁用</text><rect x="620" y="450" width="130" height="110" rx="6" ry="6" fill="#00968822" stroke="#009688" stroke-width="1.5" opacity="1.0"/><text x="685" y="475" text-anchor="middle" font-size="11" font-weight="700" fill="#009688">空间担保失败</text><text x="685" y="500" text-anchor="middle" font-size="9" font-weight="normal" fill="#37474F">晋升失败</text><text x="685" y="516" text-anchor="middle" font-size="9" font-weight="normal" fill="#37474F">触发 Full</text></svg>
