<svg xmlns="http://www.w3.org/2000/svg" viewBox="0 0 800 500" font-family="-apple-system, BlinkMacSystemFont, 'PingFang SC', 'Microsoft YaHei', sans-serif">
<rect width="800" height="500" fill="#FAFBFC"/>
<rect x="0" y="0" width="800" height="64" fill="#2196F3"/>
<rect x="0" y="0" width="8" height="64" fill="#FF9800"/>
<text x="28" y="40" font-size="22" font-weight="700" fill="#FFFFFF" text-rendering="geometricPrecision">【Java 后端架构师】Service Mesh 在 Java 微服务中的适…</text>
<text x="28" y="552" font-size="0"></text>
<text x="28" y="92" font-size="14" fill="#37474F" font-style="italic">核心：Service Mesh（服务网格）把&quot;服务间通信治理&quot;（流量路由/熔断/重试/加密/可观测）从应用层下沉到基础设施层（…</text>
<!-- BODY_TOP=110 -->
<defs>
<marker id="arrow" viewBox="0 0 10 10" refX="9" refY="5" markerWidth="7" markerHeight="7" orient="auto-start-reverse">
  <path d="M0,0 L10,5 L0,10 z" fill="#455A64"/>
</marker>
<marker id="arrowG" viewBox="0 0 10 10" refX="9" refY="5" markerWidth="7" markerHeight="7" orient="auto-start-reverse">
  <path d="M0,0 L10,5 L0,10 z" fill="#4CAF50"/>
</marker>
</defs>
<rect x="330" y="120" width="140" height="40" rx="8" fill="#2196F322" stroke="#2196F3" stroke-width="2"/>
<text x="400" y="126" font-size="12" fill="#263238" text-anchor="middle" dominant-baseline="middle" font-weight="600">API Gateway</text>
<text x="400" y="140" font-size="12" fill="#263238" text-anchor="middle" dominant-baseline="middle" font-weight="600">(Nginx/Spring </text>
<text x="400" y="154" font-size="12" fill="#263238" text-anchor="middle" dominant-baseline="middle" font-weight="600">Gateway)</text>
<rect x="60" y="200" width="160" height="50" rx="8" fill="#4CAF5022" stroke="#4CAF50" stroke-width="2"/>
<text x="140" y="225" font-size="12" fill="#263238" text-anchor="middle" dominant-baseline="middle" font-weight="600">用户服务</text>
<line x1="400" y1="160" x2="140" y2="200" stroke="#607D8B" stroke-width="2" stroke-dasharray="6,4" marker-end="url(#arrow)"/>
<rect x="235" y="200" width="160" height="50" rx="8" fill="#FF980022" stroke="#FF9800" stroke-width="2"/>
<text x="315" y="225" font-size="12" fill="#263238" text-anchor="middle" dominant-baseline="middle" font-weight="600">订单服务</text>
<line x1="400" y1="160" x2="315" y2="200" stroke="#607D8B" stroke-width="2" stroke-dasharray="6,4" marker-end="url(#arrow)"/>
<rect x="410" y="200" width="160" height="50" rx="8" fill="#9C27B022" stroke="#9C27B0" stroke-width="2"/>
<text x="490" y="225" font-size="12" fill="#263238" text-anchor="middle" dominant-baseline="middle" font-weight="600">商品服务</text>
<line x1="400" y1="160" x2="490" y2="200" stroke="#607D8B" stroke-width="2" stroke-dasharray="6,4" marker-end="url(#arrow)"/>
<rect x="585" y="200" width="160" height="50" rx="8" fill="#f4433622" stroke="#f44336" stroke-width="2"/>
<text x="665" y="225" font-size="12" fill="#263238" text-anchor="middle" dominant-baseline="middle" font-weight="600">支付服务</text>
<line x1="400" y1="160" x2="665" y2="200" stroke="#607D8B" stroke-width="2" stroke-dasharray="6,4" marker-end="url(#arrow)"/>
<rect x="60" y="290" width="160" height="50" rx="8" fill="#2196F322" stroke="#2196F3" stroke-width="2"/>
<text x="140" y="308" font-size="11" fill="#263238" text-anchor="middle" dominant-baseline="middle" font-weight="600">注册中心</text>
<text x="140" y="322" font-size="11" fill="#263238" text-anchor="middle" dominant-baseline="middle" font-weight="600">Nacos/Eureka</text>
<rect x="235" y="290" width="160" height="50" rx="8" fill="#FF980022" stroke="#FF9800" stroke-width="2"/>
<text x="315" y="308" font-size="11" fill="#263238" text-anchor="middle" dominant-baseline="middle" font-weight="600">配置中心</text>
<text x="315" y="322" font-size="11" fill="#263238" text-anchor="middle" dominant-baseline="middle" font-weight="600">Apollo/Nacos</text>
<rect x="410" y="290" width="160" height="50" rx="8" fill="#9C27B022" stroke="#9C27B0" stroke-width="2"/>
<text x="490" y="308" font-size="11" fill="#263238" text-anchor="middle" dominant-baseline="middle" font-weight="600">消息队列</text>
<text x="490" y="322" font-size="11" fill="#263238" text-anchor="middle" dominant-baseline="middle" font-weight="600">Kafka/RabbitMQ</text>
<rect x="585" y="290" width="160" height="50" rx="8" fill="#4CAF5022" stroke="#4CAF50" stroke-width="2"/>
<text x="665" y="302" font-size="11" fill="#263238" text-anchor="middle" dominant-baseline="middle" font-weight="600">链路追踪</text>
<text x="665" y="315" font-size="11" fill="#263238" text-anchor="middle" dominant-baseline="middle" font-weight="600">SkyWalking/Zip</text>
<text x="665" y="328" font-size="11" fill="#263238" text-anchor="middle" dominant-baseline="middle" font-weight="600">kin</text>
<rect x="60" y="370" width="680" height="60" rx="8" fill="#f4433611" stroke="#f44336" stroke-width="2"/>
<text x="400" y="406" font-size="13" fill="#f44336" text-anchor="middle" font-weight="700">数据隔离：每服务独立 DB（MySQL）+ Cache（Redis Cluster）+ ES</text>
<rect x="60" y="450" width="680" height="100" rx="8" fill="#FFFFFF" stroke="#607D8B" stroke-width="1.5"/>
<text x="80" y="474" font-size="12" fill="#4CAF50" font-weight="700">优势</text>
<text x="80" y="494" font-size="11" fill="#37404F">独立部署 / 技术栈灵活 / 故障隔离 / 弹性伸缩</text>
<text x="80" y="514" font-size="11" fill="#37404F">团队边界清晰 / 单服务易维护</text>
<text x="420" y="474" font-size="12" fill="#f44336" font-weight="700">挑战</text>
<text x="420" y="494" font-size="11" fill="#37404F">分布式事务 / 服务发现 / 链路追踪</text>
<text x="420" y="514" font-size="11" fill="#37404F">数据一致性 / 运维复杂度 / 网络延迟</text>
</svg>