<svg xmlns="http://www.w3.org/2000/svg" viewBox="0 0 800 500" style="font-family:system-ui,-apple-system,'PingFang SC','Microsoft YaHei',sans-serif;">
  <defs>
    <marker id="arr" markerWidth="10" markerHeight="8" refX="9" refY="4" orient="auto"><path d="M0,0 L10,4 L0,8 Z" fill="#666"/></marker>
    <marker id="arrB" markerWidth="10" markerHeight="8" refX="9" refY="4" orient="auto"><path d="M0,0 L10,4 L0,8 Z" fill="#2196F3"/></marker>
  </defs>
  <rect width="800" height="500" rx="12" fill="#fafafa" stroke="#e0e0e0"/>
  <text x="400" y="34" text-anchor="middle" font-size="18" font-weight="700" fill="#263238">如果让你接手这类桌面产品，你前三个月先补哪三块？</text>
  <text x="400" y="55" text-anchor="middle" font-size="12" fill="#78909C">三块：1.桌面工程基础(Electron/Tauri/IPC/原生API) 2.AI交互模式(任务编排/产物管理/上下文工程) 3.用户场景理解(真实工作流/…</text>

  <rect x="80" y="90" width="640" height="56" rx="8" fill="#2196F3" stroke="#2196F3" stroke-width="2"/>
  <text x="400.0" y="115.0" text-anchor="middle" font-size="13" fill="#fff" font-weight="700">1. 桌面工程基础</text>
  <text x="400.0" y="132.0" text-anchor="middle" font-size="10" fill="#fff" opacity="0.9">Electron/Tauri/IPC/打包</text>
  <line x1="400" y1="146" x2="400" y2="160" stroke="#607D8B" stroke-width="2" marker-end="url(#arr)"/>
  <rect x="80" y="160" width="640" height="56" rx="8" fill="#FF9800" stroke="#FF9800" stroke-width="2"/>
  <text x="400.0" y="185.0" text-anchor="middle" font-size="13" fill="#fff" font-weight="700">2. AI 交互模式</text>
  <text x="400.0" y="202.0" text-anchor="middle" font-size="10" fill="#fff" opacity="0.9">任务编排/产物/上下文</text>
  <line x1="400" y1="216" x2="400" y2="230" stroke="#607D8B" stroke-width="2" marker-end="url(#arr)"/>
  <rect x="80" y="230" width="640" height="56" rx="8" fill="#4CAF50" stroke="#4CAF50" stroke-width="2"/>
  <text x="400.0" y="255.0" text-anchor="middle" font-size="13" fill="#fff" font-weight="700">3. 用户场景理解</text>
  <text x="400.0" y="272.0" text-anchor="middle" font-size="10" fill="#fff" opacity="0.9">真实工作流/数据/反馈</text>
  <text x="40" y="310" font-size="12" font-weight="700" fill="#37474F">核心要点</text>
  <circle cx="48" cy="327" r="3" fill="#2196F3"/>
  <text x="58" y="330" font-size="11" fill="#37474F">桌面工程: Electron/Tauri/IPC/原生API/打包</text>
  <circle cx="48" cy="347" r="3" fill="#2196F3"/>
  <text x="58" y="350" font-size="11" fill="#37474F">AI交互: 任务编排/产物管理/上下文/Agent链路</text>
  <circle cx="48" cy="367" r="3" fill="#2196F3"/>
  <text x="58" y="370" font-size="11" fill="#37474F">用户场景: 真实工作流/使用数据/反馈分析</text>
  <text x="40" y="482" font-size="11" font-weight="600" fill="#455A64">图例：</text>
  <rect x="80" y="470" width="14" height="14" rx="3" fill="#2196F3"/>
  <text x="100" y="482" font-size="11" fill="#37474F">1. 桌面工程基础</text>
  <rect x="185" y="470" width="14" height="14" rx="3" fill="#FF9800"/>
  <text x="205" y="482" font-size="11" fill="#37474F">2. AI 交互模式</text>
  <rect x="297" y="470" width="14" height="14" rx="3" fill="#4CAF50"/>
  <text x="317" y="482" font-size="11" fill="#37474F">3. 用户场景理解</text>
</svg>