<svg xmlns="http://www.w3.org/2000/svg" viewBox="0 0 800 500" font-family="-apple-system, BlinkMacSystemFont, 'PingFang SC', 'Microsoft YaHei', sans-serif">
<rect width="800" height="500" fill="#FAFBFC"/>
<rect x="0" y="0" width="800" height="64" fill="#2196F3"/>
<rect x="0" y="0" width="8" height="64" fill="#FF9800"/>
<text x="28" y="40" font-size="22" font-weight="700" fill="#FFFFFF" text-rendering="geometricPrecision">Vue-router</text>
<text x="28" y="552" font-size="0"></text>
<text x="28" y="92" font-size="14" fill="#37474F" font-style="italic">核心：Vue 官方的单页应用路由管理器。</text>
<!-- BODY_TOP=110 -->
<defs>
<marker id="arrow" viewBox="0 0 10 10" refX="9" refY="5" markerWidth="7" markerHeight="7" orient="auto-start-reverse">
  <path d="M0,0 L10,5 L0,10 z" fill="#455A64"/>
</marker>
<marker id="arrowG" viewBox="0 0 10 10" refX="9" refY="5" markerWidth="7" markerHeight="7" orient="auto-start-reverse">
  <path d="M0,0 L10,5 L0,10 z" fill="#4CAF50"/>
</marker>
</defs>
<rect x="240" y="116" width="320" height="48" rx="8" fill="#FFFFFF" stroke="#2196F3" stroke-width="2"/>
<text x="400" y="131" font-size="15" fill="#263238" text-anchor="middle" dominant-baseline="middle" font-weight="600">Hash模式兼容性好，Hi</text>
<text x="400" y="149" font-size="15" fill="#263238" text-anchor="middle" dominant-baseline="middle" font-weight="600">story模式URL美观</text>
<rect x="240" y="194" width="320" height="48" rx="8" fill="#FFFFFF" stroke="#4CAF50" stroke-width="2"/>
<text x="400" y="209" font-size="15" fill="#263238" text-anchor="middle" dominant-baseline="middle" font-weight="600">History模式刷新需后</text>
<text x="400" y="227" font-size="15" fill="#263238" text-anchor="middle" dominant-baseline="middle" font-weight="600">端配置重定向</text>
<rect x="240" y="272" width="320" height="48" rx="8" fill="#FFFFFF" stroke="#FF9800" stroke-width="2"/>
<text x="400" y="278" font-size="15" fill="#263238" text-anchor="middle" dominant-baseline="middle" font-weight="600">Query传参刷新不丢失</text>
<text x="400" y="296" font-size="15" fill="#263238" text-anchor="middle" dominant-baseline="middle" font-weight="600">，Params传参刷新可能</text>
<text x="400" y="314" font-size="15" fill="#263238" text-anchor="middle" dominant-baseline="middle" font-weight="600">丢失</text>
<rect x="240" y="350" width="320" height="48" rx="8" fill="#FFFFFF" stroke="#9C27B0" stroke-width="2"/>
<text x="400" y="356" font-size="15" fill="#263238" text-anchor="middle" dominant-baseline="middle" font-weight="600">$router是操作路由的</text>
<text x="400" y="374" font-size="15" fill="#263238" text-anchor="middle" dominant-baseline="middle" font-weight="600">工具，$route是当前路</text>
<text x="400" y="392" font-size="15" fill="#263238" text-anchor="middle" dominant-baseline="middle" font-weight="600">由信息</text>
<rect x="240" y="428" width="320" height="48" rx="8" fill="#FFFFFF" stroke="#f44336" stroke-width="2"/>
<text x="400" y="443" font-size="15" fill="#263238" text-anchor="middle" dominant-baseline="middle" font-weight="600">常用导航守卫进行权限</text>
<text x="400" y="461" font-size="15" fill="#263238" text-anchor="middle" dominant-baseline="middle" font-weight="600">控制</text>
<line x1="400" y1="164" x2="400" y2="194" stroke="#455A64" stroke-width="2" marker-end="url(#arrow)"/>
<line x1="400" y1="242" x2="400" y2="272" stroke="#455A64" stroke-width="2" marker-end="url(#arrow)"/>
<line x1="400" y1="320" x2="400" y2="350" stroke="#455A64" stroke-width="2" marker-end="url(#arrow)"/>
<line x1="400" y1="398" x2="400" y2="428" stroke="#455A64" stroke-width="2" marker-end="url(#arrow)"/>
</svg>