<svg xmlns="http://www.w3.org/2000/svg" viewBox="0 0 800 500" font-family="-apple-system, BlinkMacSystemFont, 'PingFang SC', 'Microsoft YaHei', sans-serif">
<rect width="800" height="500" fill="#FAFBFC"/>
<rect x="0" y="0" width="800" height="64" fill="#2196F3"/>
<rect x="0" y="0" width="8" height="64" fill="#FF9800"/>
<text x="28" y="40" font-size="22" font-weight="700" fill="#FFFFFF" text-rendering="geometricPrecision">【Java 后端架构师】Native Image 与 JVM 模式如何选型</text>
<text x="28" y="552" font-size="0"></text>
<text x="28" y="92" font-size="14" fill="#37474F" font-style="italic">核心：Native Image 是 GraalVM 的 AOT（Ahead-Of-Time）编译——把 Spring Boot…</text>
<!-- BODY_TOP=110 -->
<defs>
<marker id="arrow" viewBox="0 0 10 10" refX="9" refY="5" markerWidth="7" markerHeight="7" orient="auto-start-reverse">
  <path d="M0,0 L10,5 L0,10 z" fill="#455A64"/>
</marker>
<marker id="arrowG" viewBox="0 0 10 10" refX="9" refY="5" markerWidth="7" markerHeight="7" orient="auto-start-reverse">
  <path d="M0,0 L10,5 L0,10 z" fill="#4CAF50"/>
</marker>
</defs>
<rect x="300" y="170" width="200" height="60" rx="8" fill="#2196F322" stroke="#2196F3" stroke-width="2"/>
<text x="400" y="184" font-size="13" fill="#263238" text-anchor="middle" dominant-baseline="middle" font-weight="600">目标方法</text>
<text x="400" y="200" font-size="13" fill="#263238" text-anchor="middle" dominant-baseline="middle" font-weight="600">UserService.ad</text>
<text x="400" y="216" font-size="13" fill="#263238" text-anchor="middle" dominant-baseline="middle" font-weight="600">dUser()</text>
<rect x="60" y="290" width="170" height="70" rx="8" fill="#4CAF5022" stroke="#4CAF50" stroke-width="2"/>
<text x="145" y="318" font-size="12" fill="#263238" text-anchor="middle" dominant-baseline="middle" font-weight="600">@Before</text>
<text x="145" y="332" font-size="12" fill="#263238" text-anchor="middle" dominant-baseline="middle" font-weight="600">前置通知</text>
<line x1="145" y1="360" x2="400" y2="232" stroke="#4CAF50" stroke-width="2" stroke-dasharray="6,4" marker-end="url(#arrow)"/>
<rect x="230" y="290" width="170" height="70" rx="8" fill="#9C27B022" stroke="#9C27B0" stroke-width="2"/>
<text x="315" y="318" font-size="12" fill="#263238" text-anchor="middle" dominant-baseline="middle" font-weight="600">@Around</text>
<text x="315" y="332" font-size="12" fill="#263238" text-anchor="middle" dominant-baseline="middle" font-weight="600">环绕通知</text>
<line x1="315" y1="360" x2="400" y2="232" stroke="#9C27B0" stroke-width="2" stroke-dasharray="6,4" marker-end="url(#arrow)"/>
<rect x="400" y="290" width="170" height="70" rx="8" fill="#FF980022" stroke="#FF9800" stroke-width="2"/>
<text x="485" y="311" font-size="12" fill="#263238" text-anchor="middle" dominant-baseline="middle" font-weight="600">@AfterReturnin</text>
<text x="485" y="325" font-size="12" fill="#263238" text-anchor="middle" dominant-baseline="middle" font-weight="600">g</text>
<text x="485" y="339" font-size="12" fill="#263238" text-anchor="middle" dominant-baseline="middle" font-weight="600">返回通知</text>
<line x1="485" y1="360" x2="400" y2="232" stroke="#FF9800" stroke-width="2" stroke-dasharray="6,4" marker-end="url(#arrow)"/>
<rect x="570" y="290" width="170" height="70" rx="8" fill="#f4433622" stroke="#f44336" stroke-width="2"/>
<text x="655" y="318" font-size="12" fill="#263238" text-anchor="middle" dominant-baseline="middle" font-weight="600">@AfterThrowing</text>
<text x="655" y="332" font-size="12" fill="#263238" text-anchor="middle" dominant-baseline="middle" font-weight="600">异常通知</text>
<line x1="655" y1="360" x2="400" y2="232" stroke="#f44336" stroke-width="2" stroke-dasharray="6,4" marker-end="url(#arrow)"/>
<rect x="60" y="390" width="170" height="70" rx="8" fill="#607D8B22" stroke="#607D8B" stroke-width="2"/>
<text x="145" y="418" font-size="12" fill="#263238" text-anchor="middle" dominant-baseline="middle" font-weight="600">@After</text>
<text x="145" y="432" font-size="12" fill="#263238" text-anchor="middle" dominant-baseline="middle" font-weight="600">后置通知(终)</text>
<line x1="145" y1="460" x2="400" y2="232" stroke="#607D8B" stroke-width="2" stroke-dasharray="6,4" marker-end="url(#arrow)"/>
<rect x="60" y="390" width="680" height="110" rx="10" fill="#FFFFFF" stroke="#607D8B" stroke-width="1.5"/>
<text x="80" y="414" font-size="13" fill="#607D8B" font-weight="700">核心术语</text>
<circle cx="80" cy="432" r="4" fill="#4CAF50"/>
<text x="92" y="436" font-size="12" fill="#37474F">Aspect 切面 = 通知+切入点</text>
<circle cx="420" cy="432" r="4" fill="#FF9800"/>
<text x="432" y="436" font-size="12" fill="#37474F">Pointcut 切入点 = 哪些方法</text>
<circle cx="80" cy="456" r="4" fill="#9C27B0"/>
<text x="92" y="460" font-size="12" fill="#37474F">JoinPoint 连接点 = 方法执行点</text>
<circle cx="420" cy="456" r="4" fill="#f44336"/>
<text x="432" y="460" font-size="12" fill="#37474F">Weaving 织入 = 编译/类加载/运行期</text>
<circle cx="80" cy="480" r="4" fill="#2196F3"/>
<text x="92" y="484" font-size="12" fill="#37474F">底层：JDK 动态代理(接口) / CGLIB(类)</text>
</svg>