<svg xmlns="http://www.w3.org/2000/svg" viewBox="0 0 800 500"><rect width="800" height="500" fill="#fafafa"/><defs><marker id="arr" markerWidth="10" markerHeight="10" refX="9" refY="5" orient="auto" markerUnits="strokeWidth"><path d="M0,0 L0,10 L9,5 z" fill="#607D8B"/></marker></defs><text x="400" y="35" font-family="system-ui,-apple-system,sans-serif" font-size="18" font-weight="700" text-anchor="middle" fill="#333">AQS 抽象队列同步器核心设计</text><g font-family="system-ui,-apple-system,sans-serif" font-size="13" text-anchor="middle"><rect x="300" y="60" width="200" height="50" rx="8" fill="#F3E5F5" stroke="#9C27B0" stroke-width="2"/><text x="400" y="85" fill="#9C27B0" font-weight="bold">volatile int state</text><text x="400" y="100" fill="#9C27B0" font-size="11">(同步状态, CAS修改)</text><path d="M 400 110 L 400 140" stroke="#607D8B" stroke-width="2" marker-end="url(#arr)" fill="none"/><rect x="300" y="140" width="200" height="40" rx="8" fill="#E3F2FD" stroke="#2196F3" stroke-width="2"/><text x="400" y="165" fill="#2196F3">AQS 框架 (模板方法)</text><path d="M 250 160 L 180 210" stroke="#607D8B" stroke-width="2" marker-end="url(#arr)" fill="none"/><path d="M 400 180 L 400 210" stroke="#607D8B" stroke-width="2" marker-end="url(#arr)" fill="none"/><rect x="80" y="210" width="200" height="40" rx="8" fill="#E8F5E9" stroke="#4CAF50" stroke-width="2"/><text x="180" y="235" fill="#4CAF50">tryAcquire() 抢占成功</text><rect x="300" y="210" width="200" height="40" rx="8" fill="#FFF3E0" stroke="#FF9800" stroke-width="2"/><text x="400" y="235" fill="#FF9800">tryAcquire() 抢占失败</text><path d="M 400 250 L 400 280" stroke="#607D8B" stroke-width="2" marker-end="url(#arr)" fill="none"/><rect x="150" y="280" width="120" height="40" rx="8" fill="#FFF3E0" stroke="#FF9800" stroke-width="2"/><text x="210" y="305" fill="#FF9800">Node (Thread)</text><rect x="340" y="280" width="120" height="40" rx="8" fill="#FFF3E0" stroke="#FF9800" stroke-width="2"/><text x="400" y="305" fill="#FF9800">Node (Thread)</text><rect x="530" y="280" width="120" height="40" rx="8" fill="#FFF3E0" stroke="#FF9800" stroke-width="2"/><text x="590" y="305" fill="#FF9800">Node (Thread)</text><path d="M 270 300 L 340 300" stroke="#607D8B" stroke-width="2" marker-end="url(#arr)" fill="none"/><path d="M 460 300 L 530 300" stroke="#607D8B" stroke-width="2" marker-end="url(#arr)" fill="none"/><path d="M 340 310 L 270 310" stroke="#607D8B" stroke-width="2" marker-end="url(#arr)" fill="none"/><path d="M 530 310 L 460 310" stroke="#607D8B" stroke-width="2" marker-end="url(#arr)" fill="none"/><text x="400" y="350" fill="#607D8B" font-size="12">CLH 变种双向队列 (LockSupport.park阻塞)</text><rect x="100" y="400" width="250" height="40" rx="8" fill="#E3F2FD" stroke="#2196F3" stroke-width="2"/><text x="225" y="425" fill="#2196F3">ReentrantLock / Semaphore</text><rect x="450" y="400" width="250" height="40" rx="8" fill="#E3F2FD" stroke="#2196F3" stroke-width="2"/><text x="575" y="425" fill="#2196F3">CountDownLatch / ReentrantRWLock</text></g></svg>
