<svg xmlns="http://www.w3.org/2000/svg" viewBox="0 0 800 500" style="font-family:system-ui,-apple-system,'PingFang SC','Microsoft YaHei',sans-serif;">
  <defs>
    <marker id="arr" markerWidth="10" markerHeight="8" refX="9" refY="4" orient="auto"><path d="M0,0 L10,4 L0,8 Z" fill="#666"/></marker>
    <marker id="arrB" markerWidth="10" markerHeight="8" refX="9" refY="4" orient="auto"><path d="M0,0 L10,4 L0,8 Z" fill="#2196F3"/></marker>
  </defs>
  <rect width="800" height="500" rx="12" fill="#fafafa" stroke="#e0e0e0"/>
  <text x="400" y="34" text-anchor="middle" font-size="18" font-weight="700" fill="#263238">Netty 在工业界的应用场景？</text>
  <text x="400" y="55" text-anchor="middle" font-size="12" fill="#78909C">Netty 是 Java 高性能网络通信的事实标准——几乎所有需要&quot;高性能、低时延通信&quot;的中间件都建立在它之上。三大主战场：①高性能中间件的通信底座（MQ/R…</text>

  <rect x="280" y="90" width="240" height="60" rx="8" fill="#9C27B0" stroke="#9C27B0" stroke-width="2"/>
  <text x="400.0" y="117.0" text-anchor="middle" font-size="14" fill="#fff" font-weight="700">Netty 通信底座</text>
  <text x="400.0" y="134.0" text-anchor="middle" font-size="10" fill="#fff" opacity="0.9">高性能低时延</text>
  <text x="40" y="200" font-size="13" font-weight="700" fill="#37474F">三大主战场</text>
  <rect x="40" y="220" width="240" height="65" rx="8" fill="#2196F3" stroke="#2196F3" stroke-width="2"/>
  <text x="160.0" y="249.5" text-anchor="middle" font-size="12" fill="#fff" font-weight="700">中间件通信底座</text>
  <text x="160.0" y="266.5" text-anchor="middle" font-size="10" fill="#fff" opacity="0.9">MQ/RPC/ESB</text>
  <line x1="400" y1="150" x2="160" y2="220" stroke="#2196F3" stroke-width="1.5" stroke-dasharray="4 3"/>
  <rect x="295" y="220" width="240" height="65" rx="8" fill="#4CAF50" stroke="#4CAF50" stroke-width="2"/>
  <text x="415.0" y="249.5" text-anchor="middle" font-size="12" fill="#fff" font-weight="700">协议栈框架</text>
  <text x="415.0" y="266.5" text-anchor="middle" font-size="10" fill="#fff" opacity="0.9">WebSocket/HTTP</text>
  <line x1="400" y1="150" x2="415" y2="220" stroke="#4CAF50" stroke-width="1.5" stroke-dasharray="4 3"/>
  <rect x="550" y="220" width="240" height="65" rx="8" fill="#FF9800" stroke="#FF9800" stroke-width="2"/>
  <text x="670.0" y="249.5" text-anchor="middle" font-size="12" fill="#fff" font-weight="700">模块数据分发</text>
  <text x="670.0" y="266.5" text-anchor="middle" font-size="10" fill="#fff" opacity="0.9">大数据/游戏</text>
  <line x1="400" y1="150" x2="670" y2="220" stroke="#FF9800" stroke-width="1.5" stroke-dasharray="4 3"/>
  <text x="40" y="330" font-size="13" font-weight="700" fill="#37474F">代表用户</text>
  <rect x="40" y="350" width="175" height="34" rx="6" fill="#FFF3E0" stroke="#FF9800" stroke-width="1.3"/>
  <text x="127" y="372" text-anchor="middle" font-size="11" fill="#E65100">Apache</text>
  <rect x="230" y="350" width="175" height="34" rx="6" fill="#FFF3E0" stroke="#FF9800" stroke-width="1.3"/>
  <text x="317" y="372" text-anchor="middle" font-size="11" fill="#E65100">Twitter</text>
  <rect x="420" y="350" width="175" height="34" rx="6" fill="#FFF3E0" stroke="#FF9800" stroke-width="1.3"/>
  <text x="507" y="372" text-anchor="middle" font-size="11" fill="#E65100">Facebook</text>
  <rect x="610" y="350" width="175" height="34" rx="6" fill="#FFF3E0" stroke="#FF9800" stroke-width="1.3"/>
  <text x="697" y="372" text-anchor="middle" font-size="11" fill="#E65100">Cassandra</text>
  <rect x="40" y="392" width="175" height="34" rx="6" fill="#FFF3E0" stroke="#FF9800" stroke-width="1.3"/>
  <text x="127" y="414" text-anchor="middle" font-size="11" fill="#E65100">ElasticSearch</text>
  <rect x="230" y="392" width="175" height="34" rx="6" fill="#FFF3E0" stroke="#FF9800" stroke-width="1.3"/>
  <text x="317" y="414" text-anchor="middle" font-size="11" fill="#E65100">Spark</text>
  <rect x="420" y="392" width="175" height="34" rx="6" fill="#FFF3E0" stroke="#FF9800" stroke-width="1.3"/>
  <text x="507" y="414" text-anchor="middle" font-size="11" fill="#E65100">Alibaba Dubbo</text>
  <rect x="610" y="392" width="175" height="34" rx="6" fill="#FFF3E0" stroke="#FF9800" stroke-width="1.3"/>
  <text x="697" y="414" text-anchor="middle" font-size="11" fill="#E65100">JD JSF</text>
  <text x="40" y="482" font-size="11" font-weight="600" fill="#455A64">图例：</text>
  <rect x="80" y="470" width="14" height="14" rx="3" fill="#9C27B0"/>
  <text x="100" y="482" font-size="11" fill="#37474F">Netty</text>
  <rect x="157" y="470" width="14" height="14" rx="3" fill="#2196F3"/>
  <text x="177" y="482" font-size="11" fill="#37474F">中间件</text>
  <rect x="220" y="470" width="14" height="14" rx="3" fill="#4CAF50"/>
  <text x="240" y="482" font-size="11" fill="#37474F">协议栈</text>
  <rect x="283" y="470" width="14" height="14" rx="3" fill="#FF9800"/>
  <text x="303" y="482" font-size="11" fill="#37474F">分发</text>
</svg>