<svg xmlns="http://www.w3.org/2000/svg" viewBox="0 0 800 500" font-family="-apple-system, BlinkMacSystemFont, 'PingFang SC', 'Microsoft YaHei', sans-serif">
<rect width="800" height="500" fill="#FAFBFC"/>
<rect x="0" y="0" width="800" height="64" fill="#2196F3"/>
<rect x="0" y="0" width="8" height="64" fill="#FF9800"/>
<text x="28" y="40" font-size="22" font-weight="700" fill="#FFFFFF" text-rendering="geometricPrecision">【Java 后端架构师】多云部署与供应商锁定风险</text>
<text x="28" y="552" font-size="0"></text>
<text x="28" y="92" font-size="14" fill="#37474F" font-style="italic">核心：多云部署的核心不是&quot;用多家云提升可用性&quot;，而是&quot;对冲供应商锁定风险 + 利用各云优势 + 议价权&quot;。但多云引入复杂度（跨…</text>
<!-- BODY_TOP=110 -->
<defs>
<marker id="arrow" viewBox="0 0 10 10" refX="9" refY="5" markerWidth="7" markerHeight="7" orient="auto-start-reverse">
  <path d="M0,0 L10,5 L0,10 z" fill="#455A64"/>
</marker>
<marker id="arrowG" viewBox="0 0 10 10" refX="9" refY="5" markerWidth="7" markerHeight="7" orient="auto-start-reverse">
  <path d="M0,0 L10,5 L0,10 z" fill="#4CAF50"/>
</marker>
</defs>
<rect x="290" y="120" width="220" height="50" rx="8" fill="#2196F322" stroke="#2196F3" stroke-width="2"/>
<text x="400" y="122" font-size="13" fill="#263238" text-anchor="middle" dominant-baseline="middle" font-weight="600">全局 DNS / 智</text>
<text x="400" y="137" font-size="13" fill="#263238" text-anchor="middle" dominant-baseline="middle" font-weight="600">能路由</text>
<text x="400" y="153" font-size="13" fill="#263238" text-anchor="middle" dominant-baseline="middle" font-weight="600">(GTM + HTTP-DN</text>
<text x="400" y="168" font-size="13" fill="#263238" text-anchor="middle" dominant-baseline="middle" font-weight="600">S)</text>
<rect x="60" y="200" width="280" height="240" rx="10" fill="#4CAF5011" stroke="#4CAF50" stroke-width="2"/>
<text x="200" y="226" font-size="14" fill="#4CAF50" text-anchor="middle" font-weight="700">机房 A (北京主)</text>
<rect x="90" y="248" width="220" height="30" rx="8" fill="#FFFFFF" stroke="#4CAF50" stroke-width="2"/>
<text x="200" y="263" font-size="11" fill="#263238" text-anchor="middle" dominant-baseline="middle" font-weight="600">接入层 Nginx</text>
<rect x="90" y="286" width="220" height="30" rx="8" fill="#FFFFFF" stroke="#4CAF50" stroke-width="2"/>
<text x="200" y="301" font-size="11" fill="#263238" text-anchor="middle" dominant-baseline="middle" font-weight="600">应用集群</text>
<rect x="90" y="324" width="220" height="30" rx="8" fill="#FFFFFF" stroke="#4CAF50" stroke-width="2"/>
<text x="200" y="339" font-size="11" fill="#263238" text-anchor="middle" dominant-baseline="middle" font-weight="600">DB 主/从</text>
<rect x="90" y="362" width="220" height="30" rx="8" fill="#FFFFFF" stroke="#4CAF50" stroke-width="2"/>
<text x="200" y="377" font-size="11" fill="#263238" text-anchor="middle" dominant-baseline="middle" font-weight="600">Redis Cluster</text>
<rect x="90" y="400" width="220" height="30" rx="8" fill="#FFFFFF" stroke="#4CAF50" stroke-width="2"/>
<text x="200" y="415" font-size="11" fill="#263238" text-anchor="middle" dominant-baseline="middle" font-weight="600">MQ</text>
<rect x="460" y="200" width="280" height="240" rx="10" fill="#FF980011" stroke="#FF9800" stroke-width="2"/>
<text x="600" y="226" font-size="14" fill="#FF9800" text-anchor="middle" font-weight="700">机房 B (上海备)</text>
<rect x="490" y="248" width="220" height="30" rx="8" fill="#FFFFFF" stroke="#FF9800" stroke-width="2"/>
<text x="600" y="263" font-size="11" fill="#263238" text-anchor="middle" dominant-baseline="middle" font-weight="600">接入层 Nginx</text>
<rect x="490" y="286" width="220" height="30" rx="8" fill="#FFFFFF" stroke="#FF9800" stroke-width="2"/>
<text x="600" y="301" font-size="11" fill="#263238" text-anchor="middle" dominant-baseline="middle" font-weight="600">应用集群</text>
<rect x="490" y="324" width="220" height="30" rx="8" fill="#FFFFFF" stroke="#FF9800" stroke-width="2"/>
<text x="600" y="339" font-size="11" fill="#263238" text-anchor="middle" dominant-baseline="middle" font-weight="600">DB 主/从</text>
<rect x="490" y="362" width="220" height="30" rx="8" fill="#FFFFFF" stroke="#FF9800" stroke-width="2"/>
<text x="600" y="377" font-size="11" fill="#263238" text-anchor="middle" dominant-baseline="middle" font-weight="600">Redis Cluster</text>
<rect x="490" y="400" width="220" height="30" rx="8" fill="#FFFFFF" stroke="#FF9800" stroke-width="2"/>
<text x="600" y="415" font-size="11" fill="#263238" text-anchor="middle" dominant-baseline="middle" font-weight="600">MQ</text>
<line x1="340" y1="310" x2="460" y2="310" stroke="#f44336" stroke-width="2" marker-end="url(#arrow)"/>
<text x="400" y="304" font-size="11" fill="#f44336" text-anchor="middle" font-weight="600">数据同步</text>
<line x1="460" y1="330" x2="340" y2="330" stroke="#f44336" stroke-width="2" marker-end="url(#arrow)"/>
<text x="400" y="324" font-size="11" fill="#f44336" text-anchor="middle" font-weight="600">双向</text>
<rect x="60" y="460" width="680" height="100" rx="8" fill="#FFFFFF" stroke="#9C27B0" stroke-width="1.5"/>
<text x="80" y="484" font-size="13" fill="#9C27B0" font-weight="700">容灾策略对比</text>
<rect x="80" y="498" width="160" height="48" rx="6" fill="#4CAF5022" stroke="#4CAF50" stroke-width="1.5"/>
<text x="160" y="520" font-size="12" fill="#4CAF50" text-anchor="middle" font-weight="700">主备</text>
<text x="160" y="538" font-size="10" fill="#546E7A" text-anchor="middle">冷备切换</text>
<rect x="250" y="498" width="160" height="48" rx="6" fill="#2196F322" stroke="#2196F3" stroke-width="1.5"/>
<text x="330" y="520" font-size="12" fill="#2196F3" text-anchor="middle" font-weight="700">双活</text>
<text x="330" y="538" font-size="10" fill="#546E7A" text-anchor="middle">同强一致</text>
<rect x="420" y="498" width="160" height="48" rx="6" fill="#FF980022" stroke="#FF9800" stroke-width="1.5"/>
<text x="500" y="520" font-size="12" fill="#FF9800" text-anchor="middle" font-weight="700">两地三中心</text>
<text x="500" y="538" font-size="10" fill="#546E7A" text-anchor="middle">主流方案</text>
<rect x="590" y="498" width="160" height="48" rx="6" fill="#9C27B022" stroke="#9C27B0" stroke-width="1.5"/>
<text x="670" y="520" font-size="12" fill="#9C27B0" text-anchor="middle" font-weight="700">异地多活</text>
<text x="670" y="538" font-size="10" fill="#546E7A" text-anchor="middle">按用户分片</text>
</svg>