<svg xmlns="http://www.w3.org/2000/svg" viewBox="0 0 800 500" font-family="-apple-system, BlinkMacSystemFont, 'PingFang SC', 'Microsoft YaHei', sans-serif">
<rect width="800" height="500" fill="#FAFBFC"/>
<rect x="0" y="0" width="800" height="64" fill="#2196F3"/>
<rect x="0" y="0" width="8" height="64" fill="#FF9800"/>
<text x="28" y="40" font-size="22" font-weight="700" fill="#FFFFFF" text-rendering="geometricPrecision">【Java 后端架构师】Dubbo 到 Spring Cloud Aliba…</text>
<text x="28" y="552" font-size="0"></text>
<text x="28" y="92" font-size="14" fill="#37474F" font-style="italic">核心：Dubbo 到 SCA（Spring Cloud Alibaba）的迁移本质是&quot;通信协议（Dubbo TCP vs HT…</text>
<!-- BODY_TOP=110 -->
<defs>
<marker id="arrow" viewBox="0 0 10 10" refX="9" refY="5" markerWidth="7" markerHeight="7" orient="auto-start-reverse">
  <path d="M0,0 L10,5 L0,10 z" fill="#455A64"/>
</marker>
<marker id="arrowG" viewBox="0 0 10 10" refX="9" refY="5" markerWidth="7" markerHeight="7" orient="auto-start-reverse">
  <path d="M0,0 L10,5 L0,10 z" fill="#4CAF50"/>
</marker>
</defs>
<rect x="50" y="150" width="160" height="60" rx="8" fill="#2196F322" stroke="#2196F3" stroke-width="2"/>
<text x="130" y="172" font-size="13" fill="#263238" text-anchor="middle" dominant-baseline="middle" font-weight="600">Consumer</text>
<text x="130" y="188" font-size="13" fill="#263238" text-anchor="middle" dominant-baseline="middle" font-weight="600">业务调用方</text>
<rect x="230" y="150" width="160" height="60" rx="8" fill="#4CAF5022" stroke="#4CAF50" stroke-width="2"/>
<text x="310" y="167" font-size="11" fill="#263238" text-anchor="middle" dominant-baseline="middle" font-weight="600">Proxy</text>
<text x="310" y="180" font-size="11" fill="#263238" text-anchor="middle" dominant-baseline="middle" font-weight="600">动态代理</text>
<text x="310" y="193" font-size="11" fill="#263238" text-anchor="middle" dominant-baseline="middle" font-weight="600">(屏蔽远程细节)</text>
<line x1="210" y1="180" x2="230" y2="180" stroke="#455A64" stroke-width="2" marker-end="url(#arrow)"/>
<text x="220" y="174" font-size="11" fill="#455A64" text-anchor="middle" font-weight="600">调用</text>
<rect x="410" y="150" width="160" height="60" rx="8" fill="#FF980022" stroke="#FF9800" stroke-width="2"/>
<text x="490" y="160" font-size="11" fill="#263238" text-anchor="middle" dominant-baseline="middle" font-weight="600">Cluster</text>
<text x="490" y="173" font-size="11" fill="#263238" text-anchor="middle" dominant-baseline="middle" font-weight="600">容错(_failover</text>
<text x="490" y="187" font-size="11" fill="#263238" text-anchor="middle" dominant-baseline="middle" font-weight="600">_)</text>
<text x="490" y="200" font-size="11" fill="#263238" text-anchor="middle" dominant-baseline="middle" font-weight="600">负载均衡</text>
<line x1="390" y1="180" x2="410" y2="180" stroke="#455A64" stroke-width="2" marker-end="url(#arrow)"/>
<text x="400" y="174" font-size="11" fill="#455A64" text-anchor="middle" font-weight="600">路由</text>
<rect x="590" y="150" width="170" height="60" rx="8" fill="#9C27B022" stroke="#9C27B0" stroke-width="2"/>
<text x="675" y="160" font-size="11" fill="#263238" text-anchor="middle" dominant-baseline="middle" font-weight="600">Protocol/Codec</text>
<text x="675" y="173" font-size="11" fill="#263238" text-anchor="middle" dominant-baseline="middle" font-weight="600">Dubbo 协议编码</text>
<text x="675" y="187" font-size="11" fill="#263238" text-anchor="middle" dominant-baseline="middle" font-weight="600">(默认 TCP+Hess</text>
<text x="675" y="200" font-size="11" fill="#263238" text-anchor="middle" dominant-baseline="middle" font-weight="600">ian)</text>
<line x1="570" y1="180" x2="590" y2="180" stroke="#455A64" stroke-width="2" marker-end="url(#arrow)"/>
<text x="580" y="174" font-size="11" fill="#455A64" text-anchor="middle" font-weight="600">发送</text>
<rect x="330" y="260" width="140" height="50" rx="8" fill="#f4433622" stroke="#f44336" stroke-width="2"/>
<text x="400" y="265" font-size="11" fill="#263238" text-anchor="middle" dominant-baseline="middle" font-weight="600">Registry</text>
<text x="400" y="278" font-size="11" fill="#263238" text-anchor="middle" dominant-baseline="middle" font-weight="600">(Zookeeper/Nac</text>
<text x="400" y="292" font-size="11" fill="#263238" text-anchor="middle" dominant-baseline="middle" font-weight="600">os)</text>
<text x="400" y="305" font-size="11" fill="#263238" text-anchor="middle" dominant-baseline="middle" font-weight="600">订阅/通知</text>
<line x1="490" y1="210" x2="400" y2="260" stroke="#f44336" stroke-width="2" stroke-dasharray="6,4" marker-end="url(#arrow)"/>
<text x="445" y="229" font-size="11" fill="#f44336" text-anchor="middle" font-weight="600">订阅</text>
<line x1="400" y1="260" x2="670" y2="330" stroke="#f44336" stroke-width="2" stroke-dasharray="6,4" marker-end="url(#arrow)"/>
<text x="535" y="289" font-size="11" fill="#f44336" text-anchor="middle" font-weight="600">推送</text>
<rect x="590" y="330" width="170" height="60" rx="8" fill="#9C27B022" stroke="#9C27B0" stroke-width="2"/>
<text x="675" y="347" font-size="11" fill="#263238" text-anchor="middle" dominant-baseline="middle" font-weight="600">Protocol</text>
<text x="675" y="360" font-size="11" fill="#263238" text-anchor="middle" dominant-baseline="middle" font-weight="600">解码</text>
<text x="675" y="373" font-size="11" fill="#263238" text-anchor="middle" dominant-baseline="middle" font-weight="600">→ Invoker</text>
<rect x="590" y="400" width="170" height="60" rx="8" fill="#FF980022" stroke="#FF9800" stroke-width="2"/>
<text x="675" y="417" font-size="11" fill="#263238" text-anchor="middle" dominant-baseline="middle" font-weight="600">Filter 链</text>
<text x="675" y="430" font-size="11" fill="#263238" text-anchor="middle" dominant-baseline="middle" font-weight="600">(日志/限流/监</text>
<text x="675" y="443" font-size="11" fill="#263238" text-anchor="middle" dominant-baseline="middle" font-weight="600">控)</text>
<line x1="670" y1="390" x2="670" y2="400" stroke="#455A64" stroke-width="2" marker-end="url(#arrow)"/>
<rect x="590" y="470" width="170" height="60" rx="8" fill="#4CAF5022" stroke="#4CAF50" stroke-width="2"/>
<text x="675" y="492" font-size="13" fill="#263238" text-anchor="middle" dominant-baseline="middle" font-weight="600">真实 Service</text>
<text x="675" y="508" font-size="13" fill="#263238" text-anchor="middle" dominant-baseline="middle" font-weight="600">业务实现</text>
<line x1="670" y1="460" x2="670" y2="470" stroke="#455A64" stroke-width="2" marker-end="url(#arrow)"/>
<line x1="620" y1="310" x2="470" y2="285" stroke="#f44336" stroke-width="2" stroke-dasharray="6,4" marker-end="url(#arrow)"/>
<text x="545" y="292" font-size="11" fill="#f44336" text-anchor="middle" font-weight="600">注册</text>
<text x="80" y="350" font-size="13" fill="#2196F3" font-weight="700">核心特性</text>
<circle cx="80" cy="370" r="4" fill="#4CAF50"/>
<text x="92" y="374" font-size="11" fill="#37404F">服务发现：注册中心订阅</text>
<circle cx="330" cy="370" r="4" fill="#FF9800"/>
<text x="342" y="374" font-size="11" fill="#37404F">负载均衡：RR/Random/ConsistentHash</text>
<circle cx="80" cy="394" r="4" fill="#9C27B0"/>
<text x="92" y="398" font-size="11" fill="#37404F">容错策略：Failover/Failfast/Forking</text>
<circle cx="330" cy="394" r="4" fill="#f44336"/>
<text x="342" y="398" font-size="11" fill="#37404F">SPI 扩展机制：自适应扩展点</text>
<circle cx="80" cy="418" r="4" fill="#2196F3"/>
<text x="92" y="422" font-size="11" fill="#37404F">异步调用：CompletableFuture</text>
<circle cx="330" cy="418" r="4" fill="#607D8B"/>
<text x="342" y="422" font-size="11" fill="#37404F">Telnet 协议：在线调测</text>
</svg>