<svg xmlns="http://www.w3.org/2000/svg" viewBox="0 0 800 500" style="font-family:system-ui,-apple-system,'PingFang SC','Microsoft YaHei',sans-serif;">
  <defs>
    <marker id="arr" markerWidth="10" markerHeight="8" refX="9" refY="4" orient="auto"><path d="M0,0 L10,4 L0,8 Z" fill="#666"/></marker>
    <marker id="arrB" markerWidth="10" markerHeight="8" refX="9" refY="4" orient="auto"><path d="M0,0 L10,4 L0,8 Z" fill="#2196F3"/></marker>
  </defs>
  <rect width="800" height="500" rx="12" fill="#fafafa" stroke="#e0e0e0"/>
  <text x="400" y="34" text-anchor="middle" font-size="18" font-weight="700" fill="#263238">EventLoop 的核心原理与线程模型？</text>
  <text x="400" y="55" text-anchor="middle" font-size="12" fill="#78909C">EventLoop 是 Netty 处理连接生命周期内所有事件的核心抽象——它本质上是一个&quot;绑定单一线程、死循环处理任务&quot;的执行器。它的精妙在于串行无锁化设计…</text>

  <rect x="300" y="80" width="200" height="50" rx="8" fill="#2196F3" stroke="#2196F3" stroke-width="2"/>
  <text x="400.0" y="102.0" text-anchor="middle" font-size="13" fill="#fff" font-weight="700">EventLoopGroup</text>
  <text x="400.0" y="119.0" text-anchor="middle" font-size="10" fill="#fff" opacity="0.9">含多个 EventLoop</text>
  <rect x="80" y="170" width="180" height="50" rx="8" fill="#FF9800" stroke="#FF9800" stroke-width="2"/>
  <text x="170.0" y="192.0" text-anchor="middle" font-size="13" fill="#fff" font-weight="700">EventLoop #1</text>
  <text x="170.0" y="209.0" text-anchor="middle" font-size="10" fill="#fff" opacity="0.9">绑定 Thread-1</text>
  <line x1="400" y1="130" x2="170" y2="170" stroke="#607D8B" stroke-width="2" marker-end="url(#arr)"/>
  <rect x="90" y="250" width="70" height="30" rx="15.0" fill="#4CAF50"/><text x="125.0" y="269.0" text-anchor="middle" font-size="12" fill="#fff" font-weight="700">Ch1</text>
  <line x1="170" y1="220" x2="125" y2="255" stroke="#4CAF50" stroke-width="1.2"/>
  <rect x="180" y="250" width="70" height="30" rx="15.0" fill="#9C27B0"/><text x="215.0" y="269.0" text-anchor="middle" font-size="12" fill="#fff" font-weight="700">Ch3</text>
  <line x1="170" y1="220" x2="215" y2="255" stroke="#9C27B0" stroke-width="1.2"/>
  <rect x="90" y="295" width="70" height="30" rx="15.0" fill="#4CAF50"/><text x="125.0" y="314.0" text-anchor="middle" font-size="12" fill="#fff" font-weight="700">Ch2</text>
  <line x1="170" y1="220" x2="125" y2="255" stroke="#4CAF50" stroke-width="1.2"/>
  <rect x="180" y="295" width="70" height="30" rx="15.0" fill="#9C27B0"/><text x="215.0" y="314.0" text-anchor="middle" font-size="12" fill="#fff" font-weight="700">Ch4</text>
  <line x1="170" y1="220" x2="215" y2="255" stroke="#9C27B0" stroke-width="1.2"/>
  <rect x="310" y="170" width="180" height="50" rx="8" fill="#FF9800" stroke="#FF9800" stroke-width="2"/>
  <text x="400.0" y="192.0" text-anchor="middle" font-size="13" fill="#fff" font-weight="700">EventLoop #2</text>
  <text x="400.0" y="209.0" text-anchor="middle" font-size="10" fill="#fff" opacity="0.9">绑定 Thread-2</text>
  <line x1="400" y1="130" x2="400" y2="170" stroke="#607D8B" stroke-width="2" marker-end="url(#arr)"/>
  <rect x="320" y="250" width="70" height="30" rx="15.0" fill="#4CAF50"/><text x="355.0" y="269.0" text-anchor="middle" font-size="12" fill="#fff" font-weight="700">Ch1</text>
  <line x1="400" y1="220" x2="355" y2="255" stroke="#4CAF50" stroke-width="1.2"/>
  <rect x="410" y="250" width="70" height="30" rx="15.0" fill="#9C27B0"/><text x="445.0" y="269.0" text-anchor="middle" font-size="12" fill="#fff" font-weight="700">Ch3</text>
  <line x1="400" y1="220" x2="445" y2="255" stroke="#9C27B0" stroke-width="1.2"/>
  <rect x="320" y="295" width="70" height="30" rx="15.0" fill="#4CAF50"/><text x="355.0" y="314.0" text-anchor="middle" font-size="12" fill="#fff" font-weight="700">Ch2</text>
  <line x1="400" y1="220" x2="355" y2="255" stroke="#4CAF50" stroke-width="1.2"/>
  <rect x="410" y="295" width="70" height="30" rx="15.0" fill="#9C27B0"/><text x="445.0" y="314.0" text-anchor="middle" font-size="12" fill="#fff" font-weight="700">Ch4</text>
  <line x1="400" y1="220" x2="445" y2="255" stroke="#9C27B0" stroke-width="1.2"/>
  <rect x="540" y="170" width="180" height="50" rx="8" fill="#FF9800" stroke="#FF9800" stroke-width="2"/>
  <text x="630.0" y="192.0" text-anchor="middle" font-size="13" fill="#fff" font-weight="700">EventLoop #3</text>
  <text x="630.0" y="209.0" text-anchor="middle" font-size="10" fill="#fff" opacity="0.9">绑定 Thread-3</text>
  <line x1="400" y1="130" x2="630" y2="170" stroke="#607D8B" stroke-width="2" marker-end="url(#arr)"/>
  <rect x="550" y="250" width="70" height="30" rx="15.0" fill="#4CAF50"/><text x="585.0" y="269.0" text-anchor="middle" font-size="12" fill="#fff" font-weight="700">Ch1</text>
  <line x1="630" y1="220" x2="585" y2="255" stroke="#4CAF50" stroke-width="1.2"/>
  <rect x="640" y="250" width="70" height="30" rx="15.0" fill="#9C27B0"/><text x="675.0" y="269.0" text-anchor="middle" font-size="12" fill="#fff" font-weight="700">Ch3</text>
  <line x1="630" y1="220" x2="675" y2="255" stroke="#9C27B0" stroke-width="1.2"/>
  <rect x="550" y="295" width="70" height="30" rx="15.0" fill="#4CAF50"/><text x="585.0" y="314.0" text-anchor="middle" font-size="12" fill="#fff" font-weight="700">Ch2</text>
  <line x1="630" y1="220" x2="585" y2="255" stroke="#4CAF50" stroke-width="1.2"/>
  <rect x="640" y="295" width="70" height="30" rx="15.0" fill="#9C27B0"/><text x="675.0" y="314.0" text-anchor="middle" font-size="12" fill="#fff" font-weight="700">Ch4</text>
  <line x1="630" y1="220" x2="675" y2="255" stroke="#9C27B0" stroke-width="1.2"/>
  <text x="400" y="395" text-anchor="middle" font-size="12" font-weight="700" fill="#1565C0">串行无锁化：一个 Channel 终身绑定一个 EventLoop / 一个线程</text>
  <text x="400" y="418" text-anchor="middle" font-size="11" fill="#37474F">同 Channel 的所有 I/O 串行执行 → 无需加锁</text>
  <text x="40" y="482" font-size="11" font-weight="600" fill="#455A64">图例：</text>
  <rect x="80" y="470" width="14" height="14" rx="3" fill="#2196F3"/>
  <text x="100" y="482" font-size="11" fill="#37474F">Group</text>
  <rect x="157" y="470" width="14" height="14" rx="3" fill="#FF9800"/>
  <text x="177" y="482" font-size="11" fill="#37474F">EventLoop+Thread</text>
  <rect x="311" y="470" width="14" height="14" rx="3" fill="#4CAF50"/>
  <text x="331" y="482" font-size="11" fill="#37474F">Channel</text>
  <rect x="402" y="470" width="14" height="14" rx="3" fill="#9C27B0"/>
  <text x="422" y="482" font-size="11" fill="#37474F">Channel</text>
</svg>