<?xml version="1.0" encoding="UTF-8"?>
<svg xmlns="http://www.w3.org/2000/svg" viewBox="0 0 800 600" font-family="system-ui, -apple-system, Segoe UI, Roboto, sans-serif">
<defs>
  <marker id="arrow" markerWidth="10" markerHeight="10" refX="9" refY="3" orient="auto" markerUnits="strokeWidth"><path d="M0,0 L0,6 L9,3 z" fill="#37474F"/></marker>
  <marker id="arrowR" markerWidth="10" markerHeight="10" refX="9" refY="3" orient="auto" markerUnits="strokeWidth"><path d="M0,0 L0,6 L9,3 z" fill="#f44336"/></marker>
  <marker id="arrowG" markerWidth="10" markerHeight="10" refX="9" refY="3" orient="auto" markerUnits="strokeWidth"><path d="M0,0 L0,6 L9,3 z" fill="#4CAF50"/></marker>
  <marker id="arrowB" markerWidth="10" markerHeight="10" refX="9" refY="3" orient="auto" markerUnits="strokeWidth"><path d="M0,0 L0,6 L9,3 z" fill="#2196F3"/></marker>
</defs>
<text x="400" y="38" text-anchor="middle" font-size="22" font-weight="700" fill="#1a202c">Tomcat 类加载机制（破坏双亲委派）</text>
<line x1="40" y1="56" x2="760" y2="56" stroke="#607D8B" stroke-width="1" stroke-dasharray="4,3" opacity="0.4"/>
<rect x="120" y="100" width="560" height="60" rx="6" ry="6" fill="#f4433622" stroke="#f44336" stroke-width="2" opacity="1.0"/><rect x="120" y="100" width="140" height="60" rx="6" ry="6" fill="#f44336" stroke="#f44336" stroke-width="1.5" opacity="1.0"/><text x="190" y="128" text-anchor="middle" font-size="12" font-weight="700" fill="#FFFFFF">Bootstrap</text><text x="190" y="147" text-anchor="middle" font-size="9" font-weight="normal" fill="#FFFFFF" font-style="italic">ClassLoader</text><text x="290" y="135" text-anchor="start" font-size="12" font-weight="600" fill="#B71C1C">rt.jar 核心</text><rect x="120" y="175" width="560" height="60" rx="6" ry="6" fill="#4CAF5022" stroke="#4CAF50" stroke-width="2" opacity="1.0"/><rect x="120" y="175" width="140" height="60" rx="6" ry="6" fill="#4CAF50" stroke="#4CAF50" stroke-width="1.5" opacity="1.0"/><text x="190" y="203" text-anchor="middle" font-size="12" font-weight="700" fill="#FFFFFF">System (App)</text><text x="190" y="222" text-anchor="middle" font-size="9" font-weight="normal" fill="#FFFFFF" font-style="italic">ClassLoader</text><text x="290" y="210" text-anchor="start" font-size="12" font-weight="600" fill="#1B5E20">CLASSPATH (Tomcat 启动)</text><rect x="120" y="250" width="560" height="60" rx="6" ry="6" fill="#FF980022" stroke="#FF9800" stroke-width="2" opacity="1.0"/><rect x="120" y="250" width="140" height="60" rx="6" ry="6" fill="#FF9800" stroke="#FF9800" stroke-width="1.5" opacity="1.0"/><text x="190" y="278" text-anchor="middle" font-size="12" font-weight="700" fill="#FFFFFF">Common</text><text x="190" y="297" text-anchor="middle" font-size="9" font-weight="normal" fill="#FFFFFF" font-style="italic">ClassLoader</text><text x="290" y="285" text-anchor="start" font-size="12" font-weight="600" fill="#E65100">CATALINA_HOME/lib 共享</text><line x1="400" y1="310" x2="250" y2="325" stroke="#607D8B" stroke-width="1.5" marker-end="url(#arrow)"/><line x1="400" y1="310" x2="550" y2="325" stroke="#607D8B" stroke-width="1.5" marker-end="url(#arrow)"/><rect x="120" y="325" width="220" height="60" rx="6" ry="6" fill="#79554822" stroke="#795548" stroke-width="2" opacity="1.0"/><rect x="120" y="325" width="100" height="60" rx="6" ry="6" fill="#795548" stroke="#795548" stroke-width="1.5" opacity="1.0"/><text x="170" y="352" text-anchor="middle" font-size="11" font-weight="700" fill="#FFFFFF">Catalina</text><text x="170" y="370" text-anchor="middle" font-size="9" font-weight="normal" fill="#FFFFFF" font-style="italic">Tomcat 自身</text><text x="245" y="360" text-anchor="start" font-size="10" font-weight="normal" fill="#5D4037">catalina.jar</text><rect x="460" y="325" width="220" height="60" rx="6" ry="6" fill="#1565C022" stroke="#2196F3" stroke-width="2" opacity="1.0"/><rect x="460" y="325" width="100" height="60" rx="6" ry="6" fill="#2196F3" stroke="#2196F3" stroke-width="1.5" opacity="1.0"/><text x="510" y="352" text-anchor="middle" font-size="11" font-weight="700" fill="#FFFFFF">Shared</text><text x="510" y="370" text-anchor="middle" font-size="9" font-weight="normal" fill="#FFFFFF" font-style="italic">共享类</text><text x="585" y="360" text-anchor="start" font-size="10" font-weight="normal" fill="#1565C0">shared/lib</text><line x1="400" y1="385" x2="280" y2="425" stroke="#9C27B0" stroke-width="2" marker-end="url(#arrow)"/><line x1="400" y1="385" x2="520" y2="425" stroke="#9C27B0" stroke-width="2" marker-end="url(#arrow)"/><rect x="120" y="425" width="320" height="60" rx="6" ry="6" fill="#4A148C22" stroke="#9C27B0" stroke-width="2" opacity="1.0"/><rect x="120" y="425" width="120" height="60" rx="6" ry="6" fill="#9C27B0" stroke="#9C27B0" stroke-width="1.5" opacity="1.0"/><text x="180" y="452" text-anchor="middle" font-size="11" font-weight="700" fill="#FFFFFF">WebApp 1</text><text x="180" y="470" text-anchor="middle" font-size="9" font-weight="normal" fill="#FFFFFF" font-style="italic">WebAppClassLoader</text><text x="255" y="452" text-anchor="start" font-size="10" font-weight="700" fill="#4A148C">WEB-INF/classes</text><text x="255" y="470" text-anchor="start" font-size="10" font-weight="normal" fill="#4A148C">WEB-INF/lib/*.jar</text><rect x="460" y="425" width="320" height="60" rx="6" ry="6" fill="#4A148C22" stroke="#9C27B0" stroke-width="2" opacity="1.0"/><rect x="460" y="425" width="120" height="60" rx="6" ry="6" fill="#9C27B0" stroke="#9C27B0" stroke-width="1.5" opacity="1.0"/><text x="520" y="452" text-anchor="middle" font-size="11" font-weight="700" fill="#FFFFFF">WebApp 2</text><text x="520" y="470" text-anchor="middle" font-size="9" font-weight="normal" fill="#FFFFFF" font-style="italic">WebAppClassLoader</text><text x="595" y="452" text-anchor="start" font-size="10" font-weight="700" fill="#4A148C">Spring 5.x 版本</text><text x="595" y="470" text-anchor="start" font-size="10" font-weight="normal" fill="#4A148C">可不同于 WebApp 1</text><rect x="40" y="510" width="720" height="70" rx="6" ry="6" fill="#FFEBEE" stroke="#f44336" stroke-width="1.5" opacity="1.0"/><text x="400" y="532" text-anchor="middle" font-size="13" font-weight="700" fill="#B71C1C">加载策略：优先自己加载 (破坏双亲委派)</text><text x="400" y="552" text-anchor="middle" font-size="11" font-weight="normal" fill="#37474F">WebApp → Local → Shared → Common → System → Bootstrap</text><text x="400" y="570" text-anchor="middle" font-size="10" font-weight="normal" fill="#607D8B" font-style="italic">java.* 等核心类仍走双亲委派，保证安全</text></svg>
